<?xml version="1.0" encoding="UTF-8" standalone="no"?>
<!DOCTYPE svg PUBLIC "-//W3C//DTD SVG 1.1//EN" "http://www.w3.org/Graphics/SVG/1.1/DTD/svg11.dtd">
<svg width="100%" height="100%" viewBox="0 0 585 221" version="1.1" xmlns="http://www.w3.org/2000/svg" xmlns:xlink="http://www.w3.org/1999/xlink" xml:space="preserve" xmlns:serif="http://www.serif.com/" style="fill-rule:evenodd;clip-rule:evenodd;stroke-linecap:round;stroke-linejoin:round;stroke-miterlimit:2;">
    <g transform="matrix(4.16667,0,0,4.16667,-162.257,-1509.6)">
        <path d="M124.821,370.098C125.923,371.023 126.823,372.179 127.49,373.451C128.187,374.866 128.332,376.369 128.477,377.929C129.086,384.142 129.231,390.383 128.94,396.596C128.854,398.128 128.768,399.63 128.621,401.162C128.506,402.664 128.477,404.283 128.07,405.728C127.316,408.531 125.024,411.074 122.441,412.114C122.006,412.287 121.542,412.432 121.077,412.49C115.187,413.385 109.18,413.53 103.26,412.98C101.78,412.836 100.271,412.749 98.82,412.404C97.427,412.056 96.15,411.19 95.077,410.179C94.061,409.196 93.191,407.982 92.639,406.624C92.059,405.179 92.001,403.619 91.856,402.087C91.304,395.874 91.188,389.632 91.507,383.391C91.594,381.888 91.711,380.356 91.856,378.825C91.971,377.323 92.029,375.704 92.581,374.288" style="fill:none;stroke:rgb(65,65,66);stroke-width:3.91px;"/>
        <path d="M137.56,370.416C136.544,371.369 135.645,372.554 135.064,373.884C134.425,375.329 134.338,376.831 134.281,378.391C133.962,384.634 134.078,390.846 134.658,397.059C134.803,398.59 134.977,400.093 135.151,401.624C135.354,403.099 135.47,404.716 135.935,406.162C136.805,408.907 139.213,411.363 141.854,412.287C142.29,412.432 142.754,412.548 143.248,412.606C149.167,413.212 155.145,413.125 161.036,412.287C162.516,412.085 164.024,411.912 165.447,411.507C166.839,411.103 168.087,410.206 169.074,409.138C170.061,408.097 170.873,406.826 171.366,405.468C171.889,403.994 171.859,402.434 171.946,400.902C172.237,394.66 172.063,388.418 171.453,382.206C171.279,380.704 171.105,379.172 170.902,377.669C170.699,376.166 170.583,374.548 169.973,373.161" style="fill:none;stroke:rgb(65,65,66);stroke-width:3.91px;"/>
        <path d="M82.859,370.416C83.876,371.369 84.746,372.554 85.355,373.884C85.994,375.329 86.052,376.831 86.139,378.391C86.458,384.634 86.342,390.846 85.762,397.059C85.616,398.59 85.442,400.093 85.239,401.624C85.065,403.099 84.949,404.716 84.485,406.162C83.615,408.907 81.206,411.363 78.565,412.287C78.129,412.432 77.666,412.548 77.172,412.606C71.252,413.212 65.275,413.125 59.355,412.287C57.904,412.085 56.395,411.912 54.974,411.507C53.581,411.103 52.333,410.206 51.317,409.138C50.359,408.097 49.517,406.826 49.053,405.468C48.531,403.994 48.561,402.434 48.473,400.902C48.183,394.66 48.357,388.418 48.966,382.206C49.112,380.704 49.315,379.172 49.517,377.669C49.721,376.166 49.837,374.548 50.417,373.161" style="fill:none;stroke:rgb(65,65,66);stroke-width:3.91px;"/>
        <path d="M177.373,364.781C158.685,366.659 135.993,367.757 111.588,367.757C84.978,367.757 60.458,366.457 40.899,364.261" style="fill:none;stroke:rgb(65,65,66);stroke-width:3.91px;"/>
        <path d="M69.395,397.868L64.752,397.868C62.054,397.868 59.82,395.671 59.82,392.955L59.82,385.066C59.82,382.379 62.054,380.155 64.752,380.155L69.395,380.155C72.124,380.155 74.329,382.379 74.329,385.066L74.329,392.955C74.329,395.671 72.124,397.868 69.395,397.868Z" style="fill:none;stroke:rgb(65,65,66);stroke-width:3.91px;"/>
        <path d="M111.908,397.868L107.265,397.868C104.566,397.868 102.332,395.671 102.332,392.955L102.332,385.066C102.332,382.379 104.566,380.155 107.265,380.155L111.908,380.155C114.635,380.155 116.87,382.379 116.87,385.066L116.87,392.955C116.87,395.671 114.635,397.868 111.908,397.868Z" style="fill:none;stroke:rgb(65,65,66);stroke-width:3.91px;"/>
        <path d="M154.448,397.868L149.776,397.868C147.078,397.868 144.843,395.671 144.843,392.955L144.843,385.066C144.843,382.379 147.078,380.155 149.776,380.155L154.448,380.155C157.147,380.155 159.382,382.379 159.382,385.066L159.382,392.955C159.382,395.671 157.147,397.868 154.448,397.868Z" style="fill:none;stroke:rgb(65,65,66);stroke-width:3.91px;"/>
        <path d="M48.647,386.078L59.82,389.025" style="fill:none;stroke:rgb(65,65,66);stroke-width:3.91px;"/>
        <path d="M74.329,389.025L102.332,389.025" style="fill:none;stroke:rgb(65,65,66);stroke-width:3.91px;"/>
        <path d="M116.87,389.025L144.843,389.025" style="fill:none;stroke:rgb(65,65,66);stroke-width:3.91px;"/>
        <path d="M159.382,389.025L172.063,386.078" style="fill:none;stroke:rgb(65,65,66);stroke-width:3.91px;"/>
    </g>
</svg>
