<?xml version="1.0" encoding="UTF-8" standalone="no"?>
<!DOCTYPE svg PUBLIC "-//W3C//DTD SVG 1.1//EN" "http://www.w3.org/Graphics/SVG/1.1/DTD/svg11.dtd">
<svg width="100%" height="100%" viewBox="0 0 377 482" version="1.1" xmlns="http://www.w3.org/2000/svg" xmlns:xlink="http://www.w3.org/1999/xlink" xml:space="preserve" xmlns:serif="http://www.serif.com/" style="fill-rule:evenodd;clip-rule:evenodd;stroke-linecap:round;stroke-linejoin:round;stroke-miterlimit:2;">
    <g transform="matrix(4.16667,0,0,4.16667,-1259.15,-591.449)">
        <path d="M333.404,145.195C345.767,149.327 353.282,154.904 363.293,153.95" style="fill:none;stroke:rgb(65,65,66);stroke-width:3.91px;"/>
        <path d="M375.046,145.396C365.382,140.427 353.775,149.471 347.274,149.471C343.357,149.471 337.554,146.178 331.459,144.645C332.185,147.015 332.157,149.009 331.315,149.616C328.559,151.667 337.815,163.978 330.996,167.127C324.147,170.277 321.247,163.978 318.024,167.127C314.833,170.277 319.504,181.403 311.815,178.166C310.016,177.414 307.288,176.519 304.154,175.565C304.792,183.859 306.649,190.881 309.231,196.516C311.467,201.428 315.268,201.197 314.369,217.408C313.439,233.647 327.194,255.609 331.575,255.609C335.958,255.609 335.64,248.241 335.64,248.241L335.64,216.656C335.64,214.576 335.958,204.953 347.274,204.953C358.593,204.953 358.911,214.576 358.911,216.656L358.911,248.241C358.911,248.241 358.593,255.609 362.975,255.609C367.356,255.609 381.082,233.647 380.182,217.408C379.282,201.197 382.968,201.37 385.318,196.516C387.697,191.603 389.845,183.512 390.455,174.929C391.063,166.376 384.708,150.367 375.046,145.396Z" style="fill:none;stroke:rgb(65,65,66);stroke-width:3.91px;"/>
    </g>
</svg>
