<?xml version="1.0" encoding="UTF-8" standalone="no"?>
<!DOCTYPE svg PUBLIC "-//W3C//DTD SVG 1.1//EN" "http://www.w3.org/Graphics/SVG/1.1/DTD/svg11.dtd">
<svg width="100%" height="100%" viewBox="0 0 392 502" version="1.1" xmlns="http://www.w3.org/2000/svg" xmlns:xlink="http://www.w3.org/1999/xlink" xml:space="preserve" xmlns:serif="http://www.serif.com/" style="fill-rule:evenodd;clip-rule:evenodd;stroke-linecap:round;stroke-linejoin:round;stroke-miterlimit:2;">
    <g transform="matrix(4.16667,0,0,4.16667,-258.81,-581.568)">
        <path d="M138.082,143.085C128.013,137.912 115.912,147.333 109.122,147.333C102.361,147.333 90.26,137.912 80.161,143.085C70.092,148.258 63.476,164.96 64.114,173.889C64.752,182.818 66.697,190.36 69.482,196.37C71.803,201.485 75.78,201.254 74.821,218.159C73.864,235.092 85.472,257.978 90.027,257.978C94.583,257.978 94.264,250.292 94.264,250.292C94.264,250.292 97.021,219.575 97.021,217.379C97.021,215.183 97.34,205.155 109.122,205.155C120.933,205.155 121.252,215.183 121.252,217.379C121.252,219.575 124.733,250.292 124.733,250.292C124.733,250.292 124.443,257.978 128.998,257.978C133.556,257.978 144.379,235.092 143.45,218.159C142.493,201.254 146.353,201.428 148.79,196.37C151.286,191.285 153.52,182.818 154.159,173.889C154.768,164.96 148.151,148.258 138.082,143.085Z" style="fill:none;stroke:rgb(65,65,66);stroke-width:3.91px;"/>
        <path d="M92.146,154.268C90.346,154.182 88.519,154.471 86.806,155.337C79.639,159.036 74.938,170.884 75.373,177.241" style="fill:none;stroke:rgb(65,65,66);stroke-width:3.91px;"/>
        <path d="M94.67,142.883C107.555,147.189 115.39,152.996 125.808,152.014" style="fill:none;stroke:rgb(65,65,66);stroke-width:3.91px;"/>
    </g>
</svg>
