<?xml version="1.0" encoding="UTF-8" standalone="no"?>
<!DOCTYPE svg PUBLIC "-//W3C//DTD SVG 1.1//EN" "http://www.w3.org/Graphics/SVG/1.1/DTD/svg11.dtd">
<svg width="100%" height="100%" viewBox="0 0 304 91" version="1.1" xmlns="http://www.w3.org/2000/svg" xmlns:xlink="http://www.w3.org/1999/xlink" xml:space="preserve" xmlns:serif="http://www.serif.com/" style="fill-rule:evenodd;clip-rule:evenodd;stroke-linejoin:round;stroke-miterlimit:2;">
    <g id="Artboard1" transform="matrix(1,0,0,1,-2.43158,-1.34704)">
        <rect x="2.432" y="1.347" width="303.164" height="90.008" style="fill:none;"/>
        <g id="Layer-1" serif:id="Layer 1" transform="matrix(0.314674,0,0,0.314674,350.585,462.738)">
            <g transform="matrix(1,0,0,1,-1610.69,-2135.07)">
                <g transform="matrix(106.042,0,0,106.042,503.444,740.979)">
                    <path d="M0.205,-0.019L0.205,-0.228C0.216,-0.23 0.233,-0.232 0.255,-0.235C0.276,-0.238 0.299,-0.24 0.323,-0.243C0.346,-0.245 0.369,-0.247 0.391,-0.249C0.412,-0.25 0.429,-0.251 0.44,-0.251C0.447,-0.251 0.452,-0.254 0.457,-0.26C0.462,-0.266 0.464,-0.274 0.464,-0.285C0.464,-0.297 0.458,-0.303 0.445,-0.303C0.429,-0.303 0.407,-0.301 0.381,-0.298C0.354,-0.294 0.323,-0.292 0.288,-0.292L0.209,-0.292L0.208,-0.343C0.208,-0.369 0.208,-0.395 0.209,-0.421C0.209,-0.446 0.21,-0.469 0.212,-0.488C0.213,-0.499 0.215,-0.506 0.217,-0.509C0.218,-0.512 0.221,-0.513 0.224,-0.514C0.235,-0.516 0.251,-0.518 0.271,-0.52C0.29,-0.522 0.311,-0.524 0.334,-0.527C0.357,-0.529 0.379,-0.531 0.401,-0.534C0.423,-0.536 0.442,-0.538 0.457,-0.541C0.46,-0.542 0.464,-0.544 0.467,-0.547C0.47,-0.55 0.472,-0.553 0.475,-0.557C0.477,-0.56 0.479,-0.564 0.481,-0.568C0.482,-0.572 0.483,-0.575 0.483,-0.577C0.483,-0.581 0.482,-0.584 0.479,-0.585C0.476,-0.586 0.474,-0.587 0.472,-0.587C0.465,-0.587 0.452,-0.587 0.435,-0.586C0.417,-0.584 0.397,-0.584 0.375,-0.583C0.352,-0.582 0.329,-0.58 0.304,-0.58C0.279,-0.579 0.256,-0.578 0.235,-0.578C0.216,-0.578 0.201,-0.579 0.191,-0.581C0.18,-0.582 0.171,-0.583 0.162,-0.583C0.157,-0.583 0.152,-0.581 0.145,-0.577C0.138,-0.572 0.132,-0.567 0.126,-0.561C0.119,-0.555 0.114,-0.549 0.11,-0.543C0.105,-0.536 0.103,-0.531 0.103,-0.528C0.103,-0.521 0.106,-0.511 0.111,-0.5C0.116,-0.489 0.123,-0.477 0.131,-0.466C0.132,-0.456 0.133,-0.444 0.134,-0.429C0.135,-0.413 0.137,-0.399 0.138,-0.385C0.139,-0.37 0.14,-0.357 0.141,-0.346C0.142,-0.334 0.142,-0.326 0.142,-0.322C0.142,-0.311 0.141,-0.3 0.138,-0.291C0.135,-0.282 0.133,-0.272 0.133,-0.261C0.133,-0.254 0.134,-0.249 0.135,-0.244C0.136,-0.239 0.138,-0.233 0.14,-0.228C0.142,-0.223 0.144,-0.217 0.145,-0.21C0.146,-0.203 0.147,-0.194 0.147,-0.183C0.147,-0.136 0.147,-0.099 0.146,-0.071C0.145,-0.042 0.145,-0.02 0.144,-0.004C0.143,0.013 0.143,0.025 0.142,0.034C0.141,0.042 0.141,0.049 0.141,0.056C0.141,0.059 0.142,0.063 0.146,0.066C0.149,0.069 0.152,0.071 0.156,0.074C0.16,0.077 0.164,0.079 0.169,0.081C0.174,0.082 0.178,0.083 0.181,0.083C0.186,0.083 0.19,0.079 0.193,0.07C0.196,0.061 0.198,0.051 0.2,0.04C0.202,0.029 0.203,0.017 0.204,0.006C0.205,-0.005 0.205,-0.014 0.205,-0.019Z" style="fill:white;fill-rule:nonzero;"/>
                </g>
                <g transform="matrix(106.042,0,0,106.042,562.509,740.979)">
                    <path d="M0.432,-0.257L0.251,-0.257C0.24,-0.257 0.234,-0.259 0.234,-0.264C0.234,-0.267 0.236,-0.272 0.239,-0.279C0.242,-0.285 0.248,-0.296 0.255,-0.311L0.307,-0.417C0.309,-0.421 0.311,-0.425 0.312,-0.43C0.313,-0.435 0.315,-0.439 0.317,-0.444C0.318,-0.449 0.32,-0.452 0.322,-0.456C0.323,-0.459 0.325,-0.46 0.327,-0.46C0.332,-0.46 0.335,-0.456 0.338,-0.448C0.34,-0.439 0.345,-0.427 0.353,-0.412L0.432,-0.257ZM0.275,-0.211C0.285,-0.211 0.299,-0.211 0.317,-0.211C0.335,-0.21 0.353,-0.209 0.372,-0.208C0.391,-0.207 0.408,-0.205 0.424,-0.203C0.44,-0.2 0.451,-0.197 0.458,-0.194C0.461,-0.193 0.466,-0.186 0.473,-0.175C0.48,-0.163 0.487,-0.15 0.494,-0.135C0.501,-0.12 0.508,-0.106 0.515,-0.092C0.521,-0.077 0.525,-0.067 0.527,-0.061C0.53,-0.052 0.533,-0.045 0.537,-0.038C0.541,-0.031 0.546,-0.026 0.552,-0.025C0.555,-0.024 0.561,-0.022 0.568,-0.021C0.575,-0.02 0.582,-0.018 0.59,-0.017C0.598,-0.016 0.606,-0.015 0.613,-0.014C0.62,-0.013 0.626,-0.013 0.63,-0.013C0.635,-0.013 0.641,-0.014 0.646,-0.017C0.651,-0.019 0.653,-0.024 0.653,-0.031C0.653,-0.033 0.651,-0.036 0.647,-0.041C0.642,-0.046 0.635,-0.055 0.625,-0.068C0.615,-0.081 0.602,-0.099 0.586,-0.124C0.569,-0.149 0.549,-0.182 0.525,-0.224C0.487,-0.291 0.455,-0.351 0.43,-0.406C0.405,-0.461 0.381,-0.512 0.358,-0.56C0.353,-0.571 0.346,-0.581 0.338,-0.59C0.329,-0.598 0.323,-0.602 0.319,-0.602C0.316,-0.602 0.311,-0.601 0.305,-0.599C0.299,-0.596 0.293,-0.593 0.287,-0.59C0.281,-0.586 0.276,-0.582 0.272,-0.578C0.267,-0.574 0.265,-0.57 0.265,-0.567C0.265,-0.565 0.266,-0.562 0.267,-0.559L0.276,-0.534C0.277,-0.53 0.278,-0.527 0.278,-0.525C0.278,-0.51 0.273,-0.489 0.264,-0.463C0.255,-0.437 0.243,-0.409 0.229,-0.379C0.214,-0.348 0.199,-0.317 0.182,-0.286C0.165,-0.254 0.149,-0.225 0.134,-0.198C0.119,-0.171 0.107,-0.148 0.097,-0.129C0.086,-0.11 0.08,-0.098 0.079,-0.093C0.072,-0.075 0.064,-0.063 0.054,-0.056C0.043,-0.048 0.033,-0.044 0.023,-0.041C0.018,-0.04 0.015,-0.038 0.014,-0.035C0.012,-0.032 0.011,-0.025 0.011,-0.016C0.011,-0.013 0.012,-0.009 0.014,-0.006C0.015,-0.002 0.018,-0 0.021,-0C0.022,-0 0.026,-0 0.033,-0.001C0.04,-0.001 0.047,-0.001 0.056,-0.002C0.065,-0.003 0.074,-0.004 0.083,-0.005C0.092,-0.006 0.099,-0.006 0.106,-0.007C0.111,-0.008 0.115,-0.01 0.118,-0.014C0.121,-0.017 0.123,-0.025 0.125,-0.036C0.126,-0.042 0.13,-0.051 0.136,-0.063C0.141,-0.074 0.148,-0.087 0.155,-0.101C0.162,-0.115 0.169,-0.129 0.176,-0.143C0.183,-0.157 0.188,-0.169 0.191,-0.179C0.194,-0.187 0.197,-0.193 0.2,-0.198C0.203,-0.202 0.208,-0.205 0.214,-0.207C0.219,-0.209 0.227,-0.21 0.237,-0.211C0.246,-0.211 0.259,-0.211 0.275,-0.211Z" style="fill:white;fill-rule:nonzero;"/>
                </g>
                <g transform="matrix(106.042,0,0,106.042,635.36,740.979)">
                    <path d="M0.134,-0.309C0.134,-0.256 0.134,-0.212 0.135,-0.175C0.135,-0.138 0.135,-0.107 0.136,-0.083C0.137,-0.058 0.138,-0.039 0.14,-0.026C0.141,-0.012 0.143,-0.002 0.146,0.005C0.149,0.012 0.152,0.016 0.156,0.018C0.159,0.019 0.163,0.02 0.168,0.02C0.179,0.02 0.188,0.014 0.193,0.001C0.198,-0.012 0.2,-0.039 0.2,-0.079C0.2,-0.199 0.201,-0.294 0.203,-0.363C0.204,-0.432 0.206,-0.481 0.209,-0.51C0.21,-0.521 0.212,-0.531 0.215,-0.54C0.218,-0.548 0.219,-0.556 0.219,-0.564C0.219,-0.568 0.214,-0.573 0.205,-0.579C0.196,-0.584 0.187,-0.587 0.18,-0.587C0.175,-0.587 0.169,-0.584 0.161,-0.58C0.152,-0.575 0.144,-0.569 0.136,-0.562C0.128,-0.555 0.121,-0.548 0.115,-0.541C0.109,-0.534 0.106,-0.528 0.106,-0.524C0.106,-0.519 0.107,-0.513 0.11,-0.508C0.112,-0.502 0.116,-0.495 0.123,-0.488C0.127,-0.483 0.129,-0.478 0.13,-0.472C0.131,-0.465 0.131,-0.457 0.131,-0.448C0.131,-0.431 0.132,-0.412 0.133,-0.392C0.134,-0.372 0.134,-0.344 0.134,-0.309Z" style="fill:white;fill-rule:nonzero;"/>
                </g>
                <g transform="matrix(106.042,0,0,106.042,672.793,740.979)">
                    <path d="M0.208,-0.329L0.208,-0.372C0.208,-0.386 0.208,-0.401 0.209,-0.417C0.21,-0.432 0.211,-0.447 0.212,-0.462C0.213,-0.477 0.214,-0.49 0.215,-0.501C0.216,-0.512 0.218,-0.521 0.22,-0.527C0.227,-0.538 0.237,-0.546 0.25,-0.551C0.263,-0.556 0.275,-0.559 0.286,-0.559C0.305,-0.559 0.321,-0.552 0.334,-0.539C0.347,-0.525 0.354,-0.501 0.354,-0.468C0.354,-0.445 0.348,-0.424 0.336,-0.406C0.323,-0.387 0.309,-0.372 0.294,-0.36C0.278,-0.347 0.263,-0.338 0.25,-0.331C0.236,-0.324 0.228,-0.321 0.226,-0.321C0.216,-0.321 0.21,-0.324 0.208,-0.329ZM0.303,-0.617C0.296,-0.617 0.286,-0.616 0.273,-0.614C0.26,-0.611 0.245,-0.607 0.229,-0.602C0.213,-0.597 0.196,-0.59 0.178,-0.582C0.16,-0.573 0.143,-0.563 0.126,-0.551C0.117,-0.545 0.113,-0.536 0.113,-0.525C0.113,-0.518 0.114,-0.514 0.117,-0.511C0.12,-0.507 0.123,-0.505 0.126,-0.504C0.129,-0.503 0.132,-0.501 0.135,-0.5C0.138,-0.498 0.139,-0.494 0.14,-0.489C0.142,-0.471 0.143,-0.449 0.145,-0.424C0.146,-0.398 0.146,-0.371 0.146,-0.343L0.146,-0.29C0.146,-0.278 0.146,-0.26 0.145,-0.237C0.144,-0.214 0.144,-0.19 0.143,-0.166C0.142,-0.142 0.14,-0.121 0.139,-0.102C0.137,-0.083 0.135,-0.071 0.133,-0.068C0.128,-0.061 0.123,-0.054 0.12,-0.049C0.116,-0.044 0.114,-0.039 0.114,-0.036C0.114,-0.031 0.117,-0.027 0.123,-0.023C0.129,-0.018 0.136,-0.014 0.144,-0.011C0.152,-0.008 0.16,-0.005 0.168,-0.003C0.176,-0.001 0.182,-0 0.187,-0C0.194,-0 0.199,-0.002 0.202,-0.007C0.205,-0.011 0.206,-0.016 0.206,-0.021L0.206,-0.184C0.206,-0.201 0.206,-0.215 0.207,-0.228C0.207,-0.241 0.207,-0.252 0.208,-0.263C0.217,-0.263 0.225,-0.262 0.232,-0.26C0.239,-0.257 0.245,-0.252 0.252,-0.245L0.36,-0.128C0.383,-0.103 0.402,-0.082 0.415,-0.066C0.428,-0.05 0.439,-0.036 0.448,-0.025C0.453,-0.018 0.458,-0.014 0.463,-0.013C0.467,-0.011 0.472,-0.01 0.477,-0.01L0.493,-0.01C0.496,-0.01 0.5,-0.011 0.503,-0.014C0.506,-0.017 0.51,-0.021 0.516,-0.027C0.521,-0.032 0.525,-0.037 0.527,-0.041C0.528,-0.044 0.529,-0.048 0.529,-0.053C0.529,-0.056 0.523,-0.063 0.51,-0.074C0.497,-0.085 0.481,-0.101 0.46,-0.12C0.439,-0.139 0.416,-0.163 0.39,-0.19C0.363,-0.217 0.336,-0.247 0.308,-0.282C0.304,-0.287 0.299,-0.291 0.294,-0.293C0.289,-0.295 0.282,-0.297 0.275,-0.298L0.275,-0.3L0.346,-0.332C0.355,-0.336 0.364,-0.342 0.373,-0.35C0.382,-0.358 0.391,-0.368 0.399,-0.381C0.407,-0.393 0.413,-0.408 0.419,-0.425C0.424,-0.442 0.426,-0.461 0.426,-0.482C0.426,-0.52 0.416,-0.552 0.396,-0.578C0.375,-0.604 0.344,-0.617 0.303,-0.617Z" style="fill:white;fill-rule:nonzero;"/>
                </g>
                <g transform="matrix(106.042,0,0,106.042,733.874,740.979)">
                    <path d="M0.002,-0.543C0.002,-0.538 0.005,-0.532 0.011,-0.525C0.016,-0.518 0.025,-0.509 0.038,-0.498C0.051,-0.486 0.067,-0.47 0.088,-0.451C0.109,-0.432 0.134,-0.407 0.164,-0.376C0.194,-0.345 0.229,-0.306 0.27,-0.261C0.31,-0.216 0.356,-0.161 0.408,-0.097C0.418,-0.084 0.426,-0.074 0.433,-0.066C0.439,-0.058 0.444,-0.051 0.447,-0.047C0.45,-0.042 0.453,-0.038 0.454,-0.035C0.455,-0.032 0.456,-0.028 0.456,-0.025C0.456,-0.022 0.457,-0.02 0.46,-0.017C0.463,-0.014 0.466,-0.011 0.47,-0.009C0.474,-0.006 0.478,-0.004 0.482,-0.003C0.486,-0.001 0.489,-0 0.492,-0C0.497,-0 0.505,-0.007 0.518,-0.02C0.531,-0.033 0.546,-0.051 0.564,-0.073C0.581,-0.094 0.6,-0.119 0.621,-0.148C0.642,-0.176 0.663,-0.205 0.684,-0.236C0.705,-0.266 0.725,-0.296 0.745,-0.326C0.764,-0.355 0.782,-0.382 0.797,-0.407C0.812,-0.432 0.825,-0.453 0.834,-0.47C0.842,-0.487 0.847,-0.499 0.847,-0.504C0.847,-0.508 0.844,-0.513 0.838,-0.518C0.831,-0.523 0.824,-0.527 0.815,-0.532C0.806,-0.536 0.798,-0.54 0.789,-0.543C0.78,-0.546 0.774,-0.547 0.769,-0.547C0.764,-0.547 0.76,-0.546 0.757,-0.543C0.753,-0.54 0.751,-0.532 0.75,-0.521C0.747,-0.496 0.741,-0.47 0.731,-0.442C0.72,-0.413 0.708,-0.385 0.693,-0.356C0.678,-0.327 0.662,-0.298 0.645,-0.27C0.627,-0.242 0.609,-0.216 0.592,-0.193C0.574,-0.17 0.557,-0.149 0.542,-0.132C0.526,-0.114 0.513,-0.101 0.502,-0.093C0.491,-0.109 0.473,-0.131 0.449,-0.158C0.425,-0.185 0.398,-0.214 0.369,-0.247C0.339,-0.28 0.308,-0.313 0.277,-0.348C0.246,-0.383 0.217,-0.416 0.191,-0.447C0.165,-0.478 0.144,-0.505 0.127,-0.529C0.11,-0.553 0.102,-0.57 0.102,-0.581C0.102,-0.595 0.096,-0.602 0.085,-0.602C0.082,-0.602 0.076,-0.6 0.067,-0.596C0.057,-0.592 0.048,-0.587 0.039,-0.581C0.029,-0.575 0.02,-0.569 0.013,-0.562C0.006,-0.555 0.002,-0.548 0.002,-0.543Z" style="fill:white;fill-rule:nonzero;"/>
                </g>
                <g transform="matrix(106.042,0,0,106.042,826.343,740.979)">
                    <path d="M0.134,-0.309C0.134,-0.256 0.134,-0.212 0.135,-0.175C0.135,-0.138 0.135,-0.107 0.136,-0.083C0.137,-0.058 0.138,-0.039 0.14,-0.026C0.141,-0.012 0.143,-0.002 0.146,0.005C0.149,0.012 0.152,0.016 0.156,0.018C0.159,0.019 0.163,0.02 0.168,0.02C0.179,0.02 0.188,0.014 0.193,0.001C0.198,-0.012 0.2,-0.039 0.2,-0.079C0.2,-0.199 0.201,-0.294 0.203,-0.363C0.204,-0.432 0.206,-0.481 0.209,-0.51C0.21,-0.521 0.212,-0.531 0.215,-0.54C0.218,-0.548 0.219,-0.556 0.219,-0.564C0.219,-0.568 0.214,-0.573 0.205,-0.579C0.196,-0.584 0.187,-0.587 0.18,-0.587C0.175,-0.587 0.169,-0.584 0.161,-0.58C0.152,-0.575 0.144,-0.569 0.136,-0.562C0.128,-0.555 0.121,-0.548 0.115,-0.541C0.109,-0.534 0.106,-0.528 0.106,-0.524C0.106,-0.519 0.107,-0.513 0.11,-0.508C0.112,-0.502 0.116,-0.495 0.123,-0.488C0.127,-0.483 0.129,-0.478 0.13,-0.472C0.131,-0.465 0.131,-0.457 0.131,-0.448C0.131,-0.431 0.132,-0.412 0.133,-0.392C0.134,-0.372 0.134,-0.344 0.134,-0.309Z" style="fill:white;fill-rule:nonzero;"/>
                </g>
                <g transform="matrix(106.042,0,0,106.042,863.776,740.979)">
                    <path d="M0.364,-0.32L0.229,-0.32C0.219,-0.32 0.21,-0.319 0.203,-0.316C0.196,-0.313 0.189,-0.309 0.184,-0.304C0.187,-0.354 0.192,-0.395 0.201,-0.427C0.21,-0.459 0.22,-0.484 0.233,-0.503C0.245,-0.521 0.259,-0.533 0.274,-0.54C0.289,-0.547 0.304,-0.55 0.32,-0.55L0.379,-0.55C0.392,-0.55 0.398,-0.557 0.398,-0.572C0.398,-0.583 0.393,-0.591 0.383,-0.596C0.373,-0.6 0.354,-0.602 0.326,-0.602C0.298,-0.602 0.271,-0.596 0.245,-0.585C0.218,-0.573 0.195,-0.553 0.175,-0.526C0.155,-0.498 0.139,-0.462 0.127,-0.417C0.114,-0.372 0.108,-0.316 0.108,-0.249C0.108,-0.23 0.109,-0.211 0.11,-0.19C0.111,-0.169 0.115,-0.149 0.12,-0.129C0.125,-0.108 0.133,-0.089 0.144,-0.071C0.154,-0.052 0.168,-0.036 0.186,-0.022C0.204,-0.008 0.226,0.003 0.253,0.012C0.28,0.02 0.312,0.024 0.35,0.024C0.375,0.024 0.393,0.021 0.403,0.016C0.413,0.011 0.418,0.005 0.418,-0C0.418,-0.009 0.416,-0.014 0.411,-0.017C0.406,-0.02 0.396,-0.021 0.381,-0.021C0.312,-0.021 0.262,-0.041 0.231,-0.082C0.2,-0.122 0.184,-0.182 0.184,-0.262C0.204,-0.263 0.227,-0.263 0.253,-0.264C0.278,-0.264 0.306,-0.265 0.336,-0.268C0.339,-0.268 0.343,-0.27 0.349,-0.273C0.354,-0.276 0.359,-0.28 0.364,-0.285C0.369,-0.29 0.374,-0.294 0.378,-0.299C0.381,-0.303 0.383,-0.306 0.383,-0.308C0.383,-0.316 0.377,-0.32 0.364,-0.32Z" style="fill:white;fill-rule:nonzero;"/>
                </g>
                <g transform="matrix(106.042,0,0,106.042,916.903,740.979)">
                    <path d="M0.015,-0.55C0.015,-0.541 0.019,-0.532 0.028,-0.521C0.037,-0.509 0.047,-0.492 0.058,-0.468C0.096,-0.388 0.127,-0.321 0.15,-0.267C0.172,-0.213 0.19,-0.169 0.203,-0.135C0.215,-0.101 0.223,-0.075 0.227,-0.058C0.231,-0.04 0.233,-0.027 0.233,-0.019C0.233,-0.008 0.235,-0.001 0.238,0.003C0.241,0.006 0.245,0.007 0.252,0.007C0.256,0.007 0.261,0.006 0.268,0.005C0.275,0.004 0.281,0.002 0.288,-0.001C0.294,-0.003 0.299,-0.006 0.304,-0.009C0.309,-0.012 0.311,-0.015 0.312,-0.018C0.313,-0.025 0.316,-0.035 0.323,-0.048C0.329,-0.061 0.337,-0.075 0.347,-0.091C0.357,-0.107 0.368,-0.124 0.381,-0.142C0.393,-0.16 0.405,-0.178 0.419,-0.196C0.432,-0.213 0.444,-0.23 0.457,-0.246C0.47,-0.262 0.481,-0.276 0.491,-0.288C0.502,-0.277 0.514,-0.261 0.526,-0.238C0.538,-0.215 0.55,-0.19 0.561,-0.163C0.572,-0.136 0.581,-0.11 0.59,-0.085C0.598,-0.06 0.604,-0.039 0.608,-0.024C0.609,-0.019 0.612,-0.014 0.617,-0.011C0.622,-0.008 0.627,-0.005 0.633,-0.004C0.638,-0.002 0.644,-0.001 0.65,-0.001C0.655,-0 0.66,-0 0.663,-0C0.672,-0 0.677,-0.008 0.679,-0.023C0.68,-0.031 0.686,-0.046 0.696,-0.069C0.705,-0.092 0.717,-0.119 0.733,-0.15C0.748,-0.181 0.765,-0.215 0.785,-0.252C0.804,-0.288 0.825,-0.324 0.846,-0.36C0.863,-0.389 0.877,-0.413 0.889,-0.432C0.9,-0.45 0.91,-0.464 0.918,-0.476C0.925,-0.487 0.931,-0.495 0.934,-0.501C0.937,-0.507 0.939,-0.512 0.939,-0.517C0.939,-0.52 0.936,-0.523 0.931,-0.528C0.926,-0.533 0.92,-0.537 0.913,-0.542C0.906,-0.547 0.899,-0.551 0.892,-0.554C0.885,-0.557 0.879,-0.559 0.876,-0.559C0.87,-0.559 0.865,-0.557 0.862,-0.553C0.859,-0.549 0.857,-0.541 0.857,-0.529C0.857,-0.523 0.853,-0.511 0.845,-0.492C0.836,-0.472 0.826,-0.45 0.813,-0.424C0.8,-0.398 0.786,-0.37 0.771,-0.34C0.755,-0.31 0.74,-0.281 0.725,-0.252C0.71,-0.223 0.697,-0.197 0.685,-0.173C0.672,-0.148 0.663,-0.129 0.657,-0.114C0.613,-0.199 0.582,-0.266 0.564,-0.316C0.546,-0.365 0.537,-0.396 0.537,-0.407C0.537,-0.409 0.536,-0.411 0.533,-0.414C0.53,-0.416 0.526,-0.418 0.522,-0.419C0.518,-0.42 0.514,-0.422 0.51,-0.423C0.505,-0.424 0.502,-0.424 0.5,-0.424C0.495,-0.424 0.491,-0.422 0.488,-0.419C0.485,-0.416 0.48,-0.408 0.475,-0.395C0.471,-0.384 0.464,-0.371 0.455,-0.355C0.446,-0.338 0.435,-0.321 0.424,-0.302C0.412,-0.283 0.399,-0.263 0.386,-0.243C0.373,-0.223 0.36,-0.204 0.348,-0.186C0.336,-0.168 0.325,-0.152 0.316,-0.138C0.306,-0.123 0.299,-0.112 0.294,-0.104C0.287,-0.117 0.277,-0.137 0.265,-0.164C0.253,-0.19 0.24,-0.219 0.227,-0.252C0.213,-0.284 0.199,-0.317 0.185,-0.352C0.171,-0.387 0.158,-0.42 0.147,-0.451C0.136,-0.482 0.127,-0.51 0.12,-0.534C0.113,-0.558 0.109,-0.575 0.109,-0.585C0.109,-0.596 0.103,-0.602 0.091,-0.602C0.087,-0.602 0.081,-0.6 0.073,-0.596C0.064,-0.592 0.056,-0.587 0.047,-0.582C0.038,-0.576 0.031,-0.57 0.025,-0.565C0.018,-0.559 0.015,-0.554 0.015,-0.55Z" style="fill:white;fill-rule:nonzero;"/>
                </g>
                <g transform="matrix(106.042,0,0,106.042,1050.73,740.979)">
                    <path d="M0.212,-0.246L0.212,-0.529C0.22,-0.534 0.231,-0.539 0.244,-0.544C0.257,-0.548 0.27,-0.55 0.281,-0.55C0.29,-0.55 0.305,-0.546 0.324,-0.539C0.343,-0.532 0.363,-0.52 0.383,-0.503C0.402,-0.486 0.419,-0.463 0.434,-0.435C0.449,-0.407 0.456,-0.372 0.456,-0.33C0.456,-0.273 0.451,-0.226 0.441,-0.189C0.43,-0.152 0.416,-0.123 0.397,-0.102C0.378,-0.081 0.356,-0.066 0.331,-0.058C0.305,-0.05 0.276,-0.046 0.245,-0.046C0.233,-0.046 0.224,-0.049 0.219,-0.056C0.214,-0.063 0.211,-0.079 0.211,-0.104C0.211,-0.125 0.211,-0.147 0.212,-0.172C0.212,-0.196 0.212,-0.221 0.212,-0.246ZM0.237,0.011C0.241,0.011 0.248,0.01 0.259,0.008C0.27,0.005 0.282,0.002 0.297,-0.002C0.311,-0.006 0.326,-0.011 0.343,-0.017C0.36,-0.023 0.376,-0.03 0.392,-0.037C0.407,-0.044 0.422,-0.053 0.435,-0.062C0.448,-0.07 0.458,-0.08 0.465,-0.09C0.477,-0.107 0.487,-0.124 0.495,-0.141C0.503,-0.158 0.509,-0.176 0.515,-0.197C0.52,-0.218 0.523,-0.241 0.525,-0.268C0.527,-0.294 0.528,-0.324 0.528,-0.359C0.528,-0.397 0.522,-0.43 0.509,-0.457C0.496,-0.484 0.481,-0.506 0.462,-0.524C0.443,-0.542 0.422,-0.556 0.399,-0.567C0.376,-0.577 0.355,-0.585 0.336,-0.59C0.316,-0.595 0.299,-0.599 0.285,-0.6C0.271,-0.601 0.263,-0.602 0.261,-0.602C0.256,-0.602 0.249,-0.601 0.241,-0.6C0.232,-0.598 0.22,-0.595 0.205,-0.591L0.135,-0.571C0.118,-0.566 0.107,-0.561 0.102,-0.558C0.096,-0.554 0.094,-0.547 0.094,-0.538C0.094,-0.531 0.096,-0.526 0.1,-0.525C0.103,-0.523 0.107,-0.522 0.112,-0.521C0.116,-0.52 0.12,-0.52 0.125,-0.519C0.129,-0.518 0.132,-0.514 0.133,-0.508C0.135,-0.499 0.137,-0.487 0.139,-0.473C0.141,-0.458 0.143,-0.443 0.145,-0.426C0.146,-0.409 0.148,-0.393 0.149,-0.376C0.15,-0.359 0.15,-0.343 0.15,-0.328C0.15,-0.292 0.149,-0.253 0.148,-0.211C0.147,-0.169 0.145,-0.128 0.143,-0.088C0.142,-0.075 0.14,-0.064 0.137,-0.057C0.134,-0.05 0.13,-0.044 0.127,-0.04C0.123,-0.036 0.119,-0.033 0.117,-0.03C0.114,-0.027 0.112,-0.022 0.112,-0.017C0.112,-0.012 0.115,-0.008 0.12,-0.006C0.125,-0.003 0.133,-0.001 0.144,-0L0.2,0.007C0.205,0.008 0.211,0.009 0.218,0.01C0.224,0.011 0.23,0.011 0.237,0.011Z" style="fill:white;fill-rule:nonzero;"/>
                </g>
                <g transform="matrix(106.042,0,0,106.042,1121.56,740.979)">
                    <path d="M0.364,-0.32L0.229,-0.32C0.219,-0.32 0.21,-0.319 0.203,-0.316C0.196,-0.313 0.189,-0.309 0.184,-0.304C0.187,-0.354 0.192,-0.395 0.201,-0.427C0.21,-0.459 0.22,-0.484 0.233,-0.503C0.245,-0.521 0.259,-0.533 0.274,-0.54C0.289,-0.547 0.304,-0.55 0.32,-0.55L0.379,-0.55C0.392,-0.55 0.398,-0.557 0.398,-0.572C0.398,-0.583 0.393,-0.591 0.383,-0.596C0.373,-0.6 0.354,-0.602 0.326,-0.602C0.298,-0.602 0.271,-0.596 0.245,-0.585C0.218,-0.573 0.195,-0.553 0.175,-0.526C0.155,-0.498 0.139,-0.462 0.127,-0.417C0.114,-0.372 0.108,-0.316 0.108,-0.249C0.108,-0.23 0.109,-0.211 0.11,-0.19C0.111,-0.169 0.115,-0.149 0.12,-0.129C0.125,-0.108 0.133,-0.089 0.144,-0.071C0.154,-0.052 0.168,-0.036 0.186,-0.022C0.204,-0.008 0.226,0.003 0.253,0.012C0.28,0.02 0.312,0.024 0.35,0.024C0.375,0.024 0.393,0.021 0.403,0.016C0.413,0.011 0.418,0.005 0.418,-0C0.418,-0.009 0.416,-0.014 0.411,-0.017C0.406,-0.02 0.396,-0.021 0.381,-0.021C0.312,-0.021 0.262,-0.041 0.231,-0.082C0.2,-0.122 0.184,-0.182 0.184,-0.262C0.204,-0.263 0.227,-0.263 0.253,-0.264C0.278,-0.264 0.306,-0.265 0.336,-0.268C0.339,-0.268 0.343,-0.27 0.349,-0.273C0.354,-0.276 0.359,-0.28 0.364,-0.285C0.369,-0.29 0.374,-0.294 0.378,-0.299C0.381,-0.303 0.383,-0.306 0.383,-0.308C0.383,-0.316 0.377,-0.32 0.364,-0.32Z" style="fill:white;fill-rule:nonzero;"/>
                </g>
                <g transform="matrix(106.042,0,0,106.042,1174.69,740.979)">
                    <path d="M0.182,-0.307C0.182,-0.262 0.179,-0.224 0.174,-0.191C0.168,-0.158 0.162,-0.13 0.156,-0.107C0.149,-0.084 0.143,-0.065 0.138,-0.052C0.132,-0.038 0.129,-0.028 0.129,-0.021C0.129,-0.017 0.131,-0.013 0.134,-0.01C0.137,-0.007 0.14,-0.004 0.145,-0.001C0.149,0.002 0.154,0.004 0.159,0.005C0.164,0.006 0.168,0.007 0.171,0.007C0.179,0.007 0.187,0.003 0.194,-0.004C0.201,-0.011 0.207,-0.023 0.21,-0.038C0.215,-0.062 0.219,-0.089 0.222,-0.119C0.225,-0.149 0.227,-0.179 0.229,-0.209C0.231,-0.238 0.233,-0.266 0.235,-0.291C0.236,-0.316 0.238,-0.336 0.24,-0.351C0.252,-0.34 0.264,-0.329 0.276,-0.319C0.288,-0.308 0.302,-0.297 0.317,-0.286C0.332,-0.275 0.349,-0.262 0.369,-0.249C0.389,-0.236 0.413,-0.22 0.442,-0.203C0.471,-0.185 0.505,-0.165 0.544,-0.142C0.583,-0.119 0.63,-0.092 0.683,-0.061C0.693,-0.055 0.701,-0.048 0.707,-0.039C0.712,-0.03 0.717,-0.022 0.721,-0.015C0.725,-0.007 0.729,-0 0.732,0.006C0.735,0.011 0.738,0.014 0.742,0.014C0.747,0.014 0.753,0.013 0.76,0.011C0.767,0.009 0.775,0.006 0.782,0.002C0.789,-0.003 0.795,-0.008 0.8,-0.015C0.805,-0.022 0.808,-0.029 0.808,-0.038C0.808,-0.047 0.808,-0.057 0.807,-0.067C0.806,-0.077 0.804,-0.089 0.803,-0.102C0.801,-0.115 0.8,-0.129 0.799,-0.147C0.798,-0.164 0.797,-0.183 0.797,-0.206C0.797,-0.281 0.798,-0.34 0.8,-0.384C0.801,-0.427 0.803,-0.461 0.806,-0.485C0.808,-0.508 0.81,-0.525 0.812,-0.534C0.813,-0.543 0.814,-0.551 0.814,-0.556C0.814,-0.565 0.81,-0.57 0.803,-0.573C0.796,-0.575 0.788,-0.576 0.781,-0.576C0.775,-0.576 0.768,-0.575 0.76,-0.574C0.751,-0.573 0.743,-0.571 0.736,-0.569C0.728,-0.566 0.721,-0.563 0.716,-0.559C0.711,-0.555 0.708,-0.55 0.708,-0.544C0.708,-0.539 0.709,-0.534 0.713,-0.53C0.716,-0.526 0.719,-0.521 0.723,-0.516C0.726,-0.511 0.73,-0.504 0.733,-0.496C0.736,-0.488 0.738,-0.477 0.739,-0.464C0.74,-0.426 0.742,-0.389 0.743,-0.352C0.744,-0.315 0.745,-0.275 0.745,-0.231C0.745,-0.219 0.745,-0.208 0.745,-0.198C0.744,-0.187 0.744,-0.177 0.743,-0.167C0.742,-0.157 0.741,-0.146 0.741,-0.135C0.74,-0.124 0.738,-0.111 0.737,-0.096C0.686,-0.123 0.638,-0.149 0.595,-0.176C0.551,-0.202 0.508,-0.231 0.465,-0.262C0.422,-0.293 0.379,-0.328 0.335,-0.367C0.29,-0.406 0.242,-0.451 0.189,-0.502C0.17,-0.521 0.154,-0.535 0.143,-0.546C0.132,-0.556 0.123,-0.564 0.117,-0.569C0.11,-0.574 0.106,-0.577 0.104,-0.578C0.101,-0.579 0.099,-0.579 0.097,-0.579C0.084,-0.579 0.074,-0.575 0.065,-0.568C0.056,-0.561 0.052,-0.554 0.052,-0.548C0.052,-0.545 0.053,-0.541 0.055,-0.538C0.056,-0.534 0.06,-0.529 0.065,-0.522C0.07,-0.515 0.078,-0.505 0.088,-0.495C0.098,-0.484 0.111,-0.469 0.128,-0.451C0.147,-0.43 0.161,-0.409 0.17,-0.388C0.178,-0.366 0.182,-0.339 0.182,-0.307Z" style="fill:white;fill-rule:nonzero;"/>
                </g>
                <g transform="matrix(106.042,0,0,106.042,1275.01,740.979)">
                    <path d="M0.079,-0.501L0.193,-0.501C0.196,-0.471 0.198,-0.442 0.199,-0.413C0.2,-0.384 0.2,-0.355 0.2,-0.325C0.2,-0.29 0.199,-0.259 0.198,-0.234C0.196,-0.209 0.194,-0.187 0.193,-0.17C0.191,-0.153 0.189,-0.139 0.188,-0.128C0.186,-0.117 0.185,-0.109 0.185,-0.102C0.185,-0.09 0.188,-0.077 0.194,-0.064C0.2,-0.05 0.209,-0.037 0.22,-0.026C0.231,-0.014 0.245,-0.004 0.261,0.003C0.276,0.01 0.294,0.014 0.314,0.014C0.324,0.014 0.335,0.012 0.349,0.007C0.362,0.002 0.372,-0.003 0.379,-0.008C0.385,-0.013 0.388,-0.021 0.388,-0.031C0.388,-0.035 0.388,-0.04 0.387,-0.045C0.386,-0.05 0.383,-0.052 0.378,-0.052C0.375,-0.052 0.37,-0.052 0.363,-0.051C0.356,-0.05 0.35,-0.049 0.345,-0.049C0.328,-0.049 0.313,-0.052 0.302,-0.057C0.291,-0.062 0.282,-0.069 0.276,-0.078C0.269,-0.086 0.265,-0.095 0.262,-0.106C0.259,-0.116 0.258,-0.126 0.258,-0.137C0.258,-0.184 0.259,-0.227 0.26,-0.264C0.261,-0.301 0.262,-0.334 0.264,-0.363C0.265,-0.392 0.267,-0.419 0.27,-0.442C0.272,-0.464 0.275,-0.486 0.278,-0.505L0.31,-0.505C0.323,-0.505 0.336,-0.505 0.349,-0.506C0.362,-0.507 0.376,-0.507 0.389,-0.508C0.402,-0.509 0.413,-0.51 0.423,-0.511C0.428,-0.512 0.433,-0.514 0.438,-0.517C0.443,-0.52 0.448,-0.524 0.453,-0.529C0.457,-0.534 0.46,-0.538 0.464,-0.543C0.467,-0.547 0.468,-0.55 0.468,-0.553C0.468,-0.562 0.463,-0.567 0.453,-0.567C0.416,-0.567 0.38,-0.566 0.343,-0.563C0.306,-0.56 0.27,-0.559 0.233,-0.559C0.205,-0.559 0.181,-0.56 0.161,-0.561C0.141,-0.562 0.124,-0.563 0.11,-0.564C0.095,-0.565 0.083,-0.565 0.073,-0.566C0.063,-0.567 0.054,-0.567 0.047,-0.567C0.041,-0.567 0.034,-0.563 0.028,-0.556C0.021,-0.549 0.017,-0.542 0.017,-0.537C0.017,-0.528 0.019,-0.52 0.023,-0.512C0.027,-0.503 0.033,-0.499 0.041,-0.499C0.048,-0.499 0.054,-0.499 0.061,-0.5C0.067,-0.501 0.073,-0.501 0.079,-0.501Z" style="fill:white;fill-rule:nonzero;"/>
                </g>
                <g transform="matrix(106.042,0,0,106.042,1330.15,740.979)">
                    <path d="M0.432,-0.257L0.251,-0.257C0.24,-0.257 0.234,-0.259 0.234,-0.264C0.234,-0.267 0.236,-0.272 0.239,-0.279C0.242,-0.285 0.248,-0.296 0.255,-0.311L0.307,-0.417C0.309,-0.421 0.311,-0.425 0.312,-0.43C0.313,-0.435 0.315,-0.439 0.317,-0.444C0.318,-0.449 0.32,-0.452 0.322,-0.456C0.323,-0.459 0.325,-0.46 0.327,-0.46C0.332,-0.46 0.335,-0.456 0.338,-0.448C0.34,-0.439 0.345,-0.427 0.353,-0.412L0.432,-0.257ZM0.275,-0.211C0.285,-0.211 0.299,-0.211 0.317,-0.211C0.335,-0.21 0.353,-0.209 0.372,-0.208C0.391,-0.207 0.408,-0.205 0.424,-0.203C0.44,-0.2 0.451,-0.197 0.458,-0.194C0.461,-0.193 0.466,-0.186 0.473,-0.175C0.48,-0.163 0.487,-0.15 0.494,-0.135C0.501,-0.12 0.508,-0.106 0.515,-0.092C0.521,-0.077 0.525,-0.067 0.527,-0.061C0.53,-0.052 0.533,-0.045 0.537,-0.038C0.541,-0.031 0.546,-0.026 0.552,-0.025C0.555,-0.024 0.561,-0.022 0.568,-0.021C0.575,-0.02 0.582,-0.018 0.59,-0.017C0.598,-0.016 0.606,-0.015 0.613,-0.014C0.62,-0.013 0.626,-0.013 0.63,-0.013C0.635,-0.013 0.641,-0.014 0.646,-0.017C0.651,-0.019 0.653,-0.024 0.653,-0.031C0.653,-0.033 0.651,-0.036 0.647,-0.041C0.642,-0.046 0.635,-0.055 0.625,-0.068C0.615,-0.081 0.602,-0.099 0.586,-0.124C0.569,-0.149 0.549,-0.182 0.525,-0.224C0.487,-0.291 0.455,-0.351 0.43,-0.406C0.405,-0.461 0.381,-0.512 0.358,-0.56C0.353,-0.571 0.346,-0.581 0.338,-0.59C0.329,-0.598 0.323,-0.602 0.319,-0.602C0.316,-0.602 0.311,-0.601 0.305,-0.599C0.299,-0.596 0.293,-0.593 0.287,-0.59C0.281,-0.586 0.276,-0.582 0.272,-0.578C0.267,-0.574 0.265,-0.57 0.265,-0.567C0.265,-0.565 0.266,-0.562 0.267,-0.559L0.276,-0.534C0.277,-0.53 0.278,-0.527 0.278,-0.525C0.278,-0.51 0.273,-0.489 0.264,-0.463C0.255,-0.437 0.243,-0.409 0.229,-0.379C0.214,-0.348 0.199,-0.317 0.182,-0.286C0.165,-0.254 0.149,-0.225 0.134,-0.198C0.119,-0.171 0.107,-0.148 0.097,-0.129C0.086,-0.11 0.08,-0.098 0.079,-0.093C0.072,-0.075 0.064,-0.063 0.054,-0.056C0.043,-0.048 0.033,-0.044 0.023,-0.041C0.018,-0.04 0.015,-0.038 0.014,-0.035C0.012,-0.032 0.011,-0.025 0.011,-0.016C0.011,-0.013 0.012,-0.009 0.014,-0.006C0.015,-0.002 0.018,-0 0.021,-0C0.022,-0 0.026,-0 0.033,-0.001C0.04,-0.001 0.047,-0.001 0.056,-0.002C0.065,-0.003 0.074,-0.004 0.083,-0.005C0.092,-0.006 0.099,-0.006 0.106,-0.007C0.111,-0.008 0.115,-0.01 0.118,-0.014C0.121,-0.017 0.123,-0.025 0.125,-0.036C0.126,-0.042 0.13,-0.051 0.136,-0.063C0.141,-0.074 0.148,-0.087 0.155,-0.101C0.162,-0.115 0.169,-0.129 0.176,-0.143C0.183,-0.157 0.188,-0.169 0.191,-0.179C0.194,-0.187 0.197,-0.193 0.2,-0.198C0.203,-0.202 0.208,-0.205 0.214,-0.207C0.219,-0.209 0.227,-0.21 0.237,-0.211C0.246,-0.211 0.259,-0.211 0.275,-0.211Z" style="fill:white;fill-rule:nonzero;"/>
                </g>
                <g transform="matrix(106.042,0,0,106.042,1403,740.979)">
                    <path d="M0.416,-0.067L0.235,-0.06C0.23,-0.06 0.226,-0.059 0.223,-0.058C0.219,-0.057 0.215,-0.056 0.212,-0.056C0.204,-0.056 0.2,-0.059 0.2,-0.064C0.2,-0.07 0.201,-0.08 0.202,-0.094C0.203,-0.108 0.205,-0.124 0.206,-0.143C0.207,-0.162 0.209,-0.182 0.21,-0.204C0.211,-0.225 0.212,-0.246 0.212,-0.267C0.212,-0.289 0.212,-0.308 0.211,-0.325C0.21,-0.341 0.21,-0.358 0.21,-0.377C0.21,-0.405 0.211,-0.434 0.213,-0.463C0.215,-0.492 0.216,-0.522 0.216,-0.552C0.216,-0.561 0.217,-0.57 0.22,-0.579C0.223,-0.588 0.224,-0.595 0.224,-0.601C0.224,-0.608 0.22,-0.614 0.211,-0.619C0.202,-0.623 0.195,-0.625 0.189,-0.625C0.186,-0.625 0.18,-0.623 0.172,-0.618C0.163,-0.613 0.155,-0.608 0.147,-0.602C0.138,-0.595 0.131,-0.589 0.125,-0.582C0.118,-0.575 0.115,-0.57 0.115,-0.567C0.115,-0.563 0.117,-0.558 0.12,-0.552C0.123,-0.545 0.127,-0.534 0.131,-0.518C0.134,-0.501 0.138,-0.478 0.141,-0.45C0.144,-0.421 0.146,-0.382 0.146,-0.333L0.146,-0.192C0.146,-0.171 0.146,-0.153 0.146,-0.138C0.145,-0.123 0.145,-0.11 0.144,-0.099C0.144,-0.086 0.141,-0.077 0.134,-0.07C0.127,-0.063 0.124,-0.056 0.124,-0.051C0.124,-0.049 0.125,-0.045 0.128,-0.04C0.13,-0.034 0.133,-0.028 0.137,-0.023C0.141,-0.017 0.145,-0.012 0.15,-0.007C0.154,-0.002 0.158,-0 0.162,-0C0.174,-0 0.184,-0.002 0.193,-0.007C0.196,-0.008 0.199,-0.01 0.203,-0.011C0.206,-0.012 0.212,-0.012 0.22,-0.013C0.228,-0.013 0.239,-0.013 0.253,-0.014C0.266,-0.014 0.284,-0.014 0.307,-0.014C0.328,-0.014 0.346,-0.014 0.36,-0.014C0.373,-0.013 0.384,-0.013 0.392,-0.013C0.4,-0.012 0.406,-0.012 0.409,-0.012C0.412,-0.011 0.415,-0.011 0.416,-0.01C0.426,-0.007 0.434,-0.004 0.439,-0.003C0.444,-0.001 0.449,-0 0.455,-0C0.459,-0 0.463,-0.004 0.467,-0.011C0.47,-0.018 0.474,-0.025 0.477,-0.034C0.48,-0.042 0.482,-0.05 0.484,-0.058C0.485,-0.065 0.486,-0.07 0.486,-0.072C0.486,-0.081 0.48,-0.085 0.469,-0.085C0.462,-0.085 0.453,-0.082 0.444,-0.077C0.435,-0.071 0.425,-0.068 0.416,-0.067Z" style="fill:white;fill-rule:nonzero;"/>
                </g>
                <g transform="matrix(81.1864,0,0,81.1864,527.745,949.015)">
                    <rect x="0.064" y="-0.718" width="0.107" height="0.718" style="fill:white;fill-rule:nonzero;"/>
                </g>
                <g transform="matrix(81.1864,0,0,81.1864,542.428,949.015)">
                    <path d="M0.55,-0.517L0.367,-0L0.361,-0L0.167,-0.518L0.167,-0L0.06,-0L0.06,-0.718L0.208,-0.718L0.364,-0.28L0.517,-0.718L0.656,-0.718L0.656,-0L0.55,-0L0.55,-0.517Z" style="fill:white;fill-rule:nonzero;"/>
                </g>
                <g transform="matrix(81.1864,0,0,81.1864,596.161,949.015)">
                    <path d="M0.167,-0.611L0.167,-0.389L0.322,-0.389C0.395,-0.389 0.432,-0.425 0.432,-0.497C0.432,-0.573 0.395,-0.611 0.322,-0.611L0.167,-0.611ZM0.167,-0.283L0.167,-0L0.06,-0L0.06,-0.718L0.313,-0.718C0.346,-0.718 0.376,-0.713 0.404,-0.705C0.431,-0.696 0.455,-0.682 0.475,-0.664C0.495,-0.646 0.51,-0.623 0.522,-0.596C0.533,-0.569 0.538,-0.537 0.538,-0.5C0.538,-0.43 0.518,-0.376 0.477,-0.339C0.436,-0.302 0.381,-0.283 0.313,-0.283L0.167,-0.283Z" style="fill:white;fill-rule:nonzero;"/>
                </g>
                <g transform="matrix(81.1864,0,0,81.1864,637.067,949.015)">
                    <path d="M0.06,-0.718L0.167,-0.718L0.167,-0.106L0.467,-0.106L0.467,-0L0.06,-0L0.06,-0.718Z" style="fill:white;fill-rule:nonzero;"/>
                </g>
                <g transform="matrix(81.1864,0,0,81.1864,672.046,949.015)">
                    <path d="M0.424,-0.138L0.16,-0.138L0.122,-0L0.006,-0L0.218,-0.718L0.367,-0.718L0.578,-0L0.464,-0L0.424,-0.138ZM0.19,-0.244L0.394,-0.244L0.291,-0.609L0.19,-0.244Z" style="fill:white;fill-rule:nonzero;"/>
                </g>
                <g transform="matrix(81.1864,0,0,81.1864,715.062,949.015)">
                    <path d="M0.166,-0.534L0.166,-0L0.06,-0L0.06,-0.718L0.192,-0.718L0.452,-0.206L0.452,-0.718L0.559,-0.718L0.559,-0L0.437,-0L0.166,-0.534Z" style="fill:white;fill-rule:nonzero;"/>
                </g>
                <g transform="matrix(81.1864,0,0,81.1864,760.921,949.015)">
                    <path d="M0.328,-0L0.211,-0L0.211,-0.611L0.022,-0.611L0.022,-0.718L0.515,-0.718L0.515,-0.611L0.328,-0.611L0.328,-0Z" style="fill:white;fill-rule:nonzero;"/>
                </g>
                <g transform="matrix(81.1864,0,0,81.1864,800.121,949.015)">
                    <path d="M0.084,-0.155C0.107,-0.139 0.133,-0.126 0.162,-0.115C0.191,-0.104 0.224,-0.099 0.262,-0.099C0.299,-0.099 0.329,-0.107 0.352,-0.124C0.375,-0.14 0.386,-0.162 0.386,-0.191C0.386,-0.217 0.374,-0.24 0.351,-0.26C0.328,-0.279 0.297,-0.3 0.259,-0.322C0.233,-0.337 0.205,-0.354 0.174,-0.373C0.143,-0.391 0.116,-0.413 0.093,-0.438C0.077,-0.455 0.066,-0.472 0.059,-0.49C0.052,-0.507 0.049,-0.529 0.049,-0.557C0.049,-0.585 0.055,-0.61 0.067,-0.631C0.079,-0.652 0.095,-0.67 0.115,-0.685C0.134,-0.699 0.157,-0.71 0.183,-0.717C0.209,-0.724 0.236,-0.728 0.264,-0.728C0.285,-0.728 0.306,-0.727 0.326,-0.725C0.345,-0.722 0.364,-0.719 0.381,-0.715C0.398,-0.71 0.413,-0.705 0.426,-0.699C0.439,-0.692 0.449,-0.685 0.457,-0.677L0.427,-0.567C0.409,-0.582 0.387,-0.594 0.362,-0.603C0.336,-0.612 0.306,-0.616 0.272,-0.616C0.237,-0.616 0.209,-0.61 0.188,-0.597C0.166,-0.584 0.155,-0.564 0.155,-0.539C0.155,-0.528 0.159,-0.518 0.167,-0.508C0.175,-0.497 0.185,-0.487 0.198,-0.478C0.21,-0.469 0.223,-0.46 0.238,-0.452C0.252,-0.443 0.266,-0.436 0.279,-0.429C0.31,-0.412 0.338,-0.395 0.364,-0.379C0.39,-0.363 0.413,-0.346 0.432,-0.329C0.451,-0.311 0.466,-0.292 0.477,-0.271C0.488,-0.25 0.493,-0.225 0.493,-0.198C0.493,-0.166 0.487,-0.137 0.475,-0.112C0.463,-0.086 0.447,-0.064 0.426,-0.046C0.405,-0.028 0.38,-0.014 0.351,-0.005C0.322,0.005 0.292,0.01 0.259,0.01C0.211,0.01 0.169,0.004 0.134,-0.007C0.098,-0.018 0.067,-0.033 0.042,-0.05L0.084,-0.155Z" style="fill:white;fill-rule:nonzero;"/>
                </g>
                <g transform="matrix(81.1864,0,0,81.1864,867.673,949.015)">
                    <path d="M0.218,-0.323C0.201,-0.312 0.185,-0.297 0.172,-0.279C0.158,-0.261 0.151,-0.239 0.151,-0.214C0.151,-0.178 0.161,-0.151 0.182,-0.134C0.202,-0.116 0.23,-0.107 0.266,-0.107C0.289,-0.107 0.311,-0.112 0.331,-0.123C0.35,-0.133 0.365,-0.146 0.375,-0.161L0.218,-0.323ZM0.452,-0.082C0.441,-0.067 0.428,-0.053 0.413,-0.042C0.397,-0.031 0.38,-0.021 0.363,-0.014C0.345,-0.006 0.327,0 0.309,0.004C0.29,0.008 0.273,0.01 0.258,0.01C0.224,0.01 0.193,0.005 0.165,-0.004C0.137,-0.013 0.113,-0.027 0.093,-0.045C0.072,-0.062 0.056,-0.084 0.046,-0.11C0.035,-0.136 0.029,-0.166 0.029,-0.199C0.029,-0.225 0.033,-0.248 0.04,-0.269C0.047,-0.289 0.057,-0.307 0.069,-0.323C0.08,-0.339 0.094,-0.353 0.109,-0.365C0.124,-0.377 0.139,-0.387 0.155,-0.396C0.123,-0.421 0.1,-0.448 0.087,-0.476C0.074,-0.503 0.067,-0.534 0.067,-0.568C0.067,-0.599 0.074,-0.624 0.087,-0.645C0.099,-0.666 0.116,-0.682 0.137,-0.695C0.157,-0.707 0.179,-0.716 0.203,-0.721C0.227,-0.725 0.25,-0.728 0.272,-0.728C0.393,-0.728 0.455,-0.678 0.459,-0.577L0.342,-0.535C0.339,-0.569 0.331,-0.593 0.319,-0.606C0.306,-0.619 0.288,-0.626 0.264,-0.626C0.215,-0.626 0.19,-0.6 0.19,-0.547C0.19,-0.538 0.192,-0.527 0.197,-0.516C0.202,-0.505 0.213,-0.489 0.23,-0.468C0.247,-0.447 0.273,-0.419 0.306,-0.384C0.338,-0.349 0.384,-0.305 0.441,-0.25C0.46,-0.287 0.472,-0.338 0.477,-0.402L0.595,-0.402C0.595,-0.378 0.593,-0.354 0.589,-0.329C0.584,-0.304 0.579,-0.281 0.572,-0.259C0.565,-0.237 0.558,-0.217 0.55,-0.199C0.542,-0.181 0.535,-0.167 0.528,-0.156L0.674,-0L0.524,-0L0.452,-0.082Z" style="fill:white;fill-rule:nonzero;"/>
                </g>
                <g transform="matrix(81.1864,0,0,81.1864,943.582,949.015)">
                    <path d="M0.338,0.01C0.295,0.01 0.256,0.002 0.221,-0.016C0.186,-0.033 0.155,-0.057 0.13,-0.089C0.105,-0.12 0.085,-0.159 0.071,-0.205C0.057,-0.25 0.05,-0.302 0.05,-0.359C0.05,-0.417 0.057,-0.469 0.071,-0.515C0.085,-0.56 0.105,-0.599 0.13,-0.631C0.155,-0.662 0.186,-0.686 0.221,-0.703C0.256,-0.72 0.295,-0.728 0.338,-0.728C0.381,-0.728 0.42,-0.72 0.455,-0.703C0.49,-0.686 0.521,-0.662 0.546,-0.631C0.571,-0.599 0.591,-0.56 0.605,-0.515C0.619,-0.469 0.626,-0.417 0.626,-0.359C0.626,-0.302 0.619,-0.25 0.605,-0.205C0.591,-0.159 0.571,-0.12 0.546,-0.089C0.521,-0.057 0.49,-0.033 0.455,-0.016C0.42,0.002 0.381,0.01 0.338,0.01ZM0.338,-0.102C0.364,-0.102 0.388,-0.107 0.41,-0.118C0.432,-0.128 0.451,-0.144 0.468,-0.165C0.485,-0.186 0.498,-0.213 0.507,-0.246C0.516,-0.278 0.521,-0.316 0.521,-0.359C0.521,-0.446 0.505,-0.511 0.472,-0.554C0.439,-0.596 0.395,-0.617 0.338,-0.617C0.281,-0.617 0.237,-0.596 0.204,-0.554C0.171,-0.511 0.155,-0.446 0.155,-0.359C0.155,-0.316 0.16,-0.278 0.169,-0.246C0.178,-0.213 0.191,-0.186 0.208,-0.165C0.225,-0.144 0.244,-0.128 0.266,-0.118C0.288,-0.107 0.312,-0.102 0.338,-0.102Z" style="fill:white;fill-rule:nonzero;"/>
                </g>
                <g transform="matrix(81.1864,0,0,81.1864,994.068,949.015)">
                    <path d="M0.167,-0.611L0.167,-0.389L0.322,-0.389C0.395,-0.389 0.432,-0.425 0.432,-0.497C0.432,-0.573 0.395,-0.611 0.322,-0.611L0.167,-0.611ZM0.295,-0.283L0.167,-0.283L0.167,-0L0.06,-0L0.06,-0.718L0.313,-0.718C0.388,-0.718 0.444,-0.699 0.482,-0.661C0.519,-0.622 0.538,-0.569 0.538,-0.5C0.538,-0.448 0.526,-0.405 0.502,-0.372C0.477,-0.339 0.444,-0.315 0.402,-0.302L0.54,-0L0.423,-0L0.295,-0.283Z" style="fill:white;fill-rule:nonzero;"/>
                </g>
                <g transform="matrix(81.1864,0,0,81.1864,1034.81,949.015)">
                    <path d="M0.328,-0L0.211,-0L0.211,-0.611L0.022,-0.611L0.022,-0.718L0.515,-0.718L0.515,-0.611L0.328,-0.611L0.328,-0Z" style="fill:white;fill-rule:nonzero;"/>
                </g>
                <g transform="matrix(81.1864,0,0,81.1864,1074.01,949.015)">
                    <path d="M0.443,-0.315L0.167,-0.315L0.167,-0L0.06,-0L0.06,-0.718L0.167,-0.718L0.167,-0.421L0.443,-0.421L0.443,-0.718L0.55,-0.718L0.55,-0L0.443,-0L0.443,-0.315Z" style="fill:white;fill-rule:nonzero;"/>
                </g>
                <g transform="matrix(81.1864,0,0,81.1864,1119.14,949.015)">
                    <path d="M0.338,0.01C0.295,0.01 0.256,0.002 0.221,-0.016C0.186,-0.033 0.155,-0.057 0.13,-0.089C0.105,-0.12 0.085,-0.159 0.071,-0.205C0.057,-0.25 0.05,-0.302 0.05,-0.359C0.05,-0.417 0.057,-0.469 0.071,-0.515C0.085,-0.56 0.105,-0.599 0.13,-0.631C0.155,-0.662 0.186,-0.686 0.221,-0.703C0.256,-0.72 0.295,-0.728 0.338,-0.728C0.381,-0.728 0.42,-0.72 0.455,-0.703C0.49,-0.686 0.521,-0.662 0.546,-0.631C0.571,-0.599 0.591,-0.56 0.605,-0.515C0.619,-0.469 0.626,-0.417 0.626,-0.359C0.626,-0.302 0.619,-0.25 0.605,-0.205C0.591,-0.159 0.571,-0.12 0.546,-0.089C0.521,-0.057 0.49,-0.033 0.455,-0.016C0.42,0.002 0.381,0.01 0.338,0.01ZM0.338,-0.102C0.364,-0.102 0.388,-0.107 0.41,-0.118C0.432,-0.128 0.451,-0.144 0.468,-0.165C0.485,-0.186 0.498,-0.213 0.507,-0.246C0.516,-0.278 0.521,-0.316 0.521,-0.359C0.521,-0.446 0.505,-0.511 0.472,-0.554C0.439,-0.596 0.395,-0.617 0.338,-0.617C0.281,-0.617 0.237,-0.596 0.204,-0.554C0.171,-0.511 0.155,-0.446 0.155,-0.359C0.155,-0.316 0.16,-0.278 0.169,-0.246C0.178,-0.213 0.191,-0.186 0.208,-0.165C0.225,-0.144 0.244,-0.128 0.266,-0.118C0.288,-0.107 0.312,-0.102 0.338,-0.102Z" style="fill:white;fill-rule:nonzero;"/>
                </g>
                <g transform="matrix(81.1864,0,0,81.1864,1169.63,949.015)">
                    <path d="M0.167,-0.611L0.167,-0.108L0.239,-0.108C0.278,-0.108 0.312,-0.114 0.343,-0.127C0.374,-0.139 0.4,-0.156 0.421,-0.179C0.442,-0.202 0.459,-0.228 0.471,-0.259C0.482,-0.29 0.488,-0.324 0.488,-0.361C0.488,-0.399 0.483,-0.433 0.472,-0.464C0.461,-0.495 0.446,-0.521 0.425,-0.543C0.404,-0.564 0.378,-0.581 0.347,-0.593C0.316,-0.605 0.28,-0.611 0.239,-0.611L0.167,-0.611ZM0.06,-0L0.06,-0.718L0.261,-0.718C0.311,-0.718 0.357,-0.709 0.398,-0.692C0.439,-0.674 0.475,-0.649 0.504,-0.618C0.533,-0.586 0.556,-0.548 0.573,-0.505C0.589,-0.461 0.597,-0.413 0.597,-0.362C0.597,-0.306 0.588,-0.256 0.571,-0.211C0.554,-0.166 0.53,-0.128 0.5,-0.097C0.469,-0.066 0.433,-0.042 0.391,-0.025C0.349,-0.008 0.304,-0 0.255,-0L0.06,-0Z" style="fill:white;fill-rule:nonzero;"/>
                </g>
                <g transform="matrix(81.1864,0,0,81.1864,1217.19,949.015)">
                    <path d="M0.338,0.01C0.295,0.01 0.256,0.002 0.221,-0.016C0.186,-0.033 0.155,-0.057 0.13,-0.089C0.105,-0.12 0.085,-0.159 0.071,-0.205C0.057,-0.25 0.05,-0.302 0.05,-0.359C0.05,-0.417 0.057,-0.469 0.071,-0.515C0.085,-0.56 0.105,-0.599 0.13,-0.631C0.155,-0.662 0.186,-0.686 0.221,-0.703C0.256,-0.72 0.295,-0.728 0.338,-0.728C0.381,-0.728 0.42,-0.72 0.455,-0.703C0.49,-0.686 0.521,-0.662 0.546,-0.631C0.571,-0.599 0.591,-0.56 0.605,-0.515C0.619,-0.469 0.626,-0.417 0.626,-0.359C0.626,-0.302 0.619,-0.25 0.605,-0.205C0.591,-0.159 0.571,-0.12 0.546,-0.089C0.521,-0.057 0.49,-0.033 0.455,-0.016C0.42,0.002 0.381,0.01 0.338,0.01ZM0.338,-0.102C0.364,-0.102 0.388,-0.107 0.41,-0.118C0.432,-0.128 0.451,-0.144 0.468,-0.165C0.485,-0.186 0.498,-0.213 0.507,-0.246C0.516,-0.278 0.521,-0.316 0.521,-0.359C0.521,-0.446 0.505,-0.511 0.472,-0.554C0.439,-0.596 0.395,-0.617 0.338,-0.617C0.281,-0.617 0.237,-0.596 0.204,-0.554C0.171,-0.511 0.155,-0.446 0.155,-0.359C0.155,-0.316 0.16,-0.278 0.169,-0.246C0.178,-0.213 0.191,-0.186 0.208,-0.165C0.225,-0.144 0.244,-0.128 0.266,-0.118C0.288,-0.107 0.312,-0.102 0.338,-0.102Z" style="fill:white;fill-rule:nonzero;"/>
                </g>
                <g transform="matrix(81.1864,0,0,81.1864,1267.67,949.015)">
                    <path d="M0.166,-0.534L0.166,-0L0.06,-0L0.06,-0.718L0.192,-0.718L0.452,-0.206L0.452,-0.718L0.559,-0.718L0.559,-0L0.437,-0L0.166,-0.534Z" style="fill:white;fill-rule:nonzero;"/>
                </g>
                <g transform="matrix(81.1864,0,0,81.1864,1313.53,949.015)">
                    <path d="M0.328,-0L0.211,-0L0.211,-0.611L0.022,-0.611L0.022,-0.718L0.515,-0.718L0.515,-0.611L0.328,-0.611L0.328,-0Z" style="fill:white;fill-rule:nonzero;"/>
                </g>
                <g transform="matrix(81.1864,0,0,81.1864,1352.73,949.015)">
                    <rect x="0.064" y="-0.718" width="0.107" height="0.718" style="fill:white;fill-rule:nonzero;"/>
                </g>
                <g transform="matrix(81.1864,0,0,81.1864,1367.42,949.015)">
                    <path d="M0.49,-0.538C0.473,-0.566 0.453,-0.586 0.431,-0.597C0.408,-0.608 0.378,-0.614 0.34,-0.614C0.312,-0.614 0.287,-0.608 0.265,-0.596C0.242,-0.584 0.223,-0.567 0.208,-0.545C0.192,-0.522 0.18,-0.495 0.172,-0.464C0.163,-0.433 0.159,-0.398 0.159,-0.359C0.159,-0.323 0.164,-0.29 0.173,-0.259C0.182,-0.228 0.194,-0.201 0.211,-0.178C0.228,-0.155 0.247,-0.138 0.27,-0.125C0.292,-0.112 0.317,-0.105 0.344,-0.105C0.379,-0.105 0.407,-0.111 0.429,-0.124C0.45,-0.137 0.469,-0.152 0.485,-0.17L0.573,-0.111C0.52,-0.03 0.443,0.01 0.34,0.01C0.297,0.01 0.258,0.001 0.223,-0.018C0.188,-0.037 0.157,-0.062 0.132,-0.095C0.106,-0.128 0.086,-0.167 0.072,-0.212C0.057,-0.257 0.05,-0.306 0.05,-0.359C0.05,-0.411 0.057,-0.46 0.07,-0.505C0.083,-0.55 0.102,-0.589 0.128,-0.622C0.153,-0.655 0.183,-0.681 0.219,-0.7C0.254,-0.719 0.295,-0.728 0.34,-0.728C0.45,-0.728 0.53,-0.685 0.58,-0.598L0.49,-0.538Z" style="fill:white;fill-rule:nonzero;"/>
                </g>
                <g transform="matrix(81.1864,0,0,81.1864,1413.84,949.015)">
                    <path d="M0.084,-0.155C0.107,-0.139 0.133,-0.126 0.162,-0.115C0.191,-0.104 0.224,-0.099 0.262,-0.099C0.299,-0.099 0.329,-0.107 0.352,-0.124C0.375,-0.14 0.386,-0.162 0.386,-0.191C0.386,-0.217 0.374,-0.24 0.351,-0.26C0.328,-0.279 0.297,-0.3 0.259,-0.322C0.233,-0.337 0.205,-0.354 0.174,-0.373C0.143,-0.391 0.116,-0.413 0.093,-0.438C0.077,-0.455 0.066,-0.472 0.059,-0.49C0.052,-0.507 0.049,-0.529 0.049,-0.557C0.049,-0.585 0.055,-0.61 0.067,-0.631C0.079,-0.652 0.095,-0.67 0.115,-0.685C0.134,-0.699 0.157,-0.71 0.183,-0.717C0.209,-0.724 0.236,-0.728 0.264,-0.728C0.285,-0.728 0.306,-0.727 0.326,-0.725C0.345,-0.722 0.364,-0.719 0.381,-0.715C0.398,-0.71 0.413,-0.705 0.426,-0.699C0.439,-0.692 0.449,-0.685 0.457,-0.677L0.427,-0.567C0.409,-0.582 0.387,-0.594 0.362,-0.603C0.336,-0.612 0.306,-0.616 0.272,-0.616C0.237,-0.616 0.209,-0.61 0.188,-0.597C0.166,-0.584 0.155,-0.564 0.155,-0.539C0.155,-0.528 0.159,-0.518 0.167,-0.508C0.175,-0.497 0.185,-0.487 0.198,-0.478C0.21,-0.469 0.223,-0.46 0.238,-0.452C0.252,-0.443 0.266,-0.436 0.279,-0.429C0.31,-0.412 0.338,-0.395 0.364,-0.379C0.39,-0.363 0.413,-0.346 0.432,-0.329C0.451,-0.311 0.466,-0.292 0.477,-0.271C0.488,-0.25 0.493,-0.225 0.493,-0.198C0.493,-0.166 0.487,-0.137 0.475,-0.112C0.463,-0.086 0.447,-0.064 0.426,-0.046C0.405,-0.028 0.38,-0.014 0.351,-0.005C0.322,0.005 0.292,0.01 0.259,0.01C0.211,0.01 0.169,0.004 0.134,-0.007C0.098,-0.018 0.067,-0.033 0.042,-0.05L0.084,-0.155Z" style="fill:white;fill-rule:nonzero;"/>
                </g>
            </g>
            <g transform="matrix(1,0,0,1,-146.42,-1255.95)">
                <path d="M0,-82.324C0,-54.797 -0.005,-27.267 0.022,0.259C0.022,1.175 -0.127,1.418 -1.106,1.418C-229.426,1.39 -457.743,1.392 -686.062,1.392C-686.524,0.521 -685.775,0.659 -685.369,0.612C-682.813,0.307 -680.272,-0.097 -677.735,-0.511C-665.034,-2.585 -652.667,-5.923 -640.616,-10.433C-634.116,-12.866 -627.744,-15.61 -621.528,-18.692C-615.516,-21.673 -609.665,-24.957 -603.947,-28.486C-597.943,-32.192 -592.119,-36.153 -586.5,-40.406C-580.849,-44.682 -575.141,-48.878 -569.284,-52.861C-563.333,-56.905 -557.201,-60.672 -550.85,-64.077C-541.247,-69.228 -531.228,-73.322 -520.709,-76.178C-514.4,-77.891 -507.959,-78.936 -501.51,-79.942C-494.474,-81.04 -487.415,-81.984 -480.323,-82.616C-473.793,-83.2 -467.254,-83.742 -460.684,-83.553C-454.642,-83.379 -448.645,-82.735 -442.659,-81.923C-433.469,-80.674 -424.464,-78.596 -415.662,-75.696C-407.041,-72.852 -398.764,-69.2 -390.844,-64.727C-384.953,-61.4 -379.351,-57.655 -373.982,-53.555C-369.539,-50.162 -365.384,-46.409 -361.124,-42.791C-355.947,-38.391 -350.474,-34.387 -344.843,-30.593C-339.83,-27.213 -334.629,-24.145 -329.297,-21.303C-319.464,-16.064 -309.205,-11.842 -298.557,-8.545C-288.842,-5.539 -278.948,-3.372 -268.885,-1.97C-263.978,-1.287 -259.047,-0.801 -254.097,-0.485C-250.226,-0.237 -246.351,-0.207 -242.485,-0.016C-236.182,0.294 -229.879,0.225 -223.584,0.107C-217.558,-0.007 -211.527,-0.192 -205.503,-0.667C-196.72,-1.359 -188.001,-2.429 -179.355,-4.107C-171.991,-5.537 -164.73,-7.378 -157.572,-9.634C-150.487,-11.866 -143.523,-14.424 -136.725,-17.41C-129.21,-20.712 -121.887,-24.4 -114.787,-28.527C-108.531,-32.163 -102.393,-35.988 -96.483,-40.166C-90.974,-44.059 -85.59,-48.129 -80.063,-51.997C-75.112,-55.461 -70.061,-58.762 -64.873,-61.864C-58.426,-65.72 -51.719,-69.046 -44.76,-71.851C-35.502,-75.585 -25.943,-78.337 -16.152,-80.287C-11.214,-81.272 -6.252,-82.097 -1.256,-82.726C-0.755,-82.789 -0.314,-82.785 0,-82.324" style="fill:white;fill-rule:nonzero;"/>
            </g>
            <g transform="matrix(1,0,0,1,-1058.78,-1290.19)">
                <path d="M0,-84.344L407.16,-84.344C407.605,-83.616 407.024,-83.624 406.588,-83.576C403.845,-83.282 401.115,-82.888 398.39,-82.459C391.571,-81.383 384.803,-80.07 378.111,-78.365C370.802,-76.505 363.61,-74.281 356.564,-71.587C348.542,-68.52 340.759,-64.946 333.233,-60.793C326.924,-57.311 320.848,-53.469 314.977,-49.3C311.299,-46.688 307.737,-43.924 304.222,-41.095C299.424,-37.238 294.425,-33.658 289.284,-30.274C283.485,-26.458 277.515,-22.926 271.338,-19.761C264.099,-16.051 256.634,-12.848 248.961,-10.124C239.306,-6.698 229.422,-4.152 219.331,-2.418C214.114,-1.522 208.863,-0.873 203.579,-0.489C200.718,-0.281 197.861,0 194.989,-0.073C190.63,-0.184 186.285,-0.55 181.952,-1.003C174.829,-1.749 167.755,-2.847 160.741,-4.293C151.927,-6.113 143.246,-8.406 134.854,-11.709C127.037,-14.785 119.453,-18.341 112.086,-22.387C104.136,-26.754 96.466,-31.573 88.88,-36.528C80.922,-41.724 73.108,-47.145 65.154,-52.348C56.259,-58.166 47.338,-63.942 37.97,-68.989C33.01,-71.661 27.973,-74.182 22.777,-76.357C15.646,-79.341 8.341,-81.823 0.777,-83.493C0.404,-83.575 -0.492,-83.387 0,-84.344" style="fill:white;fill-rule:nonzero;"/>
            </g>
            <g transform="matrix(1,0,0,1,-571.935,-1292.36)">
                <path d="M0,-82.169L401.34,-82.169C401.806,-81.306 401.065,-81.444 400.654,-81.387C398.033,-81.022 395.407,-80.695 392.794,-80.273C382.749,-78.647 372.952,-76.09 363.426,-72.499C354.471,-69.123 345.933,-64.894 337.672,-60.07C332.48,-57.038 327.493,-53.702 322.598,-50.231C319.075,-47.732 315.652,-45.095 312.271,-42.398C307.437,-38.544 302.504,-34.813 297.348,-31.379C289.945,-26.452 282.251,-22.051 274.226,-18.241C267.654,-15.122 260.896,-12.454 253.997,-10.129C244.571,-6.954 234.94,-4.628 225.153,-2.937C219.388,-1.939 213.583,-1.211 207.742,-0.764C202.798,-0.386 197.857,0 192.897,-0.141C188.393,-0.271 183.897,-0.583 179.407,-0.963C172.942,-1.508 166.504,-2.271 160.09,-3.232C152.615,-4.352 145.334,-6.247 138.234,-8.827C130.327,-11.702 122.795,-15.386 115.552,-19.648C110.895,-22.388 106.39,-25.377 101.977,-28.503C97.779,-31.477 93.703,-34.611 89.62,-37.737C84.179,-41.903 78.923,-46.311 73.366,-50.328C68.048,-54.173 62.6,-57.82 56.942,-61.163C49.672,-65.461 42.167,-69.279 34.321,-72.394C25.92,-75.728 17.299,-78.374 8.397,-80.054C5.796,-80.544 3.189,-80.997 0.571,-81.394C0.14,-81.459 -0.442,-81.444 0,-82.169" style="fill:white;fill-rule:nonzero;"/>
            </g>
            <g transform="matrix(1,0,0,1,-1099.74,-1266.89)">
                <path d="M0,-96.453C3.872,-96.554 7.741,-96.813 11.618,-96.688C19.515,-96.43 27.329,-95.521 35.032,-93.724C41.489,-92.218 47.761,-90.162 53.911,-87.69C59.436,-85.468 64.758,-82.842 70.04,-80.107C75.617,-77.221 80.994,-73.999 86.311,-70.68C90.905,-67.81 95.46,-64.876 99.942,-61.831C103.19,-59.623 106.541,-57.569 109.816,-55.4C112.29,-53.761 114.698,-52.022 117.168,-50.375C120.402,-48.221 123.645,-46.075 126.929,-43.994C130.97,-41.433 135.025,-38.892 139.134,-36.442C143.019,-34.124 146.998,-31.968 151.018,-29.886C155.843,-27.389 160.789,-25.162 165.81,-23.11C169.762,-21.491 173.792,-20.062 177.88,-18.804C183.357,-17.116 188.932,-15.812 194.542,-14.68C199.785,-13.621 205.062,-12.749 210.372,-12.057C215.684,-11.365 221.014,-10.864 226.354,-10.583C231.337,-10.321 236.333,-10.136 241.33,-10.316C244.265,-10.422 247.203,-10.536 250.132,-10.762C254.578,-11.105 259.014,-11.556 263.431,-12.185C270.099,-13.137 276.696,-14.463 283.209,-16.156C288.428,-17.51 293.58,-19.111 298.647,-20.963C302.49,-22.369 306.319,-23.818 310.05,-25.501C314.798,-27.64 319.467,-29.938 324.053,-32.418C330.339,-35.819 336.4,-39.578 342.256,-43.657C345.206,-45.711 348.083,-47.881 350.931,-50.086C354.744,-53.038 358.482,-56.087 362.417,-58.887C365.869,-61.345 369.348,-63.754 372.917,-66.025C376.614,-68.377 380.429,-70.541 384.302,-72.596C390.952,-76.118 397.788,-79.241 404.81,-81.925C411.584,-84.512 418.5,-86.658 425.523,-88.503C432.296,-90.284 439.145,-91.633 446.035,-92.801C450.357,-93.535 454.714,-94.045 459.081,-94.471C464.596,-95.009 470.115,-95.432 475.657,-95.637C477.741,-95.714 479.825,-95.796 481.909,-95.786C483.699,-95.778 485.485,-96.044 487.262,-95.975C491.248,-95.824 495.237,-95.911 499.219,-95.755C504.16,-95.562 509.106,-95.33 514.025,-94.852C521.13,-94.161 528.165,-92.977 535.11,-91.266C541.116,-89.787 546.986,-87.91 552.751,-85.691C558.79,-83.369 564.647,-80.664 570.365,-77.625C575.48,-74.907 580.428,-71.917 585.28,-68.775C587.79,-67.151 590.229,-65.397 592.646,-63.62C595.332,-61.647 598.026,-59.688 600.633,-57.615C603.242,-55.544 605.804,-53.414 608.432,-51.368C610.917,-49.434 613.448,-47.558 615.979,-45.686C618.621,-43.732 621.235,-41.734 623.957,-39.9C627.367,-37.6 630.819,-35.362 634.314,-33.191C638.578,-30.541 642.999,-28.193 647.515,-26.043C652.313,-23.764 657.232,-21.75 662.307,-20.132C666.279,-18.864 670.294,-17.773 674.374,-16.928C679.069,-15.957 683.824,-15.347 688.582,-14.747C693.56,-14.12 698.554,-13.672 703.551,-13.247C706.589,-12.989 709.64,-12.849 712.689,-12.775C716.672,-12.678 720.655,-12.466 724.645,-12.517C729.264,-12.578 733.878,-12.741 738.484,-13.025C747.465,-13.579 756.4,-14.659 765.231,-16.401C773.332,-17.998 781.324,-20.035 789.167,-22.656C796.089,-24.968 802.862,-27.651 809.459,-30.748C815.654,-33.658 821.659,-36.938 827.469,-40.565C831.368,-43.001 835.168,-45.575 838.881,-48.29C842.568,-50.984 846.131,-53.83 849.717,-56.652C852.042,-58.481 854.432,-60.235 856.847,-61.954C859.174,-63.611 861.507,-65.253 863.865,-66.865C868.775,-70.223 873.915,-73.198 879.129,-76.052C885.017,-79.273 891.08,-82.122 897.327,-84.551C904.616,-87.384 912.088,-89.633 919.731,-91.316C925.545,-92.598 931.424,-93.478 937.33,-94.172C941.5,-94.661 945.694,-94.95 949.872,-95.377C951.024,-95.495 952.166,-95.618 953.323,-95.557L953.323,-85.484C949.6,-85.371 945.922,-84.806 942.239,-84.324C937.116,-83.655 932.028,-82.758 926.979,-81.661C920.032,-80.153 913.203,-78.217 906.494,-75.858C900.768,-73.845 895.185,-71.476 889.786,-68.722C883.833,-65.686 878.076,-62.285 872.516,-58.572C867.393,-55.152 862.333,-51.64 857.423,-47.912C855.045,-46.104 852.507,-44.508 850.11,-42.726C847.52,-40.8 844.823,-39.042 842.125,-37.28C838.209,-34.721 834.206,-32.302 830.165,-29.95C825.603,-27.294 820.903,-24.891 816.148,-22.601C810.554,-19.908 804.862,-17.431 799.036,-15.265C792.376,-12.788 785.617,-10.625 778.747,-8.816C771.878,-7.005 764.923,-5.586 757.904,-4.508C753.977,-3.905 750.028,-3.433 746.065,-3.067C739.17,-2.429 732.266,-2.11 725.345,-1.89C721.052,-1.754 716.781,-1.951 712.509,-2.055C706.382,-2.203 700.264,-2.765 694.181,-3.57C686.808,-4.546 679.509,-5.907 672.281,-7.692C665.123,-9.46 658.113,-11.677 651.234,-14.312C642.639,-17.602 634.364,-21.565 626.381,-26.165C619.733,-29.996 613.368,-34.238 607.208,-38.794C603.533,-41.51 600.048,-44.467 596.602,-47.472C592.374,-51.16 588.046,-54.726 583.501,-58.033C577.107,-62.685 570.376,-66.78 563.294,-70.275C554.662,-74.537 545.645,-77.814 536.336,-80.255C529.825,-81.962 523.214,-83.223 516.535,-84.066C512.258,-84.605 507.967,-85.003 503.66,-85.287C497.331,-85.706 490.998,-85.802 484.668,-85.65C479.73,-85.532 474.788,-85.267 469.854,-84.863C465.668,-84.518 461.485,-84.125 457.315,-83.64C452.815,-83.116 448.334,-82.421 443.85,-81.759C437.818,-80.87 431.813,-79.836 425.901,-78.314C422.332,-77.395 418.813,-76.312 415.345,-75.079C412.476,-74.058 409.601,-73.018 406.823,-71.776C403.132,-70.126 399.467,-68.411 395.891,-66.505C392.614,-64.756 389.377,-62.938 386.192,-61.032C383.744,-59.566 381.344,-58.015 378.967,-56.432C375.888,-54.379 372.819,-52.304 369.807,-50.152C366.998,-48.145 364.302,-45.982 361.5,-43.968C357.072,-40.784 352.732,-37.489 348.163,-34.494C344.22,-31.909 340.251,-29.38 336.17,-27.024C331.83,-24.52 327.397,-22.198 322.896,-19.992C319.954,-18.552 316.951,-17.257 313.986,-15.876C311.329,-14.639 308.576,-13.592 305.823,-12.571C301.957,-11.14 298.067,-9.769 294.121,-8.574C285.537,-5.974 276.848,-3.828 267.985,-2.396C263.729,-1.709 259.46,-1.093 255.173,-0.694C251.065,-0.31 246.945,-0.031 242.812,0.081C239.684,0.164 236.553,0.36 233.429,0.223C228.007,-0.016 222.586,-0.237 217.178,-0.792C209.103,-1.619 201.111,-2.899 193.202,-4.689C187.292,-6.025 181.449,-7.621 175.672,-9.474C167.618,-12.057 159.783,-15.196 152.084,-18.675C145.851,-21.494 139.808,-24.701 133.865,-28.094C128.083,-31.394 122.52,-35.043 116.902,-38.606C112.043,-41.689 107.22,-44.83 102.358,-47.909C96.867,-51.385 91.354,-54.821 85.848,-58.273C80.813,-61.428 75.771,-64.574 70.739,-67.736C64.215,-71.835 57.546,-75.66 50.371,-78.514C43.621,-81.198 36.691,-83.269 29.537,-84.626C24.706,-85.543 19.844,-86.207 14.955,-86.512C10.543,-86.787 6.107,-87.14 1.678,-86.614C1.126,-86.548 0.559,-86.603 0,-86.603L0,-96.453Z" style="fill:white;fill-rule:nonzero;"/>
            </g>
            <g transform="matrix(1,0,0,1,-1099.74,-1254.85)">
                <path d="M0,-84.765C2.16,-84.768 4.316,-84.87 6.474,-84.931C11.815,-85.08 17.057,-84.114 22.28,-83.136C28.389,-81.991 34.332,-80.222 40.146,-78.032C46.061,-75.803 51.731,-73.058 57.13,-69.778C61.911,-66.873 66.646,-63.897 71.398,-60.944C76.397,-57.838 81.407,-54.744 86.382,-51.6C90.921,-48.732 95.38,-45.738 99.952,-42.926C103.043,-41.023 106.079,-39.033 109.151,-37.098C112.443,-35.024 115.667,-32.838 118.992,-30.816C122.538,-28.66 126.145,-26.601 129.761,-24.564C134.414,-21.945 139.181,-19.532 144.053,-17.358C149.92,-14.738 155.824,-12.195 161.916,-10.106C166.804,-8.43 171.705,-6.809 176.69,-5.445C184.11,-3.417 191.634,-1.872 199.224,-0.633C201.305,-0.293 203.421,-0.189 205.482,0.294C137.324,0.294 69.166,0.292 1.007,0.314C0.167,0.315 -0.021,0.126 -0.021,-0.714C0.005,-28.731 0,-56.748 0,-84.765" style="fill:white;fill-rule:nonzero;"/>
            </g>
        </g>
    </g>
</svg>
