<?xml version="1.0" encoding="UTF-8" standalone="no"?>
<!DOCTYPE svg PUBLIC "-//W3C//DTD SVG 1.1//EN" "http://www.w3.org/Graphics/SVG/1.1/DTD/svg11.dtd">
<svg width="100%" height="100%" viewBox="0 0 302 95" version="1.1" xmlns="http://www.w3.org/2000/svg" xmlns:xlink="http://www.w3.org/1999/xlink" xml:space="preserve" xmlns:serif="http://www.serif.com/" style="fill-rule:evenodd;clip-rule:evenodd;stroke-linejoin:round;stroke-miterlimit:2;">
    <g id="Artboard1" transform="matrix(0.334194,0,0,0.313683,-44.1356,-174.171)">
        <rect x="132.066" y="555.244" width="902.26" height="302.343" style="fill:none;"/>
        <g id="Layer-1" serif:id="Layer 1" transform="matrix(2.99228,0,0,3.18793,-320.473,-1262.63)">
            <g transform="matrix(0.341992,0,0,0.341992,100.135,377.696)">
                <g transform="matrix(77.9495,0,0,77.9495,152.157,622.795)">
                    <path d="M0.104,-0.24C0.104,-0.194 0.112,-0.156 0.127,-0.125C0.141,-0.093 0.16,-0.069 0.182,-0.05C0.204,-0.031 0.227,-0.017 0.252,-0.009C0.277,-0.001 0.298,0.003 0.317,0.003C0.33,0.003 0.344,0.002 0.359,0.001C0.374,-0.001 0.388,-0.003 0.401,-0.006C0.414,-0.009 0.427,-0.012 0.438,-0.016C0.449,-0.019 0.458,-0.023 0.465,-0.027C0.476,-0.033 0.487,-0.04 0.497,-0.049C0.506,-0.057 0.515,-0.065 0.523,-0.073C0.53,-0.081 0.536,-0.088 0.541,-0.095C0.545,-0.101 0.547,-0.105 0.547,-0.108C0.547,-0.114 0.545,-0.119 0.542,-0.123C0.538,-0.127 0.533,-0.129 0.526,-0.129C0.52,-0.129 0.512,-0.125 0.501,-0.117C0.49,-0.108 0.478,-0.099 0.463,-0.089C0.448,-0.078 0.43,-0.069 0.411,-0.061C0.391,-0.052 0.369,-0.048 0.345,-0.048C0.319,-0.048 0.295,-0.055 0.274,-0.07C0.252,-0.084 0.233,-0.102 0.218,-0.123C0.203,-0.144 0.191,-0.167 0.183,-0.192C0.174,-0.216 0.17,-0.238 0.17,-0.257C0.17,-0.267 0.171,-0.281 0.174,-0.299C0.176,-0.316 0.18,-0.335 0.186,-0.356C0.192,-0.377 0.2,-0.398 0.211,-0.419C0.222,-0.44 0.236,-0.46 0.253,-0.477C0.27,-0.494 0.29,-0.507 0.314,-0.519C0.337,-0.53 0.365,-0.535 0.397,-0.535C0.408,-0.535 0.417,-0.533 0.424,-0.528C0.431,-0.523 0.438,-0.518 0.443,-0.513C0.448,-0.507 0.452,-0.502 0.456,-0.497C0.459,-0.492 0.463,-0.49 0.467,-0.49C0.471,-0.49 0.476,-0.492 0.483,-0.496C0.489,-0.499 0.495,-0.504 0.501,-0.509C0.506,-0.514 0.511,-0.52 0.515,-0.526C0.519,-0.531 0.521,-0.536 0.521,-0.54C0.521,-0.55 0.513,-0.56 0.498,-0.571C0.483,-0.582 0.461,-0.587 0.433,-0.587C0.414,-0.587 0.393,-0.585 0.37,-0.582C0.346,-0.578 0.322,-0.571 0.297,-0.562C0.272,-0.552 0.249,-0.539 0.226,-0.523C0.203,-0.506 0.182,-0.485 0.164,-0.46C0.146,-0.434 0.132,-0.403 0.121,-0.367C0.11,-0.331 0.104,-0.289 0.104,-0.24Z" style="fill:white;fill-rule:nonzero;"/>
                </g>
                <g transform="matrix(77.9495,0,0,77.9495,198.381,622.795)">
                    <path d="M0.208,-0.361C0.208,-0.369 0.208,-0.38 0.209,-0.395C0.209,-0.409 0.21,-0.425 0.211,-0.442C0.212,-0.459 0.214,-0.476 0.216,-0.494C0.218,-0.511 0.221,-0.528 0.224,-0.543C0.225,-0.546 0.228,-0.549 0.234,-0.552C0.24,-0.555 0.247,-0.557 0.255,-0.559C0.262,-0.561 0.27,-0.563 0.277,-0.564C0.284,-0.565 0.289,-0.565 0.292,-0.565C0.295,-0.565 0.299,-0.564 0.304,-0.563C0.309,-0.562 0.314,-0.56 0.32,-0.558C0.325,-0.555 0.33,-0.553 0.335,-0.55C0.34,-0.547 0.343,-0.545 0.344,-0.543C0.348,-0.538 0.352,-0.532 0.355,-0.526C0.358,-0.52 0.359,-0.512 0.359,-0.503C0.359,-0.48 0.355,-0.458 0.348,-0.436C0.344,-0.426 0.339,-0.418 0.333,-0.411C0.327,-0.404 0.32,-0.398 0.313,-0.393C0.306,-0.388 0.299,-0.383 0.292,-0.38L0.235,-0.354C0.228,-0.351 0.222,-0.349 0.219,-0.349C0.216,-0.349 0.214,-0.35 0.212,-0.351C0.209,-0.352 0.208,-0.356 0.208,-0.361ZM0.219,-0.612L0.132,-0.589C0.119,-0.586 0.112,-0.58 0.112,-0.571C0.112,-0.559 0.119,-0.549 0.133,-0.541C0.136,-0.539 0.138,-0.532 0.14,-0.519C0.141,-0.505 0.143,-0.491 0.144,-0.474C0.145,-0.456 0.145,-0.439 0.146,-0.422C0.146,-0.405 0.146,-0.39 0.146,-0.379C0.146,-0.354 0.146,-0.326 0.145,-0.296C0.144,-0.265 0.144,-0.236 0.143,-0.209C0.142,-0.182 0.141,-0.158 0.14,-0.138C0.139,-0.117 0.139,-0.104 0.139,-0.099C0.138,-0.086 0.137,-0.076 0.135,-0.067C0.132,-0.058 0.13,-0.051 0.128,-0.046C0.125,-0.04 0.123,-0.035 0.122,-0.032C0.12,-0.029 0.119,-0.025 0.119,-0.022C0.119,-0.018 0.122,-0.014 0.127,-0.011C0.132,-0.007 0.139,-0.004 0.147,-0.002C0.154,0.001 0.162,0.003 0.17,0.005C0.178,0.006 0.184,0.007 0.189,0.007C0.198,0.007 0.205,0.006 0.209,0.003C0.212,0 0.214,-0.004 0.214,-0.011C0.214,-0.016 0.214,-0.022 0.213,-0.029C0.212,-0.036 0.211,-0.045 0.21,-0.056C0.209,-0.067 0.208,-0.081 0.207,-0.098C0.206,-0.115 0.205,-0.138 0.205,-0.165L0.205,-0.192C0.205,-0.208 0.205,-0.224 0.206,-0.241C0.207,-0.257 0.208,-0.272 0.209,-0.285C0.229,-0.281 0.255,-0.27 0.286,-0.253C0.317,-0.236 0.35,-0.215 0.385,-0.192C0.42,-0.169 0.456,-0.144 0.493,-0.117C0.529,-0.09 0.563,-0.066 0.594,-0.044C0.624,-0.022 0.651,-0.004 0.674,0.011C0.697,0.026 0.712,0.033 0.719,0.033C0.723,0.033 0.729,0.031 0.737,0.026C0.744,0.021 0.752,0.015 0.76,0.008C0.767,0.001 0.774,-0.005 0.78,-0.012C0.785,-0.019 0.788,-0.024 0.788,-0.027C0.788,-0.032 0.787,-0.035 0.785,-0.038C0.782,-0.041 0.78,-0.042 0.777,-0.042C0.75,-0.042 0.722,-0.05 0.695,-0.065C0.684,-0.072 0.671,-0.08 0.654,-0.09C0.637,-0.1 0.619,-0.111 0.6,-0.124C0.58,-0.137 0.559,-0.15 0.538,-0.164C0.516,-0.177 0.494,-0.191 0.473,-0.205C0.444,-0.224 0.418,-0.242 0.393,-0.258C0.368,-0.274 0.347,-0.288 0.329,-0.299C0.311,-0.31 0.299,-0.317 0.294,-0.32C0.289,-0.323 0.286,-0.325 0.286,-0.327C0.286,-0.329 0.288,-0.331 0.291,-0.333C0.294,-0.334 0.304,-0.338 0.32,-0.343C0.332,-0.347 0.345,-0.353 0.359,-0.36C0.373,-0.367 0.386,-0.376 0.399,-0.387C0.411,-0.398 0.421,-0.413 0.429,-0.43C0.437,-0.447 0.441,-0.467 0.441,-0.491C0.441,-0.506 0.436,-0.522 0.427,-0.537C0.418,-0.552 0.405,-0.565 0.389,-0.577C0.373,-0.589 0.354,-0.599 0.333,-0.606C0.311,-0.613 0.287,-0.617 0.262,-0.617C0.251,-0.617 0.243,-0.616 0.237,-0.616C0.231,-0.615 0.225,-0.613 0.219,-0.612Z" style="fill:white;fill-rule:nonzero;"/>
                </g>
                <g transform="matrix(77.9495,0,0,77.9495,260.429,622.795)">
                    <path d="M0.217,0.083C0.223,0.083 0.229,0.078 0.236,0.067C0.243,0.056 0.25,0.043 0.257,0.027C0.264,0.01 0.272,-0.008 0.28,-0.029L0.321,-0.138C0.326,-0.153 0.331,-0.163 0.335,-0.17L0.507,-0.475C0.514,-0.486 0.52,-0.495 0.525,-0.502L0.547,-0.529C0.549,-0.532 0.55,-0.534 0.55,-0.537C0.55,-0.542 0.547,-0.547 0.541,-0.552C0.535,-0.557 0.528,-0.561 0.52,-0.564C0.512,-0.567 0.504,-0.57 0.496,-0.573C0.487,-0.575 0.481,-0.576 0.476,-0.576C0.469,-0.576 0.464,-0.574 0.461,-0.571C0.458,-0.567 0.456,-0.558 0.456,-0.545C0.456,-0.532 0.451,-0.513 0.441,-0.49C0.431,-0.466 0.418,-0.439 0.403,-0.41C0.388,-0.381 0.371,-0.349 0.353,-0.317C0.335,-0.284 0.318,-0.251 0.302,-0.219C0.294,-0.239 0.281,-0.263 0.262,-0.292C0.243,-0.32 0.224,-0.349 0.203,-0.379C0.182,-0.409 0.163,-0.438 0.145,-0.467C0.126,-0.495 0.113,-0.519 0.106,-0.538C0.103,-0.545 0.101,-0.553 0.101,-0.56C0.099,-0.567 0.098,-0.573 0.098,-0.579C0.096,-0.584 0.095,-0.589 0.093,-0.593C0.091,-0.596 0.088,-0.598 0.083,-0.598C0.078,-0.598 0.072,-0.596 0.063,-0.591C0.054,-0.586 0.046,-0.581 0.038,-0.575C0.03,-0.568 0.023,-0.562 0.017,-0.555C0.011,-0.548 0.008,-0.542 0.008,-0.537C0.008,-0.531 0.011,-0.524 0.016,-0.516C0.021,-0.507 0.029,-0.497 0.039,-0.485C0.049,-0.472 0.062,-0.457 0.077,-0.439C0.092,-0.42 0.109,-0.398 0.128,-0.371C0.157,-0.331 0.18,-0.299 0.197,-0.274C0.214,-0.249 0.226,-0.23 0.235,-0.215C0.244,-0.2 0.249,-0.188 0.252,-0.18C0.255,-0.171 0.256,-0.163 0.256,-0.155C0.256,-0.136 0.253,-0.116 0.247,-0.097C0.241,-0.078 0.234,-0.06 0.225,-0.044C0.216,-0.028 0.207,-0.015 0.197,-0.004C0.186,0.007 0.176,0.013 0.167,0.015C0.157,0.017 0.151,0.02 0.149,0.023C0.146,0.025 0.145,0.029 0.145,0.033C0.145,0.036 0.148,0.041 0.153,0.046C0.158,0.051 0.165,0.057 0.173,0.063C0.18,0.068 0.188,0.073 0.197,0.077C0.205,0.081 0.212,0.083 0.217,0.083Z" style="fill:white;fill-rule:nonzero;"/>
                </g>
                <g transform="matrix(77.9495,0,0,77.9495,303.769,622.795)">
                    <path d="M0.081,-0.041C0.081,-0.034 0.082,-0.028 0.083,-0.023C0.084,-0.017 0.086,-0.011 0.088,-0.005C0.089,-0.002 0.093,0.002 0.101,0.006C0.108,0.009 0.116,0.013 0.125,0.016C0.134,0.019 0.143,0.022 0.152,0.024C0.161,0.026 0.169,0.027 0.175,0.027C0.199,0.027 0.219,0.02 0.234,0.006C0.249,-0.008 0.261,-0.024 0.27,-0.042C0.279,-0.059 0.285,-0.076 0.288,-0.093C0.291,-0.11 0.293,-0.121 0.293,-0.126C0.293,-0.155 0.287,-0.186 0.276,-0.219C0.265,-0.251 0.252,-0.282 0.239,-0.313C0.225,-0.343 0.212,-0.371 0.201,-0.398C0.19,-0.424 0.184,-0.446 0.184,-0.463C0.184,-0.491 0.194,-0.515 0.213,-0.534C0.232,-0.553 0.264,-0.563 0.308,-0.564C0.327,-0.565 0.339,-0.567 0.344,-0.571C0.349,-0.575 0.351,-0.584 0.351,-0.597C0.351,-0.602 0.348,-0.607 0.341,-0.611C0.334,-0.614 0.327,-0.617 0.318,-0.62C0.309,-0.622 0.301,-0.624 0.292,-0.625C0.283,-0.626 0.276,-0.626 0.271,-0.626C0.25,-0.626 0.229,-0.618 0.21,-0.603C0.19,-0.587 0.172,-0.568 0.158,-0.547C0.142,-0.526 0.131,-0.505 0.122,-0.484C0.113,-0.462 0.108,-0.446 0.108,-0.435C0.108,-0.422 0.111,-0.407 0.118,-0.389C0.124,-0.371 0.132,-0.352 0.141,-0.332C0.15,-0.311 0.161,-0.29 0.172,-0.269C0.183,-0.247 0.193,-0.226 0.202,-0.206C0.211,-0.185 0.219,-0.166 0.226,-0.148C0.232,-0.13 0.235,-0.114 0.235,-0.101C0.235,-0.086 0.23,-0.073 0.219,-0.061C0.208,-0.048 0.193,-0.042 0.175,-0.042C0.156,-0.042 0.141,-0.045 0.128,-0.052C0.115,-0.058 0.104,-0.061 0.095,-0.061C0.092,-0.061 0.089,-0.059 0.086,-0.057C0.083,-0.054 0.081,-0.048 0.081,-0.041Z" style="fill:white;fill-rule:nonzero;"/>
                </g>
                <g transform="matrix(77.9495,0,0,77.9495,334.091,622.795)">
                    <path d="M0.079,-0.501L0.193,-0.501C0.196,-0.471 0.198,-0.442 0.199,-0.413C0.2,-0.384 0.2,-0.355 0.2,-0.325C0.2,-0.29 0.199,-0.259 0.198,-0.234C0.196,-0.209 0.194,-0.187 0.193,-0.17C0.191,-0.153 0.189,-0.139 0.188,-0.128C0.186,-0.117 0.185,-0.109 0.185,-0.102C0.185,-0.09 0.188,-0.077 0.194,-0.064C0.2,-0.05 0.209,-0.037 0.22,-0.026C0.231,-0.014 0.245,-0.004 0.261,0.003C0.276,0.01 0.294,0.014 0.314,0.014C0.324,0.014 0.335,0.012 0.349,0.007C0.362,0.002 0.372,-0.003 0.379,-0.008C0.385,-0.013 0.388,-0.021 0.388,-0.031C0.388,-0.035 0.388,-0.04 0.387,-0.045C0.386,-0.05 0.383,-0.052 0.378,-0.052C0.375,-0.052 0.37,-0.052 0.363,-0.051C0.356,-0.05 0.35,-0.049 0.345,-0.049C0.328,-0.049 0.313,-0.052 0.302,-0.057C0.291,-0.062 0.282,-0.069 0.276,-0.078C0.269,-0.086 0.265,-0.095 0.262,-0.106C0.259,-0.116 0.258,-0.126 0.258,-0.137C0.258,-0.184 0.259,-0.227 0.26,-0.264C0.261,-0.301 0.262,-0.334 0.264,-0.363C0.265,-0.392 0.267,-0.419 0.27,-0.442C0.272,-0.464 0.275,-0.486 0.278,-0.505L0.31,-0.505C0.323,-0.505 0.336,-0.505 0.349,-0.506C0.362,-0.507 0.376,-0.507 0.389,-0.508C0.402,-0.509 0.413,-0.51 0.423,-0.511C0.428,-0.512 0.433,-0.514 0.438,-0.517C0.443,-0.52 0.448,-0.524 0.453,-0.529C0.457,-0.534 0.46,-0.538 0.464,-0.543C0.467,-0.547 0.468,-0.55 0.468,-0.553C0.468,-0.562 0.463,-0.567 0.453,-0.567C0.416,-0.567 0.38,-0.566 0.343,-0.563C0.306,-0.56 0.27,-0.559 0.233,-0.559C0.205,-0.559 0.181,-0.56 0.161,-0.561C0.141,-0.562 0.124,-0.563 0.11,-0.564C0.095,-0.565 0.083,-0.565 0.073,-0.566C0.063,-0.567 0.054,-0.567 0.047,-0.567C0.041,-0.567 0.034,-0.563 0.028,-0.556C0.021,-0.549 0.017,-0.542 0.017,-0.537C0.017,-0.528 0.019,-0.52 0.023,-0.512C0.027,-0.503 0.033,-0.499 0.041,-0.499C0.048,-0.499 0.054,-0.499 0.061,-0.5C0.067,-0.501 0.073,-0.501 0.079,-0.501Z" style="fill:white;fill-rule:nonzero;"/>
                </g>
                <g transform="matrix(77.9495,0,0,77.9495,373.066,622.795)">
                    <path d="M0.296,-0.374L0.453,-0.214C0.45,-0.213 0.446,-0.212 0.441,-0.211C0.436,-0.21 0.428,-0.209 0.417,-0.208C0.406,-0.207 0.392,-0.207 0.375,-0.207C0.358,-0.206 0.336,-0.206 0.31,-0.206C0.286,-0.206 0.267,-0.206 0.254,-0.207C0.241,-0.207 0.231,-0.207 0.224,-0.208C0.217,-0.209 0.213,-0.21 0.212,-0.212C0.21,-0.213 0.209,-0.215 0.209,-0.218C0.209,-0.221 0.21,-0.225 0.213,-0.23C0.216,-0.235 0.221,-0.245 0.23,-0.26L0.296,-0.374ZM0.238,-0.16L0.503,-0.16C0.57,-0.092 0.615,-0.043 0.637,-0.013C0.64,-0.009 0.643,-0.005 0.645,-0C0.647,0.005 0.651,0.007 0.656,0.007L0.686,0.007C0.69,0.007 0.695,0.005 0.7,0.002C0.705,-0.001 0.711,-0.006 0.716,-0.011C0.721,-0.016 0.726,-0.021 0.73,-0.026C0.733,-0.031 0.735,-0.034 0.735,-0.037C0.735,-0.043 0.734,-0.047 0.731,-0.05C0.728,-0.052 0.725,-0.054 0.721,-0.055C0.716,-0.056 0.711,-0.058 0.705,-0.06C0.699,-0.062 0.693,-0.066 0.686,-0.072C0.651,-0.103 0.618,-0.133 0.589,-0.16C0.559,-0.187 0.528,-0.218 0.496,-0.252C0.463,-0.285 0.427,-0.324 0.388,-0.369C0.349,-0.414 0.302,-0.469 0.248,-0.534C0.241,-0.543 0.234,-0.553 0.227,-0.562C0.22,-0.571 0.215,-0.578 0.214,-0.582C0.211,-0.59 0.208,-0.596 0.206,-0.601C0.203,-0.606 0.2,-0.609 0.197,-0.612C0.193,-0.614 0.188,-0.615 0.183,-0.616C0.178,-0.617 0.17,-0.617 0.161,-0.617C0.156,-0.617 0.151,-0.616 0.144,-0.613C0.137,-0.61 0.13,-0.607 0.123,-0.604C0.116,-0.6 0.111,-0.596 0.106,-0.593C0.1,-0.589 0.098,-0.586 0.098,-0.583C0.098,-0.578 0.101,-0.573 0.108,-0.569C0.115,-0.565 0.123,-0.558 0.132,-0.548L0.214,-0.465C0.237,-0.442 0.248,-0.424 0.248,-0.411C0.248,-0.405 0.245,-0.395 0.238,-0.38C0.231,-0.365 0.223,-0.347 0.212,-0.327C0.201,-0.307 0.189,-0.285 0.175,-0.262C0.161,-0.238 0.147,-0.214 0.132,-0.191C0.117,-0.168 0.103,-0.145 0.088,-0.124C0.073,-0.103 0.06,-0.084 0.048,-0.069C0.039,-0.058 0.032,-0.049 0.025,-0.042C0.018,-0.035 0.015,-0.029 0.015,-0.023C0.015,-0.016 0.021,-0.01 0.032,-0.006C0.043,-0.002 0.058,-0 0.077,-0C0.086,-0 0.091,-0.003 0.092,-0.01C0.093,-0.017 0.095,-0.023 0.098,-0.029L0.148,-0.116C0.157,-0.133 0.168,-0.144 0.181,-0.151C0.194,-0.157 0.213,-0.16 0.238,-0.16Z" style="fill:white;fill-rule:nonzero;"/>
                </g>
                <g transform="matrix(77.9495,0,0,77.9495,430.827,622.795)">
                    <path d="M0.416,-0.067L0.235,-0.06C0.23,-0.06 0.226,-0.059 0.223,-0.058C0.219,-0.057 0.215,-0.056 0.212,-0.056C0.204,-0.056 0.2,-0.059 0.2,-0.064C0.2,-0.07 0.201,-0.08 0.202,-0.094C0.203,-0.108 0.205,-0.124 0.206,-0.143C0.207,-0.162 0.209,-0.182 0.21,-0.204C0.211,-0.225 0.212,-0.246 0.212,-0.267C0.212,-0.289 0.212,-0.308 0.211,-0.325C0.21,-0.341 0.21,-0.358 0.21,-0.377C0.21,-0.405 0.211,-0.434 0.213,-0.463C0.215,-0.492 0.216,-0.522 0.216,-0.552C0.216,-0.561 0.217,-0.57 0.22,-0.579C0.223,-0.588 0.224,-0.595 0.224,-0.601C0.224,-0.608 0.22,-0.614 0.211,-0.619C0.202,-0.623 0.195,-0.625 0.189,-0.625C0.186,-0.625 0.18,-0.623 0.172,-0.618C0.163,-0.613 0.155,-0.608 0.147,-0.602C0.138,-0.595 0.131,-0.589 0.125,-0.582C0.118,-0.575 0.115,-0.57 0.115,-0.567C0.115,-0.563 0.117,-0.558 0.12,-0.552C0.123,-0.545 0.127,-0.534 0.131,-0.518C0.134,-0.501 0.138,-0.478 0.141,-0.45C0.144,-0.421 0.146,-0.382 0.146,-0.333L0.146,-0.192C0.146,-0.171 0.146,-0.153 0.146,-0.138C0.145,-0.123 0.145,-0.11 0.144,-0.099C0.144,-0.086 0.141,-0.077 0.134,-0.07C0.127,-0.063 0.124,-0.056 0.124,-0.051C0.124,-0.049 0.125,-0.045 0.128,-0.04C0.13,-0.034 0.133,-0.028 0.137,-0.023C0.141,-0.017 0.145,-0.012 0.15,-0.007C0.154,-0.002 0.158,-0 0.162,-0C0.174,-0 0.184,-0.002 0.193,-0.007C0.196,-0.008 0.199,-0.01 0.203,-0.011C0.206,-0.012 0.212,-0.012 0.22,-0.013C0.228,-0.013 0.239,-0.013 0.253,-0.014C0.266,-0.014 0.284,-0.014 0.307,-0.014C0.328,-0.014 0.346,-0.014 0.36,-0.014C0.373,-0.013 0.384,-0.013 0.392,-0.013C0.4,-0.012 0.406,-0.012 0.409,-0.012C0.412,-0.011 0.415,-0.011 0.416,-0.01C0.426,-0.007 0.434,-0.004 0.439,-0.003C0.444,-0.001 0.449,-0 0.455,-0C0.459,-0 0.463,-0.004 0.467,-0.011C0.47,-0.018 0.474,-0.025 0.477,-0.034C0.48,-0.042 0.482,-0.05 0.484,-0.058C0.485,-0.065 0.486,-0.07 0.486,-0.072C0.486,-0.081 0.48,-0.085 0.469,-0.085C0.462,-0.085 0.453,-0.082 0.444,-0.077C0.435,-0.071 0.425,-0.068 0.416,-0.067Z" style="fill:white;fill-rule:nonzero;"/>
                </g>
                <g transform="matrix(77.9495,0,0,77.9495,492.952,622.795)">
                    <path d="M0.104,-0.24C0.104,-0.194 0.112,-0.156 0.127,-0.125C0.141,-0.093 0.16,-0.069 0.182,-0.05C0.204,-0.031 0.227,-0.017 0.252,-0.009C0.277,-0.001 0.298,0.003 0.317,0.003C0.33,0.003 0.344,0.002 0.359,0.001C0.374,-0.001 0.388,-0.003 0.401,-0.006C0.414,-0.009 0.427,-0.012 0.438,-0.016C0.449,-0.019 0.458,-0.023 0.465,-0.027C0.476,-0.033 0.487,-0.04 0.497,-0.049C0.506,-0.057 0.515,-0.065 0.523,-0.073C0.53,-0.081 0.536,-0.088 0.541,-0.095C0.545,-0.101 0.547,-0.105 0.547,-0.108C0.547,-0.114 0.545,-0.119 0.542,-0.123C0.538,-0.127 0.533,-0.129 0.526,-0.129C0.52,-0.129 0.512,-0.125 0.501,-0.117C0.49,-0.108 0.478,-0.099 0.463,-0.089C0.448,-0.078 0.43,-0.069 0.411,-0.061C0.391,-0.052 0.369,-0.048 0.345,-0.048C0.319,-0.048 0.295,-0.055 0.274,-0.07C0.252,-0.084 0.233,-0.102 0.218,-0.123C0.203,-0.144 0.191,-0.167 0.183,-0.192C0.174,-0.216 0.17,-0.238 0.17,-0.257C0.17,-0.267 0.171,-0.281 0.174,-0.299C0.176,-0.316 0.18,-0.335 0.186,-0.356C0.192,-0.377 0.2,-0.398 0.211,-0.419C0.222,-0.44 0.236,-0.46 0.253,-0.477C0.27,-0.494 0.29,-0.507 0.314,-0.519C0.337,-0.53 0.365,-0.535 0.397,-0.535C0.408,-0.535 0.417,-0.533 0.424,-0.528C0.431,-0.523 0.438,-0.518 0.443,-0.513C0.448,-0.507 0.452,-0.502 0.456,-0.497C0.459,-0.492 0.463,-0.49 0.467,-0.49C0.471,-0.49 0.476,-0.492 0.483,-0.496C0.489,-0.499 0.495,-0.504 0.501,-0.509C0.506,-0.514 0.511,-0.52 0.515,-0.526C0.519,-0.531 0.521,-0.536 0.521,-0.54C0.521,-0.55 0.513,-0.56 0.498,-0.571C0.483,-0.582 0.461,-0.587 0.433,-0.587C0.414,-0.587 0.393,-0.585 0.37,-0.582C0.346,-0.578 0.322,-0.571 0.297,-0.562C0.272,-0.552 0.249,-0.539 0.226,-0.523C0.203,-0.506 0.182,-0.485 0.164,-0.46C0.146,-0.434 0.132,-0.403 0.121,-0.367C0.11,-0.331 0.104,-0.289 0.104,-0.24Z" style="fill:white;fill-rule:nonzero;"/>
                </g>
                <g transform="matrix(77.9495,0,0,77.9495,539.176,622.795)">
                    <path d="M0.208,-0.361C0.208,-0.369 0.208,-0.38 0.209,-0.395C0.209,-0.409 0.21,-0.425 0.211,-0.442C0.212,-0.459 0.214,-0.476 0.216,-0.494C0.218,-0.511 0.221,-0.528 0.224,-0.543C0.225,-0.546 0.228,-0.549 0.234,-0.552C0.24,-0.555 0.247,-0.557 0.255,-0.559C0.262,-0.561 0.27,-0.563 0.277,-0.564C0.284,-0.565 0.289,-0.565 0.292,-0.565C0.295,-0.565 0.299,-0.564 0.304,-0.563C0.309,-0.562 0.314,-0.56 0.32,-0.558C0.325,-0.555 0.33,-0.553 0.335,-0.55C0.34,-0.547 0.343,-0.545 0.344,-0.543C0.348,-0.538 0.352,-0.532 0.355,-0.526C0.358,-0.52 0.359,-0.512 0.359,-0.503C0.359,-0.48 0.355,-0.458 0.348,-0.436C0.344,-0.426 0.339,-0.418 0.333,-0.411C0.327,-0.404 0.32,-0.398 0.313,-0.393C0.306,-0.388 0.299,-0.383 0.292,-0.38L0.235,-0.354C0.228,-0.351 0.222,-0.349 0.219,-0.349C0.216,-0.349 0.214,-0.35 0.212,-0.351C0.209,-0.352 0.208,-0.356 0.208,-0.361ZM0.219,-0.612L0.132,-0.589C0.119,-0.586 0.112,-0.58 0.112,-0.571C0.112,-0.559 0.119,-0.549 0.133,-0.541C0.136,-0.539 0.138,-0.532 0.14,-0.519C0.141,-0.505 0.143,-0.491 0.144,-0.474C0.145,-0.456 0.145,-0.439 0.146,-0.422C0.146,-0.405 0.146,-0.39 0.146,-0.379C0.146,-0.354 0.146,-0.326 0.145,-0.296C0.144,-0.265 0.144,-0.236 0.143,-0.209C0.142,-0.182 0.141,-0.158 0.14,-0.138C0.139,-0.117 0.139,-0.104 0.139,-0.099C0.138,-0.086 0.137,-0.076 0.135,-0.067C0.132,-0.058 0.13,-0.051 0.128,-0.046C0.125,-0.04 0.123,-0.035 0.122,-0.032C0.12,-0.029 0.119,-0.025 0.119,-0.022C0.119,-0.018 0.122,-0.014 0.127,-0.011C0.132,-0.007 0.139,-0.004 0.147,-0.002C0.154,0.001 0.162,0.003 0.17,0.005C0.178,0.006 0.184,0.007 0.189,0.007C0.198,0.007 0.205,0.006 0.209,0.003C0.212,0 0.214,-0.004 0.214,-0.011C0.214,-0.016 0.214,-0.022 0.213,-0.029C0.212,-0.036 0.211,-0.045 0.21,-0.056C0.209,-0.067 0.208,-0.081 0.207,-0.098C0.206,-0.115 0.205,-0.138 0.205,-0.165L0.205,-0.192C0.205,-0.208 0.205,-0.224 0.206,-0.241C0.207,-0.257 0.208,-0.272 0.209,-0.285C0.229,-0.281 0.255,-0.27 0.286,-0.253C0.317,-0.236 0.35,-0.215 0.385,-0.192C0.42,-0.169 0.456,-0.144 0.493,-0.117C0.529,-0.09 0.563,-0.066 0.594,-0.044C0.624,-0.022 0.651,-0.004 0.674,0.011C0.697,0.026 0.712,0.033 0.719,0.033C0.723,0.033 0.729,0.031 0.737,0.026C0.744,0.021 0.752,0.015 0.76,0.008C0.767,0.001 0.774,-0.005 0.78,-0.012C0.785,-0.019 0.788,-0.024 0.788,-0.027C0.788,-0.032 0.787,-0.035 0.785,-0.038C0.782,-0.041 0.78,-0.042 0.777,-0.042C0.75,-0.042 0.722,-0.05 0.695,-0.065C0.684,-0.072 0.671,-0.08 0.654,-0.09C0.637,-0.1 0.619,-0.111 0.6,-0.124C0.58,-0.137 0.559,-0.15 0.538,-0.164C0.516,-0.177 0.494,-0.191 0.473,-0.205C0.444,-0.224 0.418,-0.242 0.393,-0.258C0.368,-0.274 0.347,-0.288 0.329,-0.299C0.311,-0.31 0.299,-0.317 0.294,-0.32C0.289,-0.323 0.286,-0.325 0.286,-0.327C0.286,-0.329 0.288,-0.331 0.291,-0.333C0.294,-0.334 0.304,-0.338 0.32,-0.343C0.332,-0.347 0.345,-0.353 0.359,-0.36C0.373,-0.367 0.386,-0.376 0.399,-0.387C0.411,-0.398 0.421,-0.413 0.429,-0.43C0.437,-0.447 0.441,-0.467 0.441,-0.491C0.441,-0.506 0.436,-0.522 0.427,-0.537C0.418,-0.552 0.405,-0.565 0.389,-0.577C0.373,-0.589 0.354,-0.599 0.333,-0.606C0.311,-0.613 0.287,-0.617 0.262,-0.617C0.251,-0.617 0.243,-0.616 0.237,-0.616C0.231,-0.615 0.225,-0.613 0.219,-0.612Z" style="fill:white;fill-rule:nonzero;"/>
                </g>
                <g transform="matrix(77.9495,0,0,77.9495,601.224,622.795)">
                    <path d="M0.364,-0.32L0.229,-0.32C0.219,-0.32 0.21,-0.319 0.203,-0.316C0.196,-0.313 0.189,-0.309 0.184,-0.304C0.187,-0.354 0.192,-0.395 0.201,-0.427C0.21,-0.459 0.22,-0.484 0.233,-0.503C0.245,-0.521 0.259,-0.533 0.274,-0.54C0.289,-0.547 0.304,-0.55 0.32,-0.55L0.379,-0.55C0.392,-0.55 0.398,-0.557 0.398,-0.572C0.398,-0.583 0.393,-0.591 0.383,-0.596C0.373,-0.6 0.354,-0.602 0.326,-0.602C0.298,-0.602 0.271,-0.596 0.245,-0.585C0.218,-0.573 0.195,-0.553 0.175,-0.526C0.155,-0.498 0.139,-0.462 0.127,-0.417C0.114,-0.372 0.108,-0.316 0.108,-0.249C0.108,-0.23 0.109,-0.211 0.11,-0.19C0.111,-0.169 0.115,-0.149 0.12,-0.129C0.125,-0.108 0.133,-0.089 0.144,-0.071C0.154,-0.052 0.168,-0.036 0.186,-0.022C0.204,-0.008 0.226,0.003 0.253,0.012C0.28,0.02 0.312,0.024 0.35,0.024C0.375,0.024 0.393,0.021 0.403,0.016C0.413,0.011 0.418,0.005 0.418,-0C0.418,-0.009 0.416,-0.014 0.411,-0.017C0.406,-0.02 0.396,-0.021 0.381,-0.021C0.312,-0.021 0.262,-0.041 0.231,-0.082C0.2,-0.122 0.184,-0.182 0.184,-0.262C0.204,-0.263 0.227,-0.263 0.253,-0.264C0.278,-0.264 0.306,-0.265 0.336,-0.268C0.339,-0.268 0.343,-0.27 0.349,-0.273C0.354,-0.276 0.359,-0.28 0.364,-0.285C0.369,-0.29 0.374,-0.294 0.378,-0.299C0.381,-0.303 0.383,-0.306 0.383,-0.308C0.383,-0.316 0.377,-0.32 0.364,-0.32Z" style="fill:white;fill-rule:nonzero;"/>
                </g>
                <g transform="matrix(77.9495,0,0,77.9495,638.718,622.795)">
                    <path d="M0.364,-0.32L0.229,-0.32C0.219,-0.32 0.21,-0.319 0.203,-0.316C0.196,-0.313 0.189,-0.309 0.184,-0.304C0.187,-0.354 0.192,-0.395 0.201,-0.427C0.21,-0.459 0.22,-0.484 0.233,-0.503C0.245,-0.521 0.259,-0.533 0.274,-0.54C0.289,-0.547 0.304,-0.55 0.32,-0.55L0.379,-0.55C0.392,-0.55 0.398,-0.557 0.398,-0.572C0.398,-0.583 0.393,-0.591 0.383,-0.596C0.373,-0.6 0.354,-0.602 0.326,-0.602C0.298,-0.602 0.271,-0.596 0.245,-0.585C0.218,-0.573 0.195,-0.553 0.175,-0.526C0.155,-0.498 0.139,-0.462 0.127,-0.417C0.114,-0.372 0.108,-0.316 0.108,-0.249C0.108,-0.23 0.109,-0.211 0.11,-0.19C0.111,-0.169 0.115,-0.149 0.12,-0.129C0.125,-0.108 0.133,-0.089 0.144,-0.071C0.154,-0.052 0.168,-0.036 0.186,-0.022C0.204,-0.008 0.226,0.003 0.253,0.012C0.28,0.02 0.312,0.024 0.35,0.024C0.375,0.024 0.393,0.021 0.403,0.016C0.413,0.011 0.418,0.005 0.418,-0C0.418,-0.009 0.416,-0.014 0.411,-0.017C0.406,-0.02 0.396,-0.021 0.381,-0.021C0.312,-0.021 0.262,-0.041 0.231,-0.082C0.2,-0.122 0.184,-0.182 0.184,-0.262C0.204,-0.263 0.227,-0.263 0.253,-0.264C0.278,-0.264 0.306,-0.265 0.336,-0.268C0.339,-0.268 0.343,-0.27 0.349,-0.273C0.354,-0.276 0.359,-0.28 0.364,-0.285C0.369,-0.29 0.374,-0.294 0.378,-0.299C0.381,-0.303 0.383,-0.306 0.383,-0.308C0.383,-0.316 0.377,-0.32 0.364,-0.32Z" style="fill:white;fill-rule:nonzero;"/>
                </g>
                <g transform="matrix(77.9495,0,0,77.9495,676.212,622.795)">
                    <path d="M0.19,-0.02L0.19,-0.093C0.19,-0.116 0.19,-0.14 0.191,-0.164C0.191,-0.188 0.191,-0.212 0.192,-0.236C0.195,-0.237 0.198,-0.237 0.202,-0.238C0.206,-0.239 0.211,-0.239 0.218,-0.239C0.223,-0.239 0.228,-0.238 0.234,-0.235C0.239,-0.232 0.248,-0.225 0.26,-0.215C0.271,-0.205 0.287,-0.191 0.307,-0.172C0.327,-0.153 0.353,-0.129 0.386,-0.098C0.399,-0.085 0.412,-0.073 0.424,-0.062C0.435,-0.05 0.446,-0.04 0.455,-0.031C0.464,-0.022 0.472,-0.014 0.48,-0.009C0.487,-0.003 0.492,-0 0.496,-0C0.5,-0 0.506,-0.002 0.516,-0.005C0.525,-0.008 0.534,-0.011 0.544,-0.016C0.553,-0.02 0.562,-0.024 0.569,-0.03C0.576,-0.034 0.58,-0.039 0.58,-0.042C0.58,-0.049 0.579,-0.054 0.576,-0.057C0.573,-0.06 0.566,-0.063 0.557,-0.064C0.542,-0.067 0.525,-0.074 0.508,-0.085C0.49,-0.096 0.472,-0.109 0.454,-0.124C0.435,-0.138 0.417,-0.155 0.399,-0.172C0.38,-0.189 0.363,-0.205 0.347,-0.22C0.33,-0.235 0.315,-0.247 0.301,-0.257C0.287,-0.267 0.275,-0.273 0.265,-0.274L0.265,-0.276C0.277,-0.283 0.293,-0.295 0.312,-0.312C0.331,-0.329 0.351,-0.347 0.373,-0.369C0.394,-0.39 0.416,-0.411 0.438,-0.433C0.46,-0.454 0.48,-0.473 0.498,-0.488C0.503,-0.492 0.509,-0.495 0.516,-0.498C0.523,-0.501 0.529,-0.503 0.536,-0.505C0.542,-0.507 0.547,-0.509 0.552,-0.512C0.557,-0.514 0.559,-0.517 0.559,-0.52C0.559,-0.522 0.557,-0.526 0.552,-0.532C0.547,-0.537 0.541,-0.543 0.534,-0.549C0.527,-0.555 0.521,-0.56 0.514,-0.565C0.506,-0.57 0.501,-0.572 0.497,-0.572C0.494,-0.572 0.485,-0.565 0.47,-0.551C0.455,-0.536 0.437,-0.519 0.416,-0.498C0.395,-0.476 0.373,-0.454 0.35,-0.429C0.326,-0.404 0.304,-0.381 0.283,-0.36C0.262,-0.339 0.245,-0.321 0.23,-0.307C0.215,-0.292 0.205,-0.285 0.202,-0.285C0.198,-0.285 0.196,-0.287 0.195,-0.29C0.194,-0.293 0.193,-0.299 0.193,-0.306C0.193,-0.315 0.193,-0.324 0.194,-0.334C0.194,-0.344 0.195,-0.356 0.196,-0.37C0.197,-0.384 0.198,-0.401 0.199,-0.42C0.2,-0.439 0.201,-0.461 0.202,-0.487C0.203,-0.498 0.205,-0.507 0.21,-0.515C0.214,-0.522 0.216,-0.527 0.216,-0.532C0.216,-0.534 0.215,-0.538 0.213,-0.543C0.211,-0.548 0.209,-0.554 0.206,-0.561C0.203,-0.567 0.2,-0.573 0.197,-0.578C0.194,-0.583 0.191,-0.587 0.19,-0.588C0.188,-0.59 0.183,-0.593 0.176,-0.597C0.168,-0.6 0.162,-0.602 0.158,-0.602C0.155,-0.602 0.151,-0.6 0.145,-0.595C0.139,-0.59 0.133,-0.585 0.128,-0.579C0.123,-0.573 0.118,-0.567 0.114,-0.561C0.109,-0.555 0.107,-0.55 0.107,-0.547C0.107,-0.544 0.108,-0.54 0.11,-0.537C0.111,-0.533 0.113,-0.528 0.116,-0.522C0.118,-0.516 0.12,-0.508 0.123,-0.498C0.125,-0.488 0.126,-0.475 0.127,-0.458C0.128,-0.424 0.13,-0.39 0.131,-0.355C0.132,-0.32 0.132,-0.286 0.132,-0.251C0.132,-0.228 0.132,-0.204 0.131,-0.18C0.13,-0.156 0.13,-0.133 0.129,-0.112C0.128,-0.091 0.127,-0.072 0.126,-0.055C0.125,-0.038 0.124,-0.026 0.124,-0.017C0.124,-0.01 0.127,-0.004 0.134,0.001C0.141,0.005 0.146,0.007 0.149,0.007C0.151,0.007 0.154,0.006 0.159,0.005C0.164,0.004 0.168,0.002 0.173,-0.001C0.177,-0.003 0.181,-0.006 0.185,-0.009C0.188,-0.012 0.19,-0.016 0.19,-0.02Z" style="fill:white;fill-rule:nonzero;"/>
                </g>
                <g transform="matrix(77.9495,0,0,77.9495,745.509,622.795)">
                    <path d="M0.212,-0.246L0.212,-0.529C0.22,-0.534 0.231,-0.539 0.244,-0.544C0.257,-0.548 0.27,-0.55 0.281,-0.55C0.29,-0.55 0.305,-0.546 0.324,-0.539C0.343,-0.532 0.363,-0.52 0.383,-0.503C0.402,-0.486 0.419,-0.463 0.434,-0.435C0.449,-0.407 0.456,-0.372 0.456,-0.33C0.456,-0.273 0.451,-0.226 0.441,-0.189C0.43,-0.152 0.416,-0.123 0.397,-0.102C0.378,-0.081 0.356,-0.066 0.331,-0.058C0.305,-0.05 0.276,-0.046 0.245,-0.046C0.233,-0.046 0.224,-0.049 0.219,-0.056C0.214,-0.063 0.211,-0.079 0.211,-0.104C0.211,-0.125 0.211,-0.147 0.212,-0.172C0.212,-0.196 0.212,-0.221 0.212,-0.246ZM0.237,0.011C0.241,0.011 0.248,0.01 0.259,0.008C0.27,0.005 0.282,0.002 0.297,-0.002C0.311,-0.006 0.326,-0.011 0.343,-0.017C0.36,-0.023 0.376,-0.03 0.392,-0.037C0.407,-0.044 0.422,-0.053 0.435,-0.062C0.448,-0.07 0.458,-0.08 0.465,-0.09C0.477,-0.107 0.487,-0.124 0.495,-0.141C0.503,-0.158 0.509,-0.176 0.515,-0.197C0.52,-0.218 0.523,-0.241 0.525,-0.268C0.527,-0.294 0.528,-0.324 0.528,-0.359C0.528,-0.397 0.522,-0.43 0.509,-0.457C0.496,-0.484 0.481,-0.506 0.462,-0.524C0.443,-0.542 0.422,-0.556 0.399,-0.567C0.376,-0.577 0.355,-0.585 0.336,-0.59C0.316,-0.595 0.299,-0.599 0.285,-0.6C0.271,-0.601 0.263,-0.602 0.261,-0.602C0.256,-0.602 0.249,-0.601 0.241,-0.6C0.232,-0.598 0.22,-0.595 0.205,-0.591L0.135,-0.571C0.118,-0.566 0.107,-0.561 0.102,-0.558C0.096,-0.554 0.094,-0.547 0.094,-0.538C0.094,-0.531 0.096,-0.526 0.1,-0.525C0.103,-0.523 0.107,-0.522 0.112,-0.521C0.116,-0.52 0.12,-0.52 0.125,-0.519C0.129,-0.518 0.132,-0.514 0.133,-0.508C0.135,-0.499 0.137,-0.487 0.139,-0.473C0.141,-0.458 0.143,-0.443 0.145,-0.426C0.146,-0.409 0.148,-0.393 0.149,-0.376C0.15,-0.359 0.15,-0.343 0.15,-0.328C0.15,-0.292 0.149,-0.253 0.148,-0.211C0.147,-0.169 0.145,-0.128 0.143,-0.088C0.142,-0.075 0.14,-0.064 0.137,-0.057C0.134,-0.05 0.13,-0.044 0.127,-0.04C0.123,-0.036 0.119,-0.033 0.117,-0.03C0.114,-0.027 0.112,-0.022 0.112,-0.017C0.112,-0.012 0.115,-0.008 0.12,-0.006C0.125,-0.003 0.133,-0.001 0.144,-0L0.2,0.007C0.205,0.008 0.211,0.009 0.218,0.01C0.224,0.011 0.23,0.011 0.237,0.011Z" style="fill:white;fill-rule:nonzero;"/>
                </g>
                <g transform="matrix(77.9495,0,0,77.9495,796.02,622.795)">
                    <path d="M0.364,-0.32L0.229,-0.32C0.219,-0.32 0.21,-0.319 0.203,-0.316C0.196,-0.313 0.189,-0.309 0.184,-0.304C0.187,-0.354 0.192,-0.395 0.201,-0.427C0.21,-0.459 0.22,-0.484 0.233,-0.503C0.245,-0.521 0.259,-0.533 0.274,-0.54C0.289,-0.547 0.304,-0.55 0.32,-0.55L0.379,-0.55C0.392,-0.55 0.398,-0.557 0.398,-0.572C0.398,-0.583 0.393,-0.591 0.383,-0.596C0.373,-0.6 0.354,-0.602 0.326,-0.602C0.298,-0.602 0.271,-0.596 0.245,-0.585C0.218,-0.573 0.195,-0.553 0.175,-0.526C0.155,-0.498 0.139,-0.462 0.127,-0.417C0.114,-0.372 0.108,-0.316 0.108,-0.249C0.108,-0.23 0.109,-0.211 0.11,-0.19C0.111,-0.169 0.115,-0.149 0.12,-0.129C0.125,-0.108 0.133,-0.089 0.144,-0.071C0.154,-0.052 0.168,-0.036 0.186,-0.022C0.204,-0.008 0.226,0.003 0.253,0.012C0.28,0.02 0.312,0.024 0.35,0.024C0.375,0.024 0.393,0.021 0.403,0.016C0.413,0.011 0.418,0.005 0.418,-0C0.418,-0.009 0.416,-0.014 0.411,-0.017C0.406,-0.02 0.396,-0.021 0.381,-0.021C0.312,-0.021 0.262,-0.041 0.231,-0.082C0.2,-0.122 0.184,-0.182 0.184,-0.262C0.204,-0.263 0.227,-0.263 0.253,-0.264C0.278,-0.264 0.306,-0.265 0.336,-0.268C0.339,-0.268 0.343,-0.27 0.349,-0.273C0.354,-0.276 0.359,-0.28 0.364,-0.285C0.369,-0.29 0.374,-0.294 0.378,-0.299C0.381,-0.303 0.383,-0.306 0.383,-0.308C0.383,-0.316 0.377,-0.32 0.364,-0.32Z" style="fill:white;fill-rule:nonzero;"/>
                </g>
                <g transform="matrix(77.9495,0,0,77.9495,833.514,622.795)">
                    <path d="M0.153,-0.368L0.141,-0.121C0.14,-0.101 0.137,-0.085 0.133,-0.072C0.129,-0.059 0.125,-0.049 0.121,-0.042C0.116,-0.034 0.112,-0.027 0.109,-0.023C0.106,-0.017 0.104,-0.012 0.104,-0.007C0.104,0.002 0.11,0.007 0.123,0.007C0.13,0.007 0.138,0.006 0.147,0.004C0.155,0.002 0.167,-0.001 0.183,-0.005C0.19,-0.007 0.195,-0.011 0.198,-0.017C0.2,-0.022 0.201,-0.028 0.201,-0.033C0.201,-0.041 0.201,-0.053 0.2,-0.068C0.199,-0.083 0.199,-0.097 0.199,-0.112C0.199,-0.129 0.199,-0.149 0.2,-0.174C0.2,-0.198 0.2,-0.224 0.201,-0.252C0.201,-0.28 0.202,-0.309 0.203,-0.339C0.204,-0.368 0.206,-0.397 0.208,-0.425C0.218,-0.414 0.233,-0.398 0.253,-0.378C0.272,-0.358 0.294,-0.335 0.319,-0.31C0.343,-0.284 0.369,-0.256 0.397,-0.227C0.424,-0.197 0.451,-0.167 0.477,-0.136C0.489,-0.122 0.498,-0.108 0.505,-0.094C0.511,-0.08 0.516,-0.067 0.519,-0.056C0.522,-0.045 0.525,-0.035 0.528,-0.028C0.53,-0.021 0.533,-0.017 0.536,-0.017C0.539,-0.017 0.544,-0.019 0.551,-0.024C0.558,-0.028 0.566,-0.033 0.574,-0.04C0.581,-0.046 0.588,-0.053 0.594,-0.061C0.6,-0.068 0.603,-0.075 0.603,-0.082C0.603,-0.103 0.603,-0.124 0.602,-0.143C0.601,-0.162 0.601,-0.179 0.601,-0.196C0.601,-0.251 0.603,-0.298 0.606,-0.337C0.609,-0.376 0.613,-0.408 0.617,-0.434C0.621,-0.46 0.625,-0.481 0.628,-0.496C0.631,-0.511 0.633,-0.522 0.633,-0.529C0.633,-0.536 0.631,-0.543 0.628,-0.549C0.625,-0.554 0.618,-0.557 0.609,-0.557C0.602,-0.557 0.595,-0.557 0.587,-0.556C0.579,-0.555 0.571,-0.554 0.564,-0.552C0.557,-0.55 0.551,-0.547 0.546,-0.544C0.541,-0.54 0.538,-0.535 0.537,-0.529C0.537,-0.524 0.538,-0.518 0.54,-0.51C0.542,-0.502 0.544,-0.491 0.546,-0.478C0.548,-0.465 0.55,-0.448 0.552,-0.429C0.554,-0.41 0.555,-0.387 0.555,-0.361C0.555,-0.328 0.554,-0.297 0.552,-0.266C0.549,-0.235 0.545,-0.202 0.54,-0.168C0.531,-0.176 0.513,-0.193 0.488,-0.22C0.462,-0.247 0.432,-0.279 0.397,-0.317C0.362,-0.355 0.324,-0.397 0.283,-0.443C0.242,-0.489 0.203,-0.535 0.164,-0.581C0.159,-0.588 0.154,-0.592 0.151,-0.595C0.147,-0.597 0.143,-0.598 0.139,-0.598C0.136,-0.598 0.132,-0.597 0.129,-0.596C0.125,-0.595 0.12,-0.592 0.115,-0.587L0.079,-0.558C0.072,-0.553 0.068,-0.548 0.068,-0.543C0.068,-0.534 0.073,-0.528 0.082,-0.525C0.091,-0.522 0.1,-0.518 0.112,-0.514C0.123,-0.509 0.133,-0.502 0.142,-0.492C0.151,-0.482 0.155,-0.466 0.155,-0.443C0.155,-0.43 0.155,-0.418 0.155,-0.406C0.154,-0.393 0.154,-0.381 0.153,-0.368Z" style="fill:white;fill-rule:nonzero;"/>
                </g>
                <g transform="matrix(77.9495,0,0,77.9495,891.274,622.795)">
                    <path d="M0.079,-0.501L0.193,-0.501C0.196,-0.471 0.198,-0.442 0.199,-0.413C0.2,-0.384 0.2,-0.355 0.2,-0.325C0.2,-0.29 0.199,-0.259 0.198,-0.234C0.196,-0.209 0.194,-0.187 0.193,-0.17C0.191,-0.153 0.189,-0.139 0.188,-0.128C0.186,-0.117 0.185,-0.109 0.185,-0.102C0.185,-0.09 0.188,-0.077 0.194,-0.064C0.2,-0.05 0.209,-0.037 0.22,-0.026C0.231,-0.014 0.245,-0.004 0.261,0.003C0.276,0.01 0.294,0.014 0.314,0.014C0.324,0.014 0.335,0.012 0.349,0.007C0.362,0.002 0.372,-0.003 0.379,-0.008C0.385,-0.013 0.388,-0.021 0.388,-0.031C0.388,-0.035 0.388,-0.04 0.387,-0.045C0.386,-0.05 0.383,-0.052 0.378,-0.052C0.375,-0.052 0.37,-0.052 0.363,-0.051C0.356,-0.05 0.35,-0.049 0.345,-0.049C0.328,-0.049 0.313,-0.052 0.302,-0.057C0.291,-0.062 0.282,-0.069 0.276,-0.078C0.269,-0.086 0.265,-0.095 0.262,-0.106C0.259,-0.116 0.258,-0.126 0.258,-0.137C0.258,-0.184 0.259,-0.227 0.26,-0.264C0.261,-0.301 0.262,-0.334 0.264,-0.363C0.265,-0.392 0.267,-0.419 0.27,-0.442C0.272,-0.464 0.275,-0.486 0.278,-0.505L0.31,-0.505C0.323,-0.505 0.336,-0.505 0.349,-0.506C0.362,-0.507 0.376,-0.507 0.389,-0.508C0.402,-0.509 0.413,-0.51 0.423,-0.511C0.428,-0.512 0.433,-0.514 0.438,-0.517C0.443,-0.52 0.448,-0.524 0.453,-0.529C0.457,-0.534 0.46,-0.538 0.464,-0.543C0.467,-0.547 0.468,-0.55 0.468,-0.553C0.468,-0.562 0.463,-0.567 0.453,-0.567C0.416,-0.567 0.38,-0.566 0.343,-0.563C0.306,-0.56 0.27,-0.559 0.233,-0.559C0.205,-0.559 0.181,-0.56 0.161,-0.561C0.141,-0.562 0.124,-0.563 0.11,-0.564C0.095,-0.565 0.083,-0.565 0.073,-0.566C0.063,-0.567 0.054,-0.567 0.047,-0.567C0.041,-0.567 0.034,-0.563 0.028,-0.556C0.021,-0.549 0.017,-0.542 0.017,-0.537C0.017,-0.528 0.019,-0.52 0.023,-0.512C0.027,-0.503 0.033,-0.499 0.041,-0.499C0.048,-0.499 0.054,-0.499 0.061,-0.5C0.067,-0.501 0.073,-0.501 0.079,-0.501Z" style="fill:white;fill-rule:nonzero;"/>
                </g>
                <g transform="matrix(77.9495,0,0,77.9495,930.249,622.795)">
                    <path d="M0.296,-0.374L0.453,-0.214C0.45,-0.213 0.446,-0.212 0.441,-0.211C0.436,-0.21 0.428,-0.209 0.417,-0.208C0.406,-0.207 0.392,-0.207 0.375,-0.207C0.358,-0.206 0.336,-0.206 0.31,-0.206C0.286,-0.206 0.267,-0.206 0.254,-0.207C0.241,-0.207 0.231,-0.207 0.224,-0.208C0.217,-0.209 0.213,-0.21 0.212,-0.212C0.21,-0.213 0.209,-0.215 0.209,-0.218C0.209,-0.221 0.21,-0.225 0.213,-0.23C0.216,-0.235 0.221,-0.245 0.23,-0.26L0.296,-0.374ZM0.238,-0.16L0.503,-0.16C0.57,-0.092 0.615,-0.043 0.637,-0.013C0.64,-0.009 0.643,-0.005 0.645,-0C0.647,0.005 0.651,0.007 0.656,0.007L0.686,0.007C0.69,0.007 0.695,0.005 0.7,0.002C0.705,-0.001 0.711,-0.006 0.716,-0.011C0.721,-0.016 0.726,-0.021 0.73,-0.026C0.733,-0.031 0.735,-0.034 0.735,-0.037C0.735,-0.043 0.734,-0.047 0.731,-0.05C0.728,-0.052 0.725,-0.054 0.721,-0.055C0.716,-0.056 0.711,-0.058 0.705,-0.06C0.699,-0.062 0.693,-0.066 0.686,-0.072C0.651,-0.103 0.618,-0.133 0.589,-0.16C0.559,-0.187 0.528,-0.218 0.496,-0.252C0.463,-0.285 0.427,-0.324 0.388,-0.369C0.349,-0.414 0.302,-0.469 0.248,-0.534C0.241,-0.543 0.234,-0.553 0.227,-0.562C0.22,-0.571 0.215,-0.578 0.214,-0.582C0.211,-0.59 0.208,-0.596 0.206,-0.601C0.203,-0.606 0.2,-0.609 0.197,-0.612C0.193,-0.614 0.188,-0.615 0.183,-0.616C0.178,-0.617 0.17,-0.617 0.161,-0.617C0.156,-0.617 0.151,-0.616 0.144,-0.613C0.137,-0.61 0.13,-0.607 0.123,-0.604C0.116,-0.6 0.111,-0.596 0.106,-0.593C0.1,-0.589 0.098,-0.586 0.098,-0.583C0.098,-0.578 0.101,-0.573 0.108,-0.569C0.115,-0.565 0.123,-0.558 0.132,-0.548L0.214,-0.465C0.237,-0.442 0.248,-0.424 0.248,-0.411C0.248,-0.405 0.245,-0.395 0.238,-0.38C0.231,-0.365 0.223,-0.347 0.212,-0.327C0.201,-0.307 0.189,-0.285 0.175,-0.262C0.161,-0.238 0.147,-0.214 0.132,-0.191C0.117,-0.168 0.103,-0.145 0.088,-0.124C0.073,-0.103 0.06,-0.084 0.048,-0.069C0.039,-0.058 0.032,-0.049 0.025,-0.042C0.018,-0.035 0.015,-0.029 0.015,-0.023C0.015,-0.016 0.021,-0.01 0.032,-0.006C0.043,-0.002 0.058,-0 0.077,-0C0.086,-0 0.091,-0.003 0.092,-0.01C0.093,-0.017 0.095,-0.023 0.098,-0.029L0.148,-0.116C0.157,-0.133 0.168,-0.144 0.181,-0.151C0.194,-0.157 0.213,-0.16 0.238,-0.16Z" style="fill:white;fill-rule:nonzero;"/>
                </g>
                <g transform="matrix(77.9495,0,0,77.9495,988.01,622.795)">
                    <path d="M0.416,-0.067L0.235,-0.06C0.23,-0.06 0.226,-0.059 0.223,-0.058C0.219,-0.057 0.215,-0.056 0.212,-0.056C0.204,-0.056 0.2,-0.059 0.2,-0.064C0.2,-0.07 0.201,-0.08 0.202,-0.094C0.203,-0.108 0.205,-0.124 0.206,-0.143C0.207,-0.162 0.209,-0.182 0.21,-0.204C0.211,-0.225 0.212,-0.246 0.212,-0.267C0.212,-0.289 0.212,-0.308 0.211,-0.325C0.21,-0.341 0.21,-0.358 0.21,-0.377C0.21,-0.405 0.211,-0.434 0.213,-0.463C0.215,-0.492 0.216,-0.522 0.216,-0.552C0.216,-0.561 0.217,-0.57 0.22,-0.579C0.223,-0.588 0.224,-0.595 0.224,-0.601C0.224,-0.608 0.22,-0.614 0.211,-0.619C0.202,-0.623 0.195,-0.625 0.189,-0.625C0.186,-0.625 0.18,-0.623 0.172,-0.618C0.163,-0.613 0.155,-0.608 0.147,-0.602C0.138,-0.595 0.131,-0.589 0.125,-0.582C0.118,-0.575 0.115,-0.57 0.115,-0.567C0.115,-0.563 0.117,-0.558 0.12,-0.552C0.123,-0.545 0.127,-0.534 0.131,-0.518C0.134,-0.501 0.138,-0.478 0.141,-0.45C0.144,-0.421 0.146,-0.382 0.146,-0.333L0.146,-0.192C0.146,-0.171 0.146,-0.153 0.146,-0.138C0.145,-0.123 0.145,-0.11 0.144,-0.099C0.144,-0.086 0.141,-0.077 0.134,-0.07C0.127,-0.063 0.124,-0.056 0.124,-0.051C0.124,-0.049 0.125,-0.045 0.128,-0.04C0.13,-0.034 0.133,-0.028 0.137,-0.023C0.141,-0.017 0.145,-0.012 0.15,-0.007C0.154,-0.002 0.158,-0 0.162,-0C0.174,-0 0.184,-0.002 0.193,-0.007C0.196,-0.008 0.199,-0.01 0.203,-0.011C0.206,-0.012 0.212,-0.012 0.22,-0.013C0.228,-0.013 0.239,-0.013 0.253,-0.014C0.266,-0.014 0.284,-0.014 0.307,-0.014C0.328,-0.014 0.346,-0.014 0.36,-0.014C0.373,-0.013 0.384,-0.013 0.392,-0.013C0.4,-0.012 0.406,-0.012 0.409,-0.012C0.412,-0.011 0.415,-0.011 0.416,-0.01C0.426,-0.007 0.434,-0.004 0.439,-0.003C0.444,-0.001 0.449,-0 0.455,-0C0.459,-0 0.463,-0.004 0.467,-0.011C0.47,-0.018 0.474,-0.025 0.477,-0.034C0.48,-0.042 0.482,-0.05 0.484,-0.058C0.485,-0.065 0.486,-0.07 0.486,-0.072C0.486,-0.081 0.48,-0.085 0.469,-0.085C0.462,-0.085 0.453,-0.082 0.444,-0.077C0.435,-0.071 0.425,-0.068 0.416,-0.067Z" style="fill:white;fill-rule:nonzero;"/>
                </g>
            </g>
            <g transform="matrix(0.341992,0,0,0.341992,100.135,377.696)">
                <g transform="matrix(73.4066,0,0,73.4066,173.245,834.564)">
                    <rect x="0.064" y="-0.718" width="0.107" height="0.718" style="fill:white;fill-rule:nonzero;"/>
                </g>
                <g transform="matrix(73.4066,0,0,73.4066,186.52,834.564)">
                    <path d="M0.55,-0.517L0.367,-0L0.361,-0L0.167,-0.518L0.167,-0L0.06,-0L0.06,-0.718L0.208,-0.718L0.364,-0.28L0.517,-0.718L0.656,-0.718L0.656,-0L0.55,-0L0.55,-0.517Z" style="fill:white;fill-rule:nonzero;"/>
                </g>
                <g transform="matrix(73.4066,0,0,73.4066,235.104,834.564)">
                    <path d="M0.167,-0.611L0.167,-0.389L0.322,-0.389C0.395,-0.389 0.432,-0.425 0.432,-0.497C0.432,-0.573 0.395,-0.611 0.322,-0.611L0.167,-0.611ZM0.167,-0.283L0.167,-0L0.06,-0L0.06,-0.718L0.313,-0.718C0.346,-0.718 0.376,-0.713 0.404,-0.705C0.431,-0.696 0.455,-0.682 0.475,-0.664C0.495,-0.646 0.51,-0.623 0.522,-0.596C0.533,-0.569 0.538,-0.537 0.538,-0.5C0.538,-0.43 0.518,-0.376 0.477,-0.339C0.436,-0.302 0.381,-0.283 0.313,-0.283L0.167,-0.283Z" style="fill:white;fill-rule:nonzero;"/>
                </g>
                <g transform="matrix(73.4066,0,0,73.4066,272.09,834.564)">
                    <path d="M0.06,-0.718L0.167,-0.718L0.167,-0.106L0.467,-0.106L0.467,-0L0.06,-0L0.06,-0.718Z" style="fill:white;fill-rule:nonzero;"/>
                </g>
                <g transform="matrix(73.4066,0,0,73.4066,303.717,834.564)">
                    <path d="M0.424,-0.138L0.16,-0.138L0.122,-0L0.006,-0L0.218,-0.718L0.367,-0.718L0.578,-0L0.464,-0L0.424,-0.138ZM0.19,-0.244L0.394,-0.244L0.291,-0.609L0.19,-0.244Z" style="fill:white;fill-rule:nonzero;"/>
                </g>
                <g transform="matrix(73.4066,0,0,73.4066,342.612,834.564)">
                    <path d="M0.166,-0.534L0.166,-0L0.06,-0L0.06,-0.718L0.192,-0.718L0.452,-0.206L0.452,-0.718L0.559,-0.718L0.559,-0L0.437,-0L0.166,-0.534Z" style="fill:white;fill-rule:nonzero;"/>
                </g>
                <g transform="matrix(73.4066,0,0,73.4066,384.076,834.564)">
                    <path d="M0.328,-0L0.211,-0L0.211,-0.611L0.022,-0.611L0.022,-0.718L0.515,-0.718L0.515,-0.611L0.328,-0.611L0.328,-0Z" style="fill:white;fill-rule:nonzero;"/>
                </g>
                <g transform="matrix(73.4066,0,0,73.4066,419.52,834.564)">
                    <path d="M0.084,-0.155C0.107,-0.139 0.133,-0.126 0.162,-0.115C0.191,-0.104 0.224,-0.099 0.262,-0.099C0.299,-0.099 0.329,-0.107 0.352,-0.124C0.375,-0.14 0.386,-0.162 0.386,-0.191C0.386,-0.217 0.374,-0.24 0.351,-0.26C0.328,-0.279 0.297,-0.3 0.259,-0.322C0.233,-0.337 0.205,-0.354 0.174,-0.373C0.143,-0.391 0.116,-0.413 0.093,-0.438C0.077,-0.455 0.066,-0.472 0.059,-0.49C0.052,-0.507 0.049,-0.529 0.049,-0.557C0.049,-0.585 0.055,-0.61 0.067,-0.631C0.079,-0.652 0.095,-0.67 0.115,-0.685C0.134,-0.699 0.157,-0.71 0.183,-0.717C0.209,-0.724 0.236,-0.728 0.264,-0.728C0.285,-0.728 0.306,-0.727 0.326,-0.725C0.345,-0.722 0.364,-0.719 0.381,-0.715C0.398,-0.71 0.413,-0.705 0.426,-0.699C0.439,-0.692 0.449,-0.685 0.457,-0.677L0.427,-0.567C0.409,-0.582 0.387,-0.594 0.362,-0.603C0.336,-0.612 0.306,-0.616 0.272,-0.616C0.237,-0.616 0.209,-0.61 0.188,-0.597C0.166,-0.584 0.155,-0.564 0.155,-0.539C0.155,-0.528 0.159,-0.518 0.167,-0.508C0.175,-0.497 0.185,-0.487 0.198,-0.478C0.21,-0.469 0.223,-0.46 0.238,-0.452C0.252,-0.443 0.266,-0.436 0.279,-0.429C0.31,-0.412 0.338,-0.395 0.364,-0.379C0.39,-0.363 0.413,-0.346 0.432,-0.329C0.451,-0.311 0.466,-0.292 0.477,-0.271C0.488,-0.25 0.493,-0.225 0.493,-0.198C0.493,-0.166 0.487,-0.137 0.475,-0.112C0.463,-0.086 0.447,-0.064 0.426,-0.046C0.405,-0.028 0.38,-0.014 0.351,-0.005C0.322,0.005 0.292,0.01 0.259,0.01C0.211,0.01 0.169,0.004 0.134,-0.007C0.098,-0.018 0.067,-0.033 0.042,-0.05L0.084,-0.155Z" style="fill:white;fill-rule:nonzero;"/>
                </g>
                <g transform="matrix(73.4066,0,0,73.4066,480.598,834.564)">
                    <path d="M0.218,-0.323C0.201,-0.312 0.185,-0.297 0.172,-0.279C0.158,-0.261 0.151,-0.239 0.151,-0.214C0.151,-0.178 0.161,-0.151 0.182,-0.134C0.202,-0.116 0.23,-0.107 0.266,-0.107C0.289,-0.107 0.311,-0.112 0.331,-0.123C0.35,-0.133 0.365,-0.146 0.375,-0.161L0.218,-0.323ZM0.452,-0.082C0.441,-0.067 0.428,-0.053 0.413,-0.042C0.397,-0.031 0.38,-0.021 0.363,-0.014C0.345,-0.006 0.327,0 0.309,0.004C0.29,0.008 0.273,0.01 0.258,0.01C0.224,0.01 0.193,0.005 0.165,-0.004C0.137,-0.013 0.113,-0.027 0.093,-0.045C0.072,-0.062 0.056,-0.084 0.046,-0.11C0.035,-0.136 0.029,-0.166 0.029,-0.199C0.029,-0.225 0.033,-0.248 0.04,-0.269C0.047,-0.289 0.057,-0.307 0.069,-0.323C0.08,-0.339 0.094,-0.353 0.109,-0.365C0.124,-0.377 0.139,-0.387 0.155,-0.396C0.123,-0.421 0.1,-0.448 0.087,-0.476C0.074,-0.503 0.067,-0.534 0.067,-0.568C0.067,-0.599 0.074,-0.624 0.087,-0.645C0.099,-0.666 0.116,-0.682 0.137,-0.695C0.157,-0.707 0.179,-0.716 0.203,-0.721C0.227,-0.725 0.25,-0.728 0.272,-0.728C0.393,-0.728 0.455,-0.678 0.459,-0.577L0.342,-0.535C0.339,-0.569 0.331,-0.593 0.319,-0.606C0.306,-0.619 0.288,-0.626 0.264,-0.626C0.215,-0.626 0.19,-0.6 0.19,-0.547C0.19,-0.538 0.192,-0.527 0.197,-0.516C0.202,-0.505 0.213,-0.489 0.23,-0.468C0.247,-0.447 0.273,-0.419 0.306,-0.384C0.338,-0.349 0.384,-0.305 0.441,-0.25C0.46,-0.287 0.472,-0.338 0.477,-0.402L0.595,-0.402C0.595,-0.378 0.593,-0.354 0.589,-0.329C0.584,-0.304 0.579,-0.281 0.572,-0.259C0.565,-0.237 0.558,-0.217 0.55,-0.199C0.542,-0.181 0.535,-0.167 0.528,-0.156L0.674,-0L0.524,-0L0.452,-0.082Z" style="fill:white;fill-rule:nonzero;"/>
                </g>
                <g transform="matrix(73.4066,0,0,73.4066,549.233,834.564)">
                    <path d="M0.338,0.01C0.295,0.01 0.256,0.002 0.221,-0.016C0.186,-0.033 0.155,-0.057 0.13,-0.089C0.105,-0.12 0.085,-0.159 0.071,-0.205C0.057,-0.25 0.05,-0.302 0.05,-0.359C0.05,-0.417 0.057,-0.469 0.071,-0.515C0.085,-0.56 0.105,-0.599 0.13,-0.631C0.155,-0.662 0.186,-0.686 0.221,-0.703C0.256,-0.72 0.295,-0.728 0.338,-0.728C0.381,-0.728 0.42,-0.72 0.455,-0.703C0.49,-0.686 0.521,-0.662 0.546,-0.631C0.571,-0.599 0.591,-0.56 0.605,-0.515C0.619,-0.469 0.626,-0.417 0.626,-0.359C0.626,-0.302 0.619,-0.25 0.605,-0.205C0.591,-0.159 0.571,-0.12 0.546,-0.089C0.521,-0.057 0.49,-0.033 0.455,-0.016C0.42,0.002 0.381,0.01 0.338,0.01ZM0.338,-0.102C0.364,-0.102 0.388,-0.107 0.41,-0.118C0.432,-0.128 0.451,-0.144 0.468,-0.165C0.485,-0.186 0.498,-0.213 0.507,-0.246C0.516,-0.278 0.521,-0.316 0.521,-0.359C0.521,-0.446 0.505,-0.511 0.472,-0.554C0.439,-0.596 0.395,-0.617 0.338,-0.617C0.281,-0.617 0.237,-0.596 0.204,-0.554C0.171,-0.511 0.155,-0.446 0.155,-0.359C0.155,-0.316 0.16,-0.278 0.169,-0.246C0.178,-0.213 0.191,-0.186 0.208,-0.165C0.225,-0.144 0.244,-0.128 0.266,-0.118C0.288,-0.107 0.312,-0.102 0.338,-0.102Z" style="fill:white;fill-rule:nonzero;"/>
                </g>
                <g transform="matrix(73.4066,0,0,73.4066,594.881,834.564)">
                    <path d="M0.167,-0.611L0.167,-0.389L0.322,-0.389C0.395,-0.389 0.432,-0.425 0.432,-0.497C0.432,-0.573 0.395,-0.611 0.322,-0.611L0.167,-0.611ZM0.295,-0.283L0.167,-0.283L0.167,-0L0.06,-0L0.06,-0.718L0.313,-0.718C0.388,-0.718 0.444,-0.699 0.482,-0.661C0.519,-0.622 0.538,-0.569 0.538,-0.5C0.538,-0.448 0.526,-0.405 0.502,-0.372C0.477,-0.339 0.444,-0.315 0.402,-0.302L0.54,-0L0.423,-0L0.295,-0.283Z" style="fill:white;fill-rule:nonzero;"/>
                </g>
                <g transform="matrix(73.4066,0,0,73.4066,631.72,834.564)">
                    <path d="M0.328,-0L0.211,-0L0.211,-0.611L0.022,-0.611L0.022,-0.718L0.515,-0.718L0.515,-0.611L0.328,-0.611L0.328,-0Z" style="fill:white;fill-rule:nonzero;"/>
                </g>
                <g transform="matrix(73.4066,0,0,73.4066,667.165,834.564)">
                    <path d="M0.443,-0.315L0.167,-0.315L0.167,-0L0.06,-0L0.06,-0.718L0.167,-0.718L0.167,-0.421L0.443,-0.421L0.443,-0.718L0.55,-0.718L0.55,-0L0.443,-0L0.443,-0.315Z" style="fill:white;fill-rule:nonzero;"/>
                </g>
                <g transform="matrix(73.4066,0,0,73.4066,707.968,834.564)">
                    <path d="M0.338,0.01C0.295,0.01 0.256,0.002 0.221,-0.016C0.186,-0.033 0.155,-0.057 0.13,-0.089C0.105,-0.12 0.085,-0.159 0.071,-0.205C0.057,-0.25 0.05,-0.302 0.05,-0.359C0.05,-0.417 0.057,-0.469 0.071,-0.515C0.085,-0.56 0.105,-0.599 0.13,-0.631C0.155,-0.662 0.186,-0.686 0.221,-0.703C0.256,-0.72 0.295,-0.728 0.338,-0.728C0.381,-0.728 0.42,-0.72 0.455,-0.703C0.49,-0.686 0.521,-0.662 0.546,-0.631C0.571,-0.599 0.591,-0.56 0.605,-0.515C0.619,-0.469 0.626,-0.417 0.626,-0.359C0.626,-0.302 0.619,-0.25 0.605,-0.205C0.591,-0.159 0.571,-0.12 0.546,-0.089C0.521,-0.057 0.49,-0.033 0.455,-0.016C0.42,0.002 0.381,0.01 0.338,0.01ZM0.338,-0.102C0.364,-0.102 0.388,-0.107 0.41,-0.118C0.432,-0.128 0.451,-0.144 0.468,-0.165C0.485,-0.186 0.498,-0.213 0.507,-0.246C0.516,-0.278 0.521,-0.316 0.521,-0.359C0.521,-0.446 0.505,-0.511 0.472,-0.554C0.439,-0.596 0.395,-0.617 0.338,-0.617C0.281,-0.617 0.237,-0.596 0.204,-0.554C0.171,-0.511 0.155,-0.446 0.155,-0.359C0.155,-0.316 0.16,-0.278 0.169,-0.246C0.178,-0.213 0.191,-0.186 0.208,-0.165C0.225,-0.144 0.244,-0.128 0.266,-0.118C0.288,-0.107 0.312,-0.102 0.338,-0.102Z" style="fill:white;fill-rule:nonzero;"/>
                </g>
                <g transform="matrix(73.4066,0,0,73.4066,753.616,834.564)">
                    <path d="M0.167,-0.611L0.167,-0.108L0.239,-0.108C0.278,-0.108 0.312,-0.114 0.343,-0.127C0.374,-0.139 0.4,-0.156 0.421,-0.179C0.442,-0.202 0.459,-0.228 0.471,-0.259C0.482,-0.29 0.488,-0.324 0.488,-0.361C0.488,-0.399 0.483,-0.433 0.472,-0.464C0.461,-0.495 0.446,-0.521 0.425,-0.543C0.404,-0.564 0.378,-0.581 0.347,-0.593C0.316,-0.605 0.28,-0.611 0.239,-0.611L0.167,-0.611ZM0.06,-0L0.06,-0.718L0.261,-0.718C0.311,-0.718 0.357,-0.709 0.398,-0.692C0.439,-0.674 0.475,-0.649 0.504,-0.618C0.533,-0.586 0.556,-0.548 0.573,-0.505C0.589,-0.461 0.597,-0.413 0.597,-0.362C0.597,-0.306 0.588,-0.256 0.571,-0.211C0.554,-0.166 0.53,-0.128 0.5,-0.097C0.469,-0.066 0.433,-0.042 0.391,-0.025C0.349,-0.008 0.304,-0 0.255,-0L0.06,-0Z" style="fill:white;fill-rule:nonzero;"/>
                </g>
                <g transform="matrix(73.4066,0,0,73.4066,796.621,834.564)">
                    <path d="M0.338,0.01C0.295,0.01 0.256,0.002 0.221,-0.016C0.186,-0.033 0.155,-0.057 0.13,-0.089C0.105,-0.12 0.085,-0.159 0.071,-0.205C0.057,-0.25 0.05,-0.302 0.05,-0.359C0.05,-0.417 0.057,-0.469 0.071,-0.515C0.085,-0.56 0.105,-0.599 0.13,-0.631C0.155,-0.662 0.186,-0.686 0.221,-0.703C0.256,-0.72 0.295,-0.728 0.338,-0.728C0.381,-0.728 0.42,-0.72 0.455,-0.703C0.49,-0.686 0.521,-0.662 0.546,-0.631C0.571,-0.599 0.591,-0.56 0.605,-0.515C0.619,-0.469 0.626,-0.417 0.626,-0.359C0.626,-0.302 0.619,-0.25 0.605,-0.205C0.591,-0.159 0.571,-0.12 0.546,-0.089C0.521,-0.057 0.49,-0.033 0.455,-0.016C0.42,0.002 0.381,0.01 0.338,0.01ZM0.338,-0.102C0.364,-0.102 0.388,-0.107 0.41,-0.118C0.432,-0.128 0.451,-0.144 0.468,-0.165C0.485,-0.186 0.498,-0.213 0.507,-0.246C0.516,-0.278 0.521,-0.316 0.521,-0.359C0.521,-0.446 0.505,-0.511 0.472,-0.554C0.439,-0.596 0.395,-0.617 0.338,-0.617C0.281,-0.617 0.237,-0.596 0.204,-0.554C0.171,-0.511 0.155,-0.446 0.155,-0.359C0.155,-0.316 0.16,-0.278 0.169,-0.246C0.178,-0.213 0.191,-0.186 0.208,-0.165C0.225,-0.144 0.244,-0.128 0.266,-0.118C0.288,-0.107 0.312,-0.102 0.338,-0.102Z" style="fill:white;fill-rule:nonzero;"/>
                </g>
                <g transform="matrix(73.4066,0,0,73.4066,842.269,834.564)">
                    <path d="M0.166,-0.534L0.166,-0L0.06,-0L0.06,-0.718L0.192,-0.718L0.452,-0.206L0.452,-0.718L0.559,-0.718L0.559,-0L0.437,-0L0.166,-0.534Z" style="fill:white;fill-rule:nonzero;"/>
                </g>
                <g transform="matrix(73.4066,0,0,73.4066,883.732,834.564)">
                    <path d="M0.328,-0L0.211,-0L0.211,-0.611L0.022,-0.611L0.022,-0.718L0.515,-0.718L0.515,-0.611L0.328,-0.611L0.328,-0Z" style="fill:white;fill-rule:nonzero;"/>
                </g>
                <g transform="matrix(73.4066,0,0,73.4066,919.177,834.564)">
                    <rect x="0.064" y="-0.718" width="0.107" height="0.718" style="fill:white;fill-rule:nonzero;"/>
                </g>
                <g transform="matrix(73.4066,0,0,73.4066,932.452,834.564)">
                    <path d="M0.49,-0.538C0.473,-0.566 0.453,-0.586 0.431,-0.597C0.408,-0.608 0.378,-0.614 0.34,-0.614C0.312,-0.614 0.287,-0.608 0.265,-0.596C0.242,-0.584 0.223,-0.567 0.208,-0.545C0.192,-0.522 0.18,-0.495 0.172,-0.464C0.163,-0.433 0.159,-0.398 0.159,-0.359C0.159,-0.323 0.164,-0.29 0.173,-0.259C0.182,-0.228 0.194,-0.201 0.211,-0.178C0.228,-0.155 0.247,-0.138 0.27,-0.125C0.292,-0.112 0.317,-0.105 0.344,-0.105C0.379,-0.105 0.407,-0.111 0.429,-0.124C0.45,-0.137 0.469,-0.152 0.485,-0.17L0.573,-0.111C0.52,-0.03 0.443,0.01 0.34,0.01C0.297,0.01 0.258,0.001 0.223,-0.018C0.188,-0.037 0.157,-0.062 0.132,-0.095C0.106,-0.128 0.086,-0.167 0.072,-0.212C0.057,-0.257 0.05,-0.306 0.05,-0.359C0.05,-0.411 0.057,-0.46 0.07,-0.505C0.083,-0.55 0.102,-0.589 0.128,-0.622C0.153,-0.655 0.183,-0.681 0.219,-0.7C0.254,-0.719 0.295,-0.728 0.34,-0.728C0.45,-0.728 0.53,-0.685 0.58,-0.598L0.49,-0.538Z" style="fill:white;fill-rule:nonzero;"/>
                </g>
                <g transform="matrix(73.4066,0,0,73.4066,974.43,834.564)">
                    <path d="M0.084,-0.155C0.107,-0.139 0.133,-0.126 0.162,-0.115C0.191,-0.104 0.224,-0.099 0.262,-0.099C0.299,-0.099 0.329,-0.107 0.352,-0.124C0.375,-0.14 0.386,-0.162 0.386,-0.191C0.386,-0.217 0.374,-0.24 0.351,-0.26C0.328,-0.279 0.297,-0.3 0.259,-0.322C0.233,-0.337 0.205,-0.354 0.174,-0.373C0.143,-0.391 0.116,-0.413 0.093,-0.438C0.077,-0.455 0.066,-0.472 0.059,-0.49C0.052,-0.507 0.049,-0.529 0.049,-0.557C0.049,-0.585 0.055,-0.61 0.067,-0.631C0.079,-0.652 0.095,-0.67 0.115,-0.685C0.134,-0.699 0.157,-0.71 0.183,-0.717C0.209,-0.724 0.236,-0.728 0.264,-0.728C0.285,-0.728 0.306,-0.727 0.326,-0.725C0.345,-0.722 0.364,-0.719 0.381,-0.715C0.398,-0.71 0.413,-0.705 0.426,-0.699C0.439,-0.692 0.449,-0.685 0.457,-0.677L0.427,-0.567C0.409,-0.582 0.387,-0.594 0.362,-0.603C0.336,-0.612 0.306,-0.616 0.272,-0.616C0.237,-0.616 0.209,-0.61 0.188,-0.597C0.166,-0.584 0.155,-0.564 0.155,-0.539C0.155,-0.528 0.159,-0.518 0.167,-0.508C0.175,-0.497 0.185,-0.487 0.198,-0.478C0.21,-0.469 0.223,-0.46 0.238,-0.452C0.252,-0.443 0.266,-0.436 0.279,-0.429C0.31,-0.412 0.338,-0.395 0.364,-0.379C0.39,-0.363 0.413,-0.346 0.432,-0.329C0.451,-0.311 0.466,-0.292 0.477,-0.271C0.488,-0.25 0.493,-0.225 0.493,-0.198C0.493,-0.166 0.487,-0.137 0.475,-0.112C0.463,-0.086 0.447,-0.064 0.426,-0.046C0.405,-0.028 0.38,-0.014 0.351,-0.005C0.322,0.005 0.292,0.01 0.259,0.01C0.211,0.01 0.169,0.004 0.134,-0.007C0.098,-0.018 0.067,-0.033 0.042,-0.05L0.084,-0.155Z" style="fill:white;fill-rule:nonzero;"/>
                </g>
            </g>
            <g transform="matrix(0.341992,0,0,0.341992,292.612,629.286)">
                <path d="M0,-89.429C-1.732,-88.855 -3.558,-88.796 -5.336,-88.475C-12.318,-87.213 -19.224,-85.654 -26.023,-83.614C-36.344,-80.517 -46.266,-76.44 -55.756,-71.359C-63.139,-67.408 -70.193,-62.91 -76.849,-57.808C-81.66,-54.12 -86.318,-50.26 -90.743,-46.107C-94.096,-42.96 -97.568,-39.936 -101.078,-36.963C-105.235,-33.44 -109.61,-30.191 -114.087,-27.083C-119.704,-23.184 -125.558,-19.687 -131.606,-16.493C-139.73,-12.203 -148.202,-8.779 -156.952,-6.027C-161.761,-4.514 -166.657,-3.29 -171.606,-2.35C-175.634,-1.586 -179.723,-1.2 -183.79,-0.573C-188.186,0.105 -190.34,0.202 -193.637,0.087C-197.119,-0.034 -200.583,-0.424 -204.049,-0.801C-208.409,-1.274 -212.732,-1.949 -217.033,-2.779C-223.104,-3.951 -229.096,-5.437 -235.021,-7.226C-242.884,-9.602 -250.348,-12.912 -257.577,-16.745C-264.239,-20.278 -270.605,-24.319 -276.786,-28.647C-282.864,-32.904 -288.802,-37.345 -294.641,-41.924C-299.454,-45.699 -304.353,-49.363 -309.167,-53.137C-315.69,-58.249 -322.302,-63.24 -329.089,-67.997C-335.365,-72.396 -341.848,-76.453 -348.626,-80.047C-355.763,-83.829 -363.179,-86.883 -370.962,-89.044L-371.037,-89.136C-371.159,-89.469 -371.833,-89.004 -371.752,-89.631L0.008,-89.631L0.084,-89.493L0,-89.429Z" style="fill:white;fill-rule:nonzero;"/>
            </g>
            <g transform="matrix(0.341992,0,0,0.341992,444.623,628.55)">
                <path d="M0,-87.477C-1.771,-87.165 -3.534,-86.812 -5.312,-86.549C-9.8,-85.885 -14.209,-84.865 -18.576,-83.659C-25.628,-81.711 -32.42,-79.085 -39.029,-75.947C-45.002,-73.111 -50.696,-69.807 -56.222,-66.196C-61.779,-62.565 -67.084,-58.594 -72.181,-54.341C-74.586,-52.335 -76.987,-50.332 -79.285,-48.2C-82.691,-45.039 -86.084,-41.857 -89.618,-38.844C-97.292,-32.301 -105.426,-26.373 -114.157,-21.315C-121.479,-17.072 -129.1,-13.439 -137.021,-10.417C-143.884,-7.798 -150.907,-5.732 -158.047,-4.073C-162.728,-2.985 -167.47,-2.169 -172.245,-1.558C-176.569,-1.005 -180.901,-0.628 -185.25,-0.315C-189.638,0 -193.98,-0.252 -198.345,-0.568C-200.441,-0.721 -202.533,-0.906 -204.626,-1.099C-207.655,-1.377 -210.669,-1.779 -213.681,-2.201C-216.846,-2.644 -219.997,-3.155 -223.141,-3.726C-229.215,-4.827 -235.077,-6.647 -240.786,-8.957C-248.616,-12.125 -255.921,-16.286 -262.858,-21.068C-267.245,-24.092 -271.473,-27.345 -275.567,-30.769C-279.461,-34.025 -283.267,-37.377 -287.027,-40.786C-290.003,-43.483 -292.901,-46.264 -295.903,-48.926C-300.046,-52.599 -304.229,-56.226 -308.631,-59.602C-312.111,-62.27 -315.643,-64.856 -319.282,-67.292C-325.304,-71.323 -331.616,-74.859 -338.194,-77.891C-345.479,-81.248 -353.028,-83.894 -360.84,-85.723C-363.559,-86.36 -366.281,-87.051 -369.084,-87.285C-369.181,-87.292 -369.269,-87.411 -369.36,-87.477L0,-87.477Z" style="fill:white;fill-rule:nonzero;"/>
            </g>
            <g transform="matrix(0.341992,0,0,0.341992,152.179,638.122)">
                <path d="M0,-103.467C2.712,-103.398 5.405,-103.762 8.121,-103.745C16.363,-103.695 24.458,-102.656 32.409,-100.487C38.254,-98.891 43.878,-96.724 49.375,-94.172C55.814,-91.183 61.89,-87.577 67.869,-83.775C73.575,-80.146 79.035,-76.172 84.447,-72.139C90.942,-67.3 97.277,-62.247 103.684,-57.289C111.368,-51.342 119.037,-45.382 127.027,-39.837C135.271,-34.116 143.817,-28.929 152.898,-24.664C159.41,-21.604 166.149,-19.14 173.121,-17.294C177.735,-16.071 182.375,-14.975 187.056,-14.07C190.386,-13.425 193.75,-12.955 197.115,-12.491C200.805,-11.983 204.515,-11.563 208.218,-11.403C213.183,-11.188 218.161,-10.727 223.148,-11.277C225.039,-11.486 226.96,-11.392 228.871,-11.528C233.455,-11.852 237.996,-12.442 242.53,-13.167C248.619,-14.14 254.598,-15.576 260.494,-17.345C264.961,-18.686 269.351,-20.265 273.666,-22.043C283.855,-26.24 293.485,-31.476 302.575,-37.697C307.18,-40.848 311.672,-44.152 315.952,-47.746C319.42,-50.658 322.806,-53.653 326.139,-56.72C332.643,-62.705 339.413,-68.368 346.739,-73.355C351.265,-76.437 355.9,-79.32 360.683,-81.977C370.063,-87.188 379.908,-91.317 390.132,-94.536C396.608,-96.576 403.202,-98.161 409.876,-99.424C414.379,-100.276 418.906,-100.982 423.451,-101.49C426.598,-101.842 429.762,-102.124 432.931,-102.327C437.348,-102.609 441.773,-102.572 446.179,-102.836C450.575,-103.099 454.935,-102.635 459.315,-102.688C462.159,-102.721 465.035,-102.516 467.881,-102.248C471.577,-101.901 475.265,-101.483 478.94,-100.895C485.431,-99.857 491.766,-98.254 497.98,-96.166C504.634,-93.93 511.026,-91.064 517.206,-87.749C524.741,-83.706 531.849,-78.98 538.614,-73.76C542.911,-70.446 547.072,-66.962 551.077,-63.289C554.008,-60.602 556.892,-57.861 559.867,-55.226C564.346,-51.259 568.781,-47.243 573.441,-43.478C578.242,-39.599 583.141,-35.865 588.318,-32.51C591.603,-30.383 594.983,-28.416 598.46,-26.598C603.661,-23.879 609.04,-21.624 614.629,-19.856C619.339,-18.366 624.152,-17.352 629.03,-16.57C632.774,-15.969 636.525,-15.412 640.286,-14.975C643.273,-14.629 646.281,-14.386 649.287,-14.166C655.767,-13.689 662.25,-13.338 668.741,-13.518C673.659,-13.655 678.574,-13.915 683.483,-14.39C689.115,-14.936 694.69,-15.778 700.242,-16.836C705.051,-17.753 709.79,-18.958 714.483,-20.336C723.312,-22.928 731.82,-26.345 740.035,-30.481C748.907,-34.949 757.262,-40.259 765.144,-46.293C768.855,-49.134 772.488,-52.086 775.896,-55.302C778.644,-57.895 781.416,-60.465 784.266,-62.943C788,-66.19 791.823,-69.328 795.737,-72.365C801.129,-76.549 806.761,-80.368 812.619,-83.848C817.666,-86.845 822.908,-89.468 828.312,-91.794C835.269,-94.787 842.433,-97.088 849.801,-98.772C853.724,-99.669 857.688,-100.364 861.688,-100.849C865.454,-101.306 869.216,-101.802 872.982,-102.256C874.085,-102.389 875.198,-102.425 876.304,-102.53C876.959,-102.592 877.222,-102.383 877.214,-101.674C877.181,-98.634 877.189,-95.594 877.208,-92.554C877.212,-91.981 877.096,-91.73 876.434,-91.672C872.104,-91.293 867.825,-90.557 863.541,-89.826C855.426,-88.44 847.517,-86.312 839.774,-83.543C832.979,-81.113 826.471,-78.065 820.199,-74.48C814.216,-71.061 808.562,-67.161 803.098,-62.993C799.45,-60.212 795.895,-57.305 792.408,-54.315C785.802,-48.649 779.18,-42.994 772.129,-37.879C766.275,-33.634 760.272,-29.606 754.002,-25.99C749.712,-23.515 745.387,-21.103 740.908,-18.99C731.75,-14.667 722.331,-11.044 712.549,-8.352C706.607,-6.717 700.604,-5.4 694.539,-4.395C691.112,-3.828 687.652,-3.422 684.184,-3.093C678.599,-2.565 673.008,-2.346 667.41,-2.083C663.451,-1.896 659.526,-2.176 655.596,-2.254C651.132,-2.342 646.66,-2.841 642.223,-3.409C633.444,-4.533 624.814,-6.387 616.337,-8.979C606.87,-11.873 597.819,-15.736 589.099,-20.382C581.813,-24.262 574.936,-28.802 568.356,-33.774C564.787,-36.472 561.386,-39.391 558.007,-42.335C553.454,-46.301 549.306,-50.67 545.019,-54.901C538.047,-61.779 530.472,-67.907 522.177,-73.107C513.24,-78.709 503.683,-82.998 493.596,-86.081C487.629,-87.905 481.545,-89.264 475.38,-90.2C472.45,-90.644 469.496,-90.959 466.54,-91.244C460.424,-91.836 454.3,-92.013 448.166,-91.918C442.842,-91.835 437.531,-91.518 432.226,-91.013C429.034,-90.709 425.842,-90.393 422.664,-89.984C418.906,-89.501 415.152,-88.952 411.422,-88.289C407,-87.502 402.584,-86.653 398.201,-85.669C391.793,-84.23 385.615,-82.074 379.595,-79.436C371.922,-76.073 364.713,-71.891 357.817,-67.175C352.892,-63.807 348.134,-60.203 343.528,-56.399C339.862,-53.372 336.229,-50.311 332.644,-47.189C326.349,-41.709 319.944,-36.368 313.073,-31.598C307.188,-27.515 301.168,-23.672 294.887,-20.225C284.767,-14.672 274.215,-10.135 263.183,-6.751C256.81,-4.796 250.345,-3.2 243.749,-2.131C239.492,-1.44 235.237,-0.83 230.939,-0.461C228.165,-0.222 225.385,-0.141 222.613,0.045C220.178,0.209 217.747,0.295 215.326,0.188C210.849,-0.009 206.373,-0.22 201.905,-0.683C193.794,-1.525 185.815,-3.001 177.933,-5.047C170.619,-6.946 163.49,-9.393 156.492,-12.241C150.862,-14.531 145.392,-17.165 140.043,-20.025C131.475,-24.606 123.271,-29.779 115.472,-35.598C106.153,-42.553 96.723,-49.361 87.401,-56.313C78.553,-62.912 69.626,-69.404 60.641,-75.814C56.214,-78.972 51.545,-81.745 46.63,-84.092C39.534,-87.478 32.12,-89.936 24.405,-91.4C19.936,-92.248 15.413,-92.759 10.847,-92.96C8.375,-93.069 5.907,-93.045 3.439,-93.126C2.287,-93.164 1.164,-92.714 0,-92.907L0,-103.467Z" style="fill:white;fill-rule:nonzero;"/>
            </g>
            <g transform="matrix(0.341992,0,0,0.341992,152.179,642.504)">
                <path d="M0,-90.841C2.152,-90.774 4.296,-90.939 6.444,-91.045C9.59,-91.2 12.681,-90.591 15.758,-90.062C20.692,-89.214 25.529,-87.945 30.257,-86.279C38.959,-83.21 46.991,-78.887 54.449,-73.465C60.637,-68.966 66.891,-64.558 73.064,-60.04C79.4,-55.403 85.667,-50.672 91.979,-46.002C97.336,-42.037 102.756,-38.154 108.072,-34.135C113.906,-29.724 120.029,-25.755 126.318,-22.048C131.736,-18.854 137.354,-16.023 143.068,-13.38C149.235,-10.527 155.551,-8.06 162.016,-5.987C168.394,-3.943 174.866,-2.251 181.462,-1.035C183.937,-0.578 186.421,-0.193 188.896,0.359L0,0.359L0,-90.841Z" style="fill:white;fill-rule:nonzero;"/>
            </g>
            <g transform="matrix(0.341992,0,0,0.341992,165.475,598.803)">
                <path d="M0,-0.496C0.239,-0.331 0.477,-0.165 0.716,0C0.044,-0.038 -0.616,-0.121 -1.2,-0.496L0,-0.496Z" style="fill:white;fill-rule:nonzero;"/>
            </g>
            <g transform="matrix(0.341992,0,0,0.341992,292.612,598.725)">
                <path d="M0,-0.065L0.008,-0.267L1.687,-0.267C1.173,0.202 0.566,-0.103 0,-0.065" style="fill:white;fill-rule:nonzero;"/>
            </g>
            <g transform="matrix(0.341992,0,0,0.341992,236.388,611.739)">
                <path d="M0,89.94C2.467,89.475 4.934,89.011 7.4,88.544C11.893,87.695 16.32,86.575 20.699,85.27C29.832,82.55 38.671,79.105 47.241,74.912C55.848,70.7 64.042,65.815 71.9,60.371C76.801,56.975 81.56,53.372 86.055,49.436C89.511,46.409 92.972,43.383 96.498,40.438C102.226,35.652 107.993,30.918 114.08,26.578C119.877,22.444 125.865,18.645 132.179,15.347C140.719,10.888 149.644,7.523 159.069,5.461C164.461,4.282 169.889,3.306 175.331,2.43C179.187,1.809 183.062,1.272 186.961,0.904C191.78,0.451 194.292,0.196 197.968,-0.079C200.724,-0.286 203.47,-0.188 206.214,-0.227C209.651,-0.276 212.602,0.256 215.788,0.638C219.554,1.088 223.301,1.641 227.012,2.398C233.389,3.698 239.629,5.495 245.742,7.749C249.823,9.253 253.799,10.996 257.683,12.935C264.802,16.491 271.469,20.793 277.757,25.656C280.953,28.128 283.979,30.813 286.958,33.556C290.429,36.752 293.66,40.179 297.037,43.463C301.987,48.279 307.217,52.761 312.683,56.986C319.227,62.043 326.098,66.576 333.352,70.544C340.089,74.23 347.054,77.401 354.266,80.044C360.083,82.176 366.021,83.891 372.047,85.3C376.152,86.261 380.3,87.031 384.485,87.594C388.211,88.096 391.938,88.518 395.688,88.819C399.185,89.098 402.685,89.104 406.175,89.303C411.967,89.633 417.754,89.423 423.542,89.456C426.608,89.472 429.682,89.334 432.745,89.209C436.822,89.042 440.901,88.729 444.955,88.264C455.23,87.086 465.365,85.177 475.28,82.162C482.23,80.047 489.033,77.556 495.674,74.61C504.361,70.754 512.641,66.167 520.648,61.05C526.575,57.264 532.265,53.159 537.812,48.849C541.78,45.766 545.583,42.481 549.408,39.221C553.468,35.762 557.612,32.404 561.816,29.114C567.141,24.946 572.667,21.077 578.472,17.636C584.528,14.046 590.874,11.011 597.49,8.554C602.855,6.563 608.301,4.843 613.862,3.507C618.229,2.459 622.621,1.523 627.078,0.929C627.855,0.826 628.624,0.657 629.396,0.519C629.625,0.954 629.524,1.402 629.524,1.832C629.53,30.832 629.524,59.831 629.552,88.831C629.553,89.885 629.338,90.226 628.2,90.226C419.165,90.198 210.129,90.199 1.094,90.197C0.734,90.197 0.375,90.174 0.016,90.163L-0.079,90.02L0,89.94Z" style="fill:white;fill-rule:nonzero;"/>
            </g>
        </g>
    </g>
</svg>
