<?xml version="1.0" encoding="UTF-8" standalone="no"?>
<!DOCTYPE svg PUBLIC "-//W3C//DTD SVG 1.1//EN" "http://www.w3.org/Graphics/SVG/1.1/DTD/svg11.dtd">
<svg width="100%" height="100%" viewBox="0 0 611 348" version="1.1" xmlns="http://www.w3.org/2000/svg" xmlns:xlink="http://www.w3.org/1999/xlink" xml:space="preserve" xmlns:serif="http://www.serif.com/" style="fill-rule:evenodd;clip-rule:evenodd;stroke-linejoin:round;stroke-miterlimit:2;">
    <g id="Page-1">
        <g id="PrimeDental">
            <g id="Group-3" transform="matrix(1,0,0,1,0,270)">
                <path id="Fill-1" d="M44.979,28.775C44.979,20.389 39.315,13.527 29.732,13.527C20.148,13.527 14.485,20.389 14.485,28.775C14.485,37.161 20.693,44.021 29.732,44.021C38.771,44.021 44.979,37.161 44.979,28.775ZM0,78L0,1.874L12.415,1.874L13.287,9.28C17.425,3.29 24.614,0.676 30.713,0.676C47.265,0.676 58.265,12.984 58.265,28.775C58.265,44.456 48.355,56.872 31.148,56.872C25.484,56.872 17.099,55.13 13.287,49.249L13.287,78L0,78Z" style="fill:white;"/>
            </g>
            <path id="Fill-4" d="M80.379,271.874L81.359,278.081C85.496,271.439 91.051,270.459 96.496,270.459C102.05,270.459 107.387,272.636 110.327,275.577L104.337,287.122C101.615,284.834 99.11,283.636 94.754,283.636C87.784,283.636 81.359,287.339 81.359,297.249L81.359,325.566L68.071,325.566L68.071,271.874L80.379,271.874" style="fill:white;"/>
            <path id="Fill-5" d="M115.339,325.566L128.626,325.566L128.626,271.657L115.339,271.657L115.339,325.566ZM129.824,256.736C129.824,267.082 114.142,267.082 114.142,256.736C114.142,246.39 129.824,246.39 129.824,256.736Z" style="fill:white;"/>
            <path id="Fill-6" d="M176.328,325.566L176.328,296.815C176.328,289.735 172.624,283.31 165.329,283.31C158.14,283.31 153.894,289.735 153.894,296.815L153.894,325.566L140.606,325.566L140.606,271.765L152.913,271.765L153.894,278.3C156.725,272.855 162.932,270.895 168.051,270.895C174.475,270.895 180.902,273.508 183.951,280.914C188.742,273.29 194.951,271.112 201.921,271.112C217.166,271.112 224.682,280.479 224.682,296.596L224.682,325.566L211.394,325.566L211.394,296.596C211.394,289.517 208.454,283.527 201.266,283.527C194.08,283.527 189.614,289.735 189.614,296.815L189.614,325.566L176.328,325.566" style="fill:white;"/>
            <path id="Fill-7" d="M278.705,292.457C277.834,285.487 272.39,282.003 264.765,282.003C257.576,282.003 251.696,285.487 249.736,292.457L278.705,292.457ZM249.52,303.456C250.391,310.101 256.162,314.892 265.527,314.892C270.43,314.892 276.854,313.041 279.904,309.883L288.397,318.269C282.735,324.15 273.477,326.981 265.311,326.981C246.795,326.981 235.796,315.546 235.796,298.339C235.796,282.003 246.905,270.241 264.331,270.241C282.301,270.241 293.516,281.35 291.447,303.456L249.52,303.456Z" style="fill:white;"/>
            <path id="Fill-8" d="M305.61,298.665C305.61,313.585 315.521,321.209 327.61,321.209C340.241,321.209 349.609,311.952 349.609,298.556C349.609,285.161 340.024,276.013 327.61,276.013C315.521,276.013 305.61,283.527 305.61,298.665ZM354.944,249.331L354.944,325.566L349.718,325.566L349.718,313.695C345.251,321.862 336.43,326.436 327.282,326.436C312.252,326.436 300.382,316.526 300.382,298.665C300.382,280.914 312.362,270.895 327.391,270.895C336.649,270.895 345.361,274.815 349.718,283.527L349.718,249.331L354.944,249.331Z" style="fill:rgb(249,249,249);"/>
            <path id="Fill-9" d="M417.567,296.487C417.46,283.201 408.745,275.795 395.786,275.795C384.68,275.795 375.094,283.31 373.896,296.487L417.567,296.487ZM368.451,298.665C368.451,282.547 380.65,270.895 395.786,270.895C410.924,270.895 424.43,280.151 422.361,301.17L373.896,301.17C374.985,313.804 384.68,321.1 395.786,321.1C402.866,321.1 411.143,318.269 415.172,312.932L418.984,315.981C413.756,322.842 404.391,326.328 395.786,326.328C380.65,326.328 368.451,315.764 368.451,298.665Z" style="fill:rgb(249,249,249);"/>
            <path id="Fill-10" d="M441.422,271.765L441.422,281.35C445.561,273.944 453.074,270.895 460.59,270.786C474.965,270.786 484.875,279.607 484.875,294.527L484.875,325.566L479.54,325.566L479.54,294.636C479.54,282.439 472.025,275.905 460.372,276.013C449.263,276.122 441.532,284.507 441.532,295.616L441.532,325.566L436.195,325.566L436.195,271.765L441.422,271.765" style="fill:rgb(249,249,249);"/>
            <path id="Fill-11" d="M508.839,255.539L508.839,271.765L527.137,271.765L527.137,276.231L508.839,276.231L508.839,309.011C508.839,316.309 510.364,321.426 518.75,321.426C521.366,321.426 524.306,320.556 527.028,319.249L528.879,323.605C525.501,325.239 522.127,326.328 518.75,326.328C507.314,326.328 503.612,319.576 503.612,309.011L503.612,276.231L492.177,276.231L492.177,271.765L503.612,271.765L503.612,256.083L508.839,255.539" style="fill:rgb(249,249,249);"/>
            <path id="Fill-12" d="M541.843,298.665C541.843,312.17 551.645,321.209 563.84,321.209C593.79,321.209 593.79,276.231 563.84,276.231C551.645,276.231 541.843,285.161 541.843,298.665ZM591.177,271.765L591.177,325.566L585.84,325.566L585.84,314.13C580.615,322.516 572.555,326.436 563.84,326.436C548.814,326.436 536.506,315.111 536.506,298.665C536.506,282.22 548.814,271.112 563.84,271.112C572.555,271.112 581.376,275.141 585.84,283.527L585.84,271.765L591.177,271.765Z" style="fill:rgb(249,249,249);"/>
            <path id="Fill-13" d="M605.663,325.566L611,325.566L611,249.331L605.663,249.331L605.663,325.566Z" style="fill:rgb(249,249,249);"/>
            <g id="Group-17" transform="matrix(1,0,0,1,200,0)">
                <path id="Fill-14" d="M104.912,95.846C102.831,95.745 100.768,95.6 98.743,95.365C90.086,94.362 81.419,92.493 72.747,89.755L73.249,85.426C73.712,78.544 74.183,71.61 74.653,64.682C70.591,65.119 66.533,65.624 62.571,66.21L60.926,66.453C60.154,77.753 59.533,89.721 59.089,102.467C58.061,133.761 58.918,152.056 61.661,157.359L64.689,157.872C69.474,158.641 72.547,155.964 73.907,149.841C72.139,146.387 71.256,138.592 71.254,126.462C71.183,121.474 71.441,113.161 72.032,101.53C74.345,102.123 77.107,102.606 80.313,102.977C87.852,103.852 96.143,104.094 105.133,103.751L104.912,95.846" style="fill:white;"/>
                <path id="Fill-16" d="M3.497,53.619C5.317,53.83 6.997,53.106 8.543,51.442C10.092,49.78 10.968,48.042 11.179,46.223C12.752,32.651 23.599,22.698 43.722,16.362C61.929,10.676 82.896,9.206 106.624,11.956C128.427,14.484 146.091,19.997 159.622,28.496C167.249,33.282 172.715,38.609 176.125,44.452C177.794,47.313 179.01,50.288 179.67,53.401C180.357,56.64 180.503,60.015 180.096,63.527C179.918,65.065 179.584,66.552 179.096,67.989C178.291,70.355 177.05,72.581 175.404,74.675C170.057,81.477 160.288,86.848 146.067,90.779C142.356,91.805 138.717,92.659 135.133,93.382L135.065,100.735C149.982,98.349 162.688,94.843 173.108,90.176C179.91,87.106 185.266,83.676 189.241,79.903C191.262,77.984 192.95,75.982 194.242,73.882C196.043,70.954 197.142,67.853 197.522,64.572C197.705,62.988 197.777,61.436 197.793,59.901C197.824,57.009 197.549,54.204 196.988,51.483C194.647,40.148 187.172,30.295 174.518,21.938C159.249,11.611 139.057,4.993 113.943,2.081C86.046,-1.152 61.108,0.94 39.127,8.358C15.122,16.407 2.141,28.876 0.184,45.761C-0.386,50.678 0.72,53.297 3.497,53.619" style="fill:white;"/>
            </g>
            <path id="Fill-18" d="M264.04,31.715C263.753,34.191 263.478,36.717 263.212,39.289C267.315,38.687 271.313,38.137 275.073,37.674L276.537,37.495C277.388,25.931 277.967,19.5 278.272,18.254L275.297,14.5L265.55,21.492C265.061,23.82 264.56,27.226 264.04,31.715" style="fill:white;"/>
            <path id="Fill-19" d="M327.473,109.418C327.498,106.76 327.523,104.206 327.545,101.829C327.569,99.294 327.59,96.918 327.611,94.71C327.636,91.906 327.658,89.385 327.678,87.106C327.741,79.747 327.772,75.106 327.772,73.247L327.772,65.339C327.341,61.898 326.103,60.176 324.06,60.176C320.188,60.176 317.12,62.651 314.862,67.598C313.03,71.582 312.117,75.725 312.117,80.026C312.117,81.849 312.159,84.674 312.241,88.454C312.288,90.64 312.349,93.14 312.423,95.963C312.483,98.232 312.549,100.671 312.626,103.358C312.669,104.857 312.714,106.399 312.763,108.029C312.792,109.022 312.819,109.931 312.846,110.875C313.217,123.69 313.408,132.061 313.408,135.868C313.408,136.731 313.272,137.966 313.005,139.58C312.735,141.194 312.602,142.38 312.602,143.13C312.602,143.453 312.735,143.967 313.005,144.664C313.272,145.366 313.408,145.874 313.408,146.197C313.408,146.737 313.247,147.222 312.924,147.65C313.138,149.481 313.408,151.31 313.732,153.137C314.268,155.507 315.289,156.688 316.798,156.688C319.594,156.688 322.77,154.59 326.32,150.394C326.748,147.921 327.019,147.275 327.126,148.456C327.129,148.485 327.129,148.528 327.132,148.557C327.157,143.482 327.261,131.271 327.449,111.902C327.457,111.042 327.465,110.247 327.473,109.418" style="fill:white;"/>
            <path id="Fill-20" d="M327.207,152.492C327.259,150.822 327.231,149.518 327.132,148.557C327.128,149.332 327.126,149.952 327.126,150.394C327.126,153.516 327.152,154.216 327.207,152.492" style="fill:white;"/>
            <path id="Fill-21" d="M426.062,75.507C419.956,70.986 412.969,66.896 405.177,63.198C405.126,63.96 405.068,64.711 404.985,65.435C404.509,69.543 403.15,73.477 401.001,77.158C405.305,79.373 409.326,81.716 412.988,84.222C430.31,96.166 438.972,110.53 438.972,127.316C438.972,143.563 427.781,157.632 405.403,169.519C383.022,181.407 356.929,187.354 327.126,187.354C316.258,187.354 310.826,185.416 310.826,181.543C310.826,177.885 313.461,174.28 318.735,170.729C320.454,169.656 324.651,167.448 331.323,164.112L331.323,160.723L321.479,160.077C316.959,159.754 312.089,163.171 306.872,170.326C301.652,177.482 299.044,183.532 299.044,188.484C299.044,192.893 301.142,195.852 305.339,197.361C307.813,198.219 311.794,198.652 317.283,198.652C341.92,198.652 364.784,195.152 385.874,188.161C406.209,181.382 422.402,172.102 434.454,160.319C446.502,148.538 452.53,135.601 452.53,121.505C452.53,103.859 443.706,88.526 426.062,75.507" style="fill:rgb(249,249,249);"/>
            <path id="Fill-22" d="M275.169,57.062C277.711,56.799 280.238,56.57 282.751,56.372C290.03,55.797 297.187,55.496 304.209,55.496C320.671,55.496 338.316,57.594 357.147,61.788C362.324,62.987 367.228,64.309 371.932,65.722L371.984,65.572C372.299,64.64 372.519,63.66 372.634,62.662C372.945,59.992 372.837,57.399 372.321,54.959L371.49,51.039C370.423,50.748 369.373,50.449 368.282,50.17C348.27,45.113 329.601,42.584 312.279,42.584C303.821,42.584 294.235,43.158 283.588,44.271C281.107,44.531 278.586,44.81 275.989,45.129C271.648,45.663 267.132,46.285 262.461,46.986C261.47,47.135 260.508,47.27 259.503,47.426C257.904,47.674 256.377,47.944 254.813,48.203C230.584,52.209 210.432,57.48 194.462,64.047C172.729,73.086 160.73,83.794 158.471,96.166C163.422,99.179 166.325,100.685 167.186,100.685C171.705,100.685 174.746,99.854 176.304,98.184C177.866,96.516 178.592,93.422 178.483,88.903C189.136,78.038 208.933,69.43 237.877,63.079C243.268,61.906 248.573,60.929 253.84,60.035C256.39,59.602 258.949,59.15 261.472,58.778C266.086,58.097 270.65,57.529 275.169,57.062" style="fill:rgb(249,249,249);"/>
        </g>
    </g>
</svg>
