<?xml version="1.0" encoding="UTF-8" standalone="no"?>
<!DOCTYPE svg PUBLIC "-//W3C//DTD SVG 1.1//EN" "http://www.w3.org/Graphics/SVG/1.1/DTD/svg11.dtd">
<svg width="100%" height="100%" viewBox="0 0 402 418" version="1.1" xmlns="http://www.w3.org/2000/svg" xmlns:xlink="http://www.w3.org/1999/xlink" xml:space="preserve" xmlns:serif="http://www.serif.com/" style="fill-rule:evenodd;clip-rule:evenodd;stroke-linejoin:round;stroke-miterlimit:2;">
    <g id="Artboard1" transform="matrix(0.921052,0,0,0.876489,-254.155,-37.5151)">
        <rect x="275.94" y="42.802" width="435.654" height="476.259" style="fill:none;"/>
        <g id="Layer-1" serif:id="Layer 1" transform="matrix(4.52381,0,0,4.75381,-59.9733,-57.9017)">
            <g transform="matrix(1,0,0,1,130.317,60.5585)">
                <path d="M0,5.17C0,6.555 0.761,6.808 1.339,6.808C1.869,6.808 2.377,6.3 2.815,5.654C2.839,5.423 2.884,5.17 2.953,4.893L4.246,-1.223C3.877,-1.545 3.438,-1.638 3.115,-1.638C1.384,-1.638 0,2.031 0,5.17" style="fill:white;fill-rule:nonzero;"/>
            </g>
            <g transform="matrix(1,0,0,1,154.198,63.3976)">
                <path d="M0,-4.777C-1.292,-4.777 -2.354,-2.169 -2.839,0C-0.716,-0.023 0.784,-1.846 0.808,-3.485C0.808,-3.969 0.692,-4.777 0,-4.777" style="fill:white;fill-rule:nonzero;"/>
            </g>
            <g transform="matrix(1,0,0,1,145.809,61.5049)">
                <path d="M0,-2.146C-0.692,-2.146 -1.062,-1.892 -1.593,-1.407L-3.509,7.639L-6.831,7.639L-6.405,5.628C-7.51,6.667 -8.778,7.639 -9.791,7.639C-11.291,7.639 -12.307,7.085 -12.607,5.885C-13.3,6.831 -14.338,7.777 -15.745,7.777C-17.561,7.777 -18.312,6.723 -18.528,5.593C-19.642,6.646 -20.927,7.639 -21.951,7.639C-23.75,7.639 -24.812,6.854 -24.812,5.123C-24.812,4.754 -24.766,4.385 -24.674,3.946L-23.796,-0.207C-23.75,-0.415 -23.728,-0.623 -23.728,-0.808C-23.728,-1.638 -24.166,-2.169 -24.789,-2.169C-25.343,-2.169 -25.758,-2.007 -26.22,-1.684L-28.204,7.639L-31.527,7.639L-28.181,-8.054L-24.766,-8.515L-26.012,-2.676C-25.065,-3.346 -24.004,-3.899 -23.012,-3.899C-21.766,-3.899 -20.358,-2.561 -20.358,-1.015C-20.358,-0.831 -20.358,-0.646 -20.404,-0.461L-21.35,3.946C-21.419,4.224 -21.466,4.477 -21.466,4.685C-21.466,5.192 -21.212,5.539 -20.312,5.539C-19.796,5.539 -19.194,5.132 -18.602,4.647C-18.555,0.72 -17.1,-3.876 -12.561,-3.876C-12.007,-3.876 -11.43,-3.646 -11.015,-3.299L-10.876,-3.899L-7.553,-3.899L-9.215,3.946C-9.261,4.201 -9.307,4.454 -9.307,4.662C-9.307,5.169 -9.076,5.539 -8.153,5.539C-7.55,5.539 -6.829,4.987 -6.145,4.398L-4.385,-3.899L-1.062,-3.899L-1.315,-2.746C-0.485,-3.392 0.437,-3.899 1.407,-3.899C2.445,-3.899 3.068,-3.299 3.068,-2.422C3.068,-1.615 2.469,-0.623 1.338,-0.623C0.046,-0.623 0.691,-2.146 0,-2.146M-37.804,7.754C-39.649,7.754 -42.903,7.362 -42.903,4.039C-42.903,1.87 -41.288,0.716 -39.511,0.716C-38.473,0.716 -37.827,1.062 -37.642,1.893C-39.511,2.055 -40.342,2.839 -40.342,4.431C-40.342,5.977 -39.142,6.646 -38.058,6.646C-36.234,6.646 -35.519,5.055 -35.519,3.347C-35.519,-0.992 -40.503,-1.938 -40.503,-5.376C-40.503,-7.799 -37.757,-9.669 -35.011,-9.669C-33.788,-9.669 -31.134,-9.484 -31.134,-6.899C-31.134,-5.584 -31.85,-4.568 -33.049,-4.568C-33.419,-4.568 -33.788,-4.707 -34.088,-5.054C-33.465,-5.422 -33.049,-6.276 -33.049,-7.038C-33.049,-7.846 -33.511,-8.584 -34.734,-8.584C-36.003,-8.584 -36.88,-7.846 -36.88,-6.577C-36.88,-2.954 -31.688,-2.746 -31.688,2.4C-31.688,5.654 -34.088,7.754 -37.804,7.754M6.428,7.639C3.687,7.715 2.183,5.954 2.183,3.97C2.183,1.039 3.428,-4.107 7.628,-4.107C9.521,-4.107 10.582,-3.322 10.582,-1.707C10.582,1.108 7.56,2.724 5.366,3C5.32,3.37 5.71,5.982 8.62,5.146C14.574,3.438 14.125,-4.589 13.311,-9.801C11.734,-16.65 8.287,-23.157 2.951,-28.493C-12.192,-43.637 -36.746,-43.637 -51.889,-28.493C-67.033,-13.35 -67.033,11.204 -51.889,26.348C-36.746,41.491 -12.192,41.491 2.951,26.348C9.921,19.378 13.674,10.415 14.229,1.294C13.5,4.78 11.363,7.501 6.428,7.639" style="fill:white;fill-rule:nonzero;"/>
            </g>
            <g transform="matrix(1,0,0,1,76.3687,119.516)">
                <path d="M0,-4.643L0,0L1.31,0C2.695,0 3.631,-0.935 3.631,-2.299L3.631,-2.322C3.631,-3.686 2.695,-4.643 1.31,-4.643L0,-4.643ZM-1.694,-6.172L1.31,-6.172C3.729,-6.172 5.402,-4.511 5.402,-2.343L5.402,-2.322C5.402,-0.154 3.729,1.529 1.31,1.529L-1.694,1.529L-1.694,-6.172Z" style="fill:white;fill-rule:nonzero;"/>
            </g>
            <g transform="matrix(1,0,0,1,87.2358,121.045)">
                <path d="M0,-7.701L5.81,-7.701L5.81,-6.193L1.684,-6.193L1.684,-4.632L5.314,-4.632L5.314,-3.124L1.684,-3.124L1.684,-1.507L5.864,-1.507L5.864,0L0,0L0,-7.701Z" style="fill:white;fill-rule:nonzero;"/>
            </g>
            <g transform="matrix(1,0,0,1,98.5659,121.045)">
                <path d="M0,-7.701L1.562,-7.701L5.171,-2.959L5.171,-7.701L6.844,-7.701L6.844,0L5.402,0L1.673,-4.895L1.673,0L0,0L0,-7.701Z" style="fill:white;fill-rule:nonzero;"/>
            </g>
            <g transform="matrix(1,0,0,1,113.009,119.483)">
                <path d="M0,-4.577L-2.344,-4.577L-2.344,-6.139L4.037,-6.139L4.037,-4.577L1.694,-4.577L1.694,1.562L0,1.562L0,-4.577Z" style="fill:white;fill-rule:nonzero;"/>
            </g>
            <g transform="matrix(1,0,0,1,0,90.389)">
                <rect x="122.38" y="22.955" width="1.694" height="7.701" style="fill:white;"/>
            </g>
            <g transform="matrix(1,0,0,1,129.432,114.467)">
                <path d="M0,5.456L1.001,4.257C1.693,4.829 2.42,5.192 3.3,5.192C3.993,5.192 4.411,4.917 4.411,4.466L4.411,4.444C4.411,4.015 4.147,3.795 2.86,3.465C1.309,3.069 0.308,2.64 0.308,1.11L0.308,1.089C0.308,-0.309 1.43,-1.232 3.003,-1.232C4.125,-1.232 5.082,-0.881 5.863,-0.254L4.983,1.022C4.301,0.55 3.63,0.264 2.981,0.264C2.332,0.264 1.991,0.56 1.991,0.935L1.991,0.957C1.991,1.463 2.321,1.628 3.652,1.969C5.214,2.376 6.095,2.936 6.095,4.279L6.095,4.301C6.095,5.83 4.929,6.688 3.267,6.688C2.101,6.688 0.924,6.281 0,5.456" style="fill:white;fill-rule:nonzero;"/>
            </g>
            <g transform="matrix(1,0,0,1,142.588,119.483)">
                <path d="M0,-4.577L-2.344,-4.577L-2.344,-6.139L4.037,-6.139L4.037,-4.577L1.694,-4.577L1.694,1.562L0,1.562L0,-4.577Z" style="fill:white;fill-rule:nonzero;"/>
            </g>
            <g transform="matrix(1,0,0,1,155.293,117.304)">
                <path d="M0,-0.219C0.825,-0.219 1.298,-0.659 1.298,-1.309L1.298,-1.33C1.298,-2.057 0.792,-2.431 -0.033,-2.431L-1.717,-2.431L-1.717,-0.219L0,-0.219ZM-3.411,-3.96L0.109,-3.96C1.089,-3.96 1.848,-3.685 2.354,-3.179C2.783,-2.749 3.014,-2.145 3.014,-1.418L3.014,-1.397C3.014,-0.154 2.343,0.628 1.364,0.991L3.245,3.741L1.265,3.741L-0.386,1.277L-1.717,1.277L-1.717,3.741L-3.411,3.741L-3.411,-3.96Z" style="fill:white;fill-rule:nonzero;"/>
            </g>
            <g transform="matrix(1,0,0,1,165.688,116.38)">
                <path d="M0,1.629L-2.96,-3.036L-0.979,-3.036L0.857,0.056L2.729,-3.036L4.653,-3.036L1.694,1.596L1.694,4.665L0,4.665L0,1.629Z" style="fill:white;fill-rule:nonzero;"/>
            </g>
        </g>
    </g>
</svg>
